<?xml version="1.0" encoding="UTF-8" standalone="no"?>
<svg
   viewBox="0 0 256 256"
   width="256"
   height="256"
   preserveAspectRatio="xMidYMid"
   version="1.1"
   id="svg3"
   sodipodi:docname="telegram.svg"
   inkscape:version="1.3.2 (091e20e, 2023-11-25, custom)"
   xmlns:inkscape="http://www.inkscape.org/namespaces/inkscape"
   xmlns:sodipodi="http://sodipodi.sourceforge.net/DTD/sodipodi-0.dtd"
   xmlns="http://www.w3.org/2000/svg"
   xmlns:svg="http://www.w3.org/2000/svg">
  <sodipodi:namedview
     id="namedview3"
     pagecolor="#505050"
     bordercolor="#eeeeee"
     borderopacity="1"
     inkscape:showpageshadow="0"
     inkscape:pageopacity="0"
     inkscape:pagecheckerboard="0"
     inkscape:deskcolor="#505050"
     inkscape:zoom="1.0730898"
     inkscape:cx="-65.698137"
     inkscape:cy="325.69502"
     inkscape:window-width="1920"
     inkscape:window-height="991"
     inkscape:window-x="-9"
     inkscape:window-y="-9"
     inkscape:window-maximized="1"
     inkscape:current-layer="svg3" />
  <defs
     id="defs2">
    <linearGradient
       id="a"
       x1="50%"
       x2="50%"
       y1="0%"
       y2="100%">
      <stop
         offset="0"
         stop-color="#2AABEE"
         id="stop1"
         style="stop-color:#ffffff;stop-opacity:0.50196081;" />
      <stop
         offset="1"
         stop-color="#229ED9"
         id="stop2"
         style="stop-color:#ffffff;stop-opacity:1;" />
    </linearGradient>
  </defs>
  <path
     id="path2"
     style="fill:#99E018;"
     d="M 128 0 C 94.060034 0 61.479976 13.494258 37.5 37.490234 A 128.038 128.038 0 0 0 0 128 C 0 161.93397 13.500024 194.51379 37.5 218.50977 C 61.479976 242.50574 94.060034 256 128 256 C 161.93997 256 194.52002 242.50574 218.5 218.50977 C 242.49998 194.51379 256 161.93397 256 128 C 256 94.066034 242.49998 61.48621 218.5 37.490234 C 194.52002 13.494258 161.93997 0 128 0 z M 180.33984 77.054688 C 181.39984 77.037688 183.76078 77.299923 185.30078 78.544922 C 186.58078 79.594921 186.93914 81.01472 187.11914 82.011719 C 187.27914 83.007718 187.50031 85.278783 187.32031 87.050781 C 185.40031 107.29076 177.06031 156.40619 172.82031 179.07617 C 171.04031 188.66816 167.50007 191.88327 164.08008 192.19727 C 156.64009 192.88126 151.00077 187.28635 143.80078 182.56836 C 132.54079 175.18237 126.18022 170.58685 115.24023 163.38086 C 102.60025 155.05287 110.80001 150.47413 118 142.99414 C 119.88 141.03614 152.63977 111.24692 153.25977 108.54492 C 153.33977 108.20692 153.42016 106.94525 152.66016 106.28125 C 151.92016 105.61525 150.81953 105.84344 150.01953 106.02344 C 148.87953 106.27944 130.8995 118.17696 96.019531 141.71094 C 90.919536 145.21893 86.300621 146.92789 82.140625 146.83789 C 77.58063 146.73989 68.780228 144.25486 62.240234 142.13086 C 54.240242 139.52486 47.859922 138.1467 48.419922 133.7207 C 48.699922 131.41671 51.879459 129.05844 57.939453 126.64844 C 95.259416 110.39245 120.14009 99.674089 132.58008 94.496094 C 168.14004 79.710109 175.51985 77.141687 180.33984 77.054688 z " />
</svg>
