<svg id="_0212_diversity" xmlns="http://www.w3.org/2000/svg" xmlns:xlink="http://www.w3.org/1999/xlink" viewBox="0 0 500 500" data-imageid="diversity-90" imageName="Diversity" class="illustrations_image" style="width: 166px;"><defs><style>.cls-1_diversity-90{fill:url(#linear-gradient);}.cls-1_diversity-90,.cls-2_diversity-90,.cls-3_diversity-90,.cls-4_diversity-90,.cls-5_diversity-90,.cls-6_diversity-90,.cls-7_diversity-90,.cls-8_diversity-90,.cls-9_diversity-90,.cls-10_diversity-90,.cls-11_diversity-90,.cls-12_diversity-90,.cls-13_diversity-90,.cls-14_diversity-90,.cls-15_diversity-90,.cls-16_diversity-90,.cls-17_diversity-90{stroke-width:0px;}.cls-2_diversity-90{fill:url(#linear-gradient-11-diversity-90);}.cls-3_diversity-90{fill:url(#linear-gradient-10-diversity-90);}.cls-4_diversity-90{fill:url(#linear-gradient-4-diversity-90);}.cls-5_diversity-90{fill:url(#linear-gradient-2-diversity-90);}.cls-6_diversity-90{fill:url(#linear-gradient-3-diversity-90);}.cls-7_diversity-90{fill:url(#linear-gradient-8-diversity-90);}.cls-8_diversity-90{fill:url(#linear-gradient-9-diversity-90);}.cls-9_diversity-90{fill:url(#linear-gradient-7-diversity-90);}.cls-10_diversity-90{fill:url(#linear-gradient-5-diversity-90);}.cls-11_diversity-90{fill:url(#linear-gradient-6-diversity-90);}.cls-12_diversity-90{isolation:isolate;opacity:.24;}.cls-12_diversity-90,.cls-17_diversity-90{fill:#68e1fd;}.cls-13_diversity-90{fill:#c14834;}.cls-14_diversity-90{fill:#ffaa71;}.cls-15_diversity-90{fill:#ffb4a3;}.cls-16_diversity-90{fill:#f1b475;}</style><linearGradient id="linear-gradient-diversity-90" x1="-1860.21" y1="1912.58" x2="-1883.21" y2="1805.73" gradientTransform="translate(228.24 2819.53) rotate(47.32) scale(1 -1)" gradientUnits="userSpaceOnUse"><stop offset="0" stop-color="#231f20" stop-opacity="0"/><stop offset="1" stop-color="#231f20"/></linearGradient><linearGradient id="linear-gradient-2-diversity-90" x1="-962.08" y1="3906.31" x2="-606.17" y2="4362.03" gradientTransform="translate(1229.59 4167.44) scale(1 -1)" xlink:href="#linear-gradient-diversity-90"/><linearGradient id="linear-gradient-3-diversity-90" x1="-879.89" y1="3964.89" x2="-886.01" y2="4188.98" gradientTransform="translate(1229.59 4167.44) scale(1 -1)" xlink:href="#linear-gradient-diversity-90"/><linearGradient id="linear-gradient-4-diversity-90" x1="-1059.6" y1="3954.18" x2="-1133.52" y2="3729.62" gradientTransform="translate(1229.59 4167.44) scale(1 -1)" xlink:href="#linear-gradient-diversity-90"/><linearGradient id="linear-gradient-5-diversity-90" x1="-1082.77" y1="3896.69" x2="-1174.41" y2="3334.28" gradientTransform="translate(1229.59 4167.44) scale(1 -1)" xlink:href="#linear-gradient-diversity-90"/><linearGradient id="linear-gradient-6-diversity-90" x1="-1107.95" y1="3881.39" x2="-1105.44" y2="3693.4" gradientTransform="translate(1229.59 4167.44) scale(1 -1)" xlink:href="#linear-gradient-diversity-90"/><linearGradient id="linear-gradient-7-diversity-90" x1="-938.46" y1="3923.62" x2="-889.5" y2="3719.61" gradientTransform="translate(1229.59 4167.44) scale(1 -1)" xlink:href="#linear-gradient-diversity-90"/><linearGradient id="linear-gradient-8-diversity-90" x1="-936.21" y1="3865.71" x2="-746.96" y2="3744.88" gradientTransform="translate(1229.59 4167.44) scale(1 -1)" xlink:href="#linear-gradient-diversity-90"/><linearGradient id="linear-gradient-9-diversity-90" x1="-1050.11" y1="4040.41" x2="-1073.1" y2="3933.56" gradientTransform="translate(1229.59 4167.44) scale(1 -1)" xlink:href="#linear-gradient-diversity-90"/><linearGradient id="linear-gradient-10-diversity-90" x1="-1086.28" y1="4038.48" x2="-998.41" y2="3899.12" gradientTransform="translate(1229.59 4167.44) scale(1 -1)" gradientUnits="userSpaceOnUse"><stop offset="0" stop-color="#fff" stop-opacity="0"/><stop offset=".95" stop-color="#fff"/></linearGradient><linearGradient id="linear-gradient-11-diversity-90" x1="-1121.58" y1="4015.77" x2="-1190.55" y2="3995.06" gradientTransform="translate(1229.59 4167.44) scale(1 -1)" xlink:href="#linear-gradient-diversity-90"/></defs><path id="background_diversity-90" class="cls-12_diversity-90 targetColor" d="M499.7,249c-3.27,42.77-33.78,81.86-30.86,124.03.12,1.77.29,3.54.53,5.25.55,4.18,1.45,8.31,2.34,12.4,1.2,5.57,2.35,11.14,2.53,16.83.21,6.76-1.33,14.01-5.04,19.49-1.72,2.56-4.01,4.68-6.69,6.2-.62.34-1.26.65-1.91.93-3.65,1.4-7.49,2.27-11.39,2.57-56.52,5.95-112.73-14.28-169.59-13.61-47.84.57-94.79,15.95-142.13,21.37-7.09.83-14.17,1.44-21.26,1.7-6.56.31-13.12.31-19.69,0-2.48-.13-4.92-.3-7.35-.5-3.29-.27-6.56-.67-9.84-1.18-18.39-2.66-36.41-8.69-50.85-20.23C-.25,401.27-9.33,358.66,2.5,323.74c7.69-22.71,23.15-43.31,24.34-67.21,1.34-26.72-15.38-50.76-20.89-76.95-2.38-11.1-2.66-22.55-2.35-33.87.56-17.93,3.54-37.46,16.62-49.7,3.55-3.2,7.5-5.93,11.74-8.13,2.34-1.27,4.68-2.44,7.09-3.61,9.29-4.59,18.69-9.1,28.09-13.45,33.66-15.82,67.8-30.54,102.4-44.14,20.67-8.12,41.8-15.98,63.93-18.08,40.57-3.82,80.3,11.9,117.09,29.52,19.63,9.43,39.02,19.49,59.19,27.9,5.18,2.14,10.4,4.18,15.69,6.02,4.58,1.65,9.23,3.18,13.91,4.51,5.98,1.77,14.05,2.29,20.38,4.59l1.3.5c1.72.69,3.31,1.66,4.7,2.88l.27.24c12.46,11.76,17.21,43.93,20.84,60.16,4.62,20.59,7.45,41.56,10.23,62.47,1.82,13.81,3.68,27.75,2.63,41.63Z" style="fill: rgb(153, 224, 24);"/><g id="character_4_diversity-90"><path class="cls-1_diversity-90" d="M293.53,235.46l33.18-7.54s4.71,15.3,12.16,17.82c3.92,1.32,8.2.22,11.01-1.25,0,0,7.59-4.68,8.15-5.75,1-1.97-4.79-2.01-5.36-4.88-1.84-9.41-5.81-10.01-5.81-10.01l43.04-9.81,8.55-5.32-37.74-74.5-66.97,5.32-21.32.1-8.54,5.32,12.27,36.49s26.01-6.05,22.73,8.91c-1.63,7.49-7.51,7.09-8.24,3.33l-8.55,5.32"/><path class="cls-17_diversity-90 targetColor" d="M302.29,134.23l-29.87,5.42,12.3,36.48s20.42-5.17,22.74,8.91c2.11,12.85-16.79,8.65-16.79,8.65l11.4,36.45,33.18-7.54s4.71,15.29,12.16,17.82,15.65-2.47,13.78-11.9-5.82-10-5.82-10l43.05-9.81-29.16-79.79-66.97,5.32Z" style="fill: rgb(153, 224, 24);"/><path class="cls-5_diversity-90" d="M361.19,228.52c1.84,9.4-6.35,14.41-13.81,11.87-7.46-2.54-12.17-17.79-12.17-17.79l-33.18,7.52-11.4-36.45s18.9,4.21,16.79-8.63c-2.3-14.11-22.74-8.93-22.74-8.93l-12.27-36.48,29.86-5.42,35-2.76,31.97-2.54,14.68,40.13,1.3,3.54,5.32,14.55,7.86,21.6-43.04,9.8s4.06.6,5.83,9.98Z"/><path class="cls-6_diversity-90" d="M342.44,179.25l-4.85,7.09c3.17-.56,6.51.35,9.63-.45,1.5-.47,2.95-1.1,4.33-1.86,3.5-1.58,7.11-2.9,10.81-3.94l15.34-4.72c2.56-.79,5.86-1.37,7.49.74l-3.93-17.04c-.1-.77-.41-1.5-.89-2.11-.68-.55-1.53-.86-2.41-.89-6.71-.83-14.49.7-19.49-3.87-2.45-2.25-3.89-5.78-7.02-6.9-2.66-.95-5.63.24-7.78,2.04s-3.76,4.17-5.73,6.16c-7.33,7.34-19.42,9.08-25.32,17.61,10.13,2.31,19.32-7.58,29.71-7.77-2.99.05-8.69,5.63-11,7.44-2.52,1.99-7.09,4.6-7.27,8.17-.51,9.48,14.61,2.04,18.37.31Z"/><path class="cls-14_diversity-90" d="M466.56,83.81c-.29.23-.57.47-.89.7-11.03,8.8-22.08,17.59-33.13,26.38-3.59,2.73-6.99,5.71-10.17,8.9-17.22,18.13-18.39,46.47-31.84,67.38l-5.32-14.55c.3-1.03.1-2.14-.53-3.01-.22-.24-.48-.43-.77-.57-1.2-.64-2.91-.3-4.31.17-13.84,4.39-27.04,10.59-39.25,18.43-2.95,1.9-6.66,3.98-9.74,2.3-.5-.2-.9-.59-1.13-1.07-.5-1.13.5-2.37,1.44-3.21,6.63-6.05,13.75-11.54,21.31-16.39-8.3,2.76-16.25,6.48-23.68,11.1-3.71,2.35-8.03,5.02-12.21,3.71-.69-.14-1.29-.55-1.67-1.13-.67-1.27.43-2.71,1.5-3.68,8.66-8.12,17.61-15.95,26.83-23.48-4.62.64-8.66,3.24-12.54,5.78l-14.78,9.74c-1.44.94-2.91,1.88-4.62,1.94s-3.54-1.2-3.45-2.87c.1-.77.4-1.5.89-2.11,6.52-9.87,18.83-14.55,26.02-23.92l-20.03,13.29c-.97.64-2.11,1.34-3.24,1.07-1.54-.34-2.28-2.24-1.9-3.77s1.53-2.75,2.66-3.88c7.58-7.61,16.44-13.57,25.3-19.62,2.35-1.57,4.65-3.18,6.95-4.82,10.34-7.3,21.77-12.89,33.88-16.58,2.05-.6,4.12-1.17,6.12-1.94,6.09-2.3,11.3-6.42,16.19-10.7,8.93-7.86,17.02-16.58,24.98-25.38,4.58,1.64,9.23,3.18,13.91,4.52,5.99,1.77,14.04,2.28,20.38,4.58l1.3.5,5.57,2.17Z"/></g><g id="character_3_diversity-90"><path class="cls-17_diversity-90 targetColor" d="M145.44,361.61l29.06,8.77,9.1-5.02-3.45-33.06s-25.91-6.44-16.19-18.29c9.73-11.84,18.89-.06,18.89-.06l9.13-5.02-2.66-32.62-35.21-9.16s13.29-19.25,5.65-27.3c-5.43-5.7-21.39,1.77-23.92,10.98-1.07,3.74-1.46,7.64-1.15,11.52l-31.89-15.84-9.1,5.06-19,90.6,70.73,19.45Z" style="fill: rgb(153, 224, 24);"/><path class="cls-4_diversity-90" d="M145.44,361.61l29.06,8.77,9.1-5.02-3.45-33.06s-25.91-6.44-16.19-18.29c9.73-11.84,18.89-.06,18.89-.06l9.13-5.02-2.66-32.62-35.21-9.16s13.29-19.25,5.65-27.3c-5.43-5.7-21.39,1.77-23.92,10.98-1.07,3.74-1.46,7.64-1.15,11.52l-31.89-15.84-9.1,5.06-19,90.6,70.73,19.45Z"/><path class="cls-17_diversity-90 targetColor" d="M154.54,356.58l29.06,8.77,5.66-38.09s-25.91-6.45-16.19-18.29c9.72-11.84,18.89-.06,18.89-.06l6.43-37.64-35.16-9.16s7.13-12.57-.54-20.62c-5.42-5.7-15.19-4.95-17.72,4.3-1.07,3.74-1.46,7.64-1.14,11.52l-41.02-10.82-18.99,90.65,70.73,19.45Z" style="fill: rgb(153, 224, 24);"/><path class="cls-10_diversity-90" d="M154.54,356.58l29.06,8.77,5.66-38.09s-25.91-6.45-16.19-18.29c9.72-11.84,18.89-.06,18.89-.06l6.43-37.64-35.16-9.16s7.13-12.57-.54-20.62c-5.42-5.7-15.19-4.95-17.72,4.3-1.07,3.74-1.46,7.64-1.14,11.52l-41.02-10.82-18.99,90.65,70.73,19.45Z"/><path class="cls-11_diversity-90" d="M96.97,338.49c7.19-13.1,12.99-27.35,23.47-38.01,1.5-1.52,3.93-3.02,5.57-1.64,1.36,1.15.89,3.32.34,5.01l-5.23,15.36,10.63-17.43c1.77-2.84,3.71-5.88,6.85-7.02.94-.4,2.01-.4,2.95,0,1.56.8,1.77,2.88,1.77,4.62-.03,4.74-.6,9.46-1.72,14.06,2.91-4.9,6.58-9.31,10.86-13.08,1.58,1.16,1.82,3.39,1.77,5.32-.2,6.87-2.52,13.49-4.81,19.98-1.24,3.54-2.52,7.09-4.81,10.05-4.14,5.32-10.92,7.71-17.5,9.09s-13.39,2.02-19.49,4.85c-2.42,1.13-4.73,2.61-7.36,3.07-2.87.5-9.38-1.04-10.13-4.6-.33-1.91,5.4-7.03,6.83-9.64Z"/><path class="cls-16_diversity-90" d="M167.84,318.46c-2.66,13.35-8.59,25.52-13.55,38.19-4.62,11.77-11.1,22.72-19.2,32.44-1.37,1.64-2.81,3.24-4.05,4.98-3.81,5.32-5.94,11.57-7.65,17.82-2.11,7.76-4.85,21.63-7.09,34.28-6.56.3-13.12.3-19.69,0-2.48-.13-4.92-.3-7.36-.5-3.28-.28-6.56-.67-9.83-1.18,3.69-9.5,7.42-19.06,9.74-26.21,1.5-4.25,2.71-8.59,3.61-13.01,3.69-20.38-5.68-40.51-9.14-60.94,0,0,7.42,2.96,12.25,1.77,1.77-.43,4.35-4.25,5.48-5.66,9.18-11.26,16.81-23.68,22.71-36.95,1.4-3.21,3.38-6.95,6.85-7.29.53-.07,1.08.03,1.54.3,1.07.67.89,2.24.57,3.48-2.21,8.7-5.15,17.19-8.8,25.38,5.44-6.85,10.04-14.32,13.71-22.25,1.84-4.01,3.95-8.63,8.16-9.83.66-.25,1.4-.23,2.05.07,1.27.66,1.1,2.51.76,3.87-2.81,11.54-5.99,22.99-9.52,34.35,3.54-3.04,5.45-7.46,7.28-11.7,2.36-5.42,4.7-10.84,7.03-16.26.67-1.57,1.41-3.17,2.77-4.15s3.61-.93,4.43.5c.35.69.51,1.47.46,2.24-.06,11.84-7.75,22.47-8.63,34.28,3.14-7.39,6.29-14.75,9.43-22.15.43-1.07,1-2.28,2.11-2.66,1.47-.57,3.14.64,3.68,2.11.39,1.54.35,3.15-.12,4.67Z"/></g><g id="character_2_diversity-90"><path class="cls-17_diversity-90 targetColor" d="M360.12,306.81l6.52-29.65-1.41-6.59-36.99,3.86s-4.43,26.34-17,17.54c-12.57-8.8-1.51-18.83-1.51-18.83l-1.41-6.59-36.61,3.07-6.44,35.75s-15.68-10.23-23.12-1.97c-5.26,5.85-1.18,19.61,8.23,21.4,3.81.79,7.74.89,11.59.28l-9.05,35.13,1.41,6.59,91.81,12,13.99-72.01Z" style="fill: rgb(153, 224, 24);"/><path class="cls-9_diversity-90" d="M360.12,306.81l6.52-29.65-1.41-6.59-36.99,3.86s-4.43,26.34-17,17.54c-12.57-8.8-1.51-18.83-1.51-18.83l-1.41-6.59-36.61,3.07-6.44,35.75s-15.68-10.23-23.12-1.97c-5.26,5.85-1.18,19.61,8.23,21.4,3.81.79,7.74.89,11.59.28l-9.05,35.13,1.41,6.59,91.81,12,13.99-72.01Z"/><path class="cls-17_diversity-90 targetColor" d="M358.71,300.21l6.52-29.65-38.4-2.73s-4.43,26.34-16.99,17.54-1.51-18.83-1.51-18.83l-38.02-3.54-6.45,35.75s-13.08-6.15-20.52,2.12c-5.26,5.85-3.78,15.53,5.63,17.32,3.81.79,7.73.88,11.57.27l-7.65,41.73,91.82,12.02,13.99-71.99Z" style="fill: rgb(153, 224, 24);"/><path class="cls-7_diversity-90" d="M327.89,288.26c-2.12-.93-5.32-1.85-6.2.28-.45,1.06.07,2.26.58,3.29l5.67,11.39-13.69-5.13c-.88-.45-1.89-.57-2.85-.35-2.2.82-1.47,4.08-.35,6.14l8.35,15.39c-3.7.54-7.25-4.15-10.63-2.46-2.66,1.33-2.21,5.22-1.1,7.97,4.92,11.82,14.99,20.68,22.16,31.31,2.48,3.67,4.68,8.26,3.02,12.35-.73,1.77-2.1,4-.78,5.42.63.53,1.41.84,2.22.89,7.02,1.2,14.18,1.42,21.26.65.77-24.16,1.95-48.3,3.54-72.41.14-2.14.26-4.43-.82-6.28-1-1.46-2.35-2.66-3.92-3.48-3.39-2.14-6.73-4.43-10.21-6.45-3.81-2.21-4.78-1.2-4.61,3.06-3.72.91-8.21-.05-11.65-1.57Z"/><path class="cls-15_diversity-90" d="M474.25,407.58c.21,6.76-1.33,14.01-5.04,19.49-1.72,2.56-4.01,4.68-6.69,6.2-.62.34-1.26.65-1.91.93-12.22-9.74-25.2-20.08-32.98-26-4.15-3.31-8.53-6.32-13.1-9.03-27.46-15.38-62.9-6.36-91.81-18.83-1.2-.5-2.54-1.27-2.74-2.54s.66-2.3,1.64-3.07c5.32-4.34,13.08-3.07,19.96-2.66,1.77.13,3.95,0,4.99-1.47,1.24-1.77.13-4.11-1-5.92-9.03-14.58-19.97-27.89-32.5-39.59-3.05-2.84-6.45-6.45-5.48-10.51.1-.62.41-1.19.89-1.6,1.18-.89,2.84-.1,4.08.71,8.85,5.82,17.2,12.37,24.96,19.59-5.57-8.7-12.15-16.7-19.61-23.84-3.77-3.61-8.09-7.73-7.83-12.94-.02-.84.3-1.64.89-2.24,1.23-1.17,3.21-.26,4.64.64,11.76,7.55,23.31,15.49,34.64,23.81-2.07-5.06-6.2-8.94-10.29-12.64-5.15-4.68-10.26-9.4-15.42-14.11-1.47-1.35-3-2.78-3.54-4.68s.3-4.39,2.24-4.83c.91-.09,1.82.05,2.66.41,13.16,4.59,22.1,17.29,34.9,22.8-7.02-6.35-14.03-12.71-21.03-19.06-1.04-.89-2.14-2-2.21-3.4-.07-1.88,1.9-3.28,3.77-3.31,1.87-.04,3.59.97,5.19,1.9,13.84,8.1,25.14,19.4,37.35,29.79,11.36,9.71,21.09,21.19,28.82,33.98,1.3,2.14,2.54,4.35,3.99,6.42,4.43,6.28,10.63,11.06,16.96,15.41,9.43,6.44,25.02,15.9,38.09,23.36,1.2,5.58,2.36,11.15,2.54,16.84Z"/></g><g id="character_1_diversity-90"><path class="cls-8_diversity-90" d="M113.9,174.66l-14.38,15.76-1.89,9.89,35.15,15.7s13.18-23.23,21.97-10.68c4.43,6.28.1,10.31-3.14,8.32l-1.89,9.89,34.55,16.32,16.95-29.5s14.44,6.9,21.34,3.14c3.63-1.98,5.73-5.88,6.56-8.95,0,0,1.71-8.74,1.29-9.89-.76-2.06-4.73,2.17-7.22.63-8.16-5.02-11.3-2.51-11.3-2.51l21.96-38.29,1.89-9.89-80.34-22.76-41.51,52.82Z"/><path class="cls-17_diversity-90 targetColor" d="M115.8,164.78l-16.28,25.65,35.14,15.7s10.05-18.52,21.97-10.63c10.88,7.16-5.01,18.21-5.01,18.21l34.55,16.32,16.95-29.5s14.43,6.9,21.34,3.14,8.79-13.18.62-18.21-11.3-2.51-11.3-2.51l21.97-38.29-78.49-32.71-41.46,52.84Z" style="fill: rgb(153, 224, 24);"/><path class="cls-3_diversity-90" d="M115.8,164.78l-16.28,25.65,35.14,15.7s10.05-18.52,21.97-10.63c10.88,7.16-5.01,18.21-5.01,18.21l34.55,16.32,16.95-29.5s14.43,6.9,21.34,3.14,8.79-13.18.62-18.21-11.3-2.51-11.3-2.51l21.97-38.29-78.49-32.71-41.46,52.84Z"/><path class="cls-13_diversity-90" d="M190.98,175.36c.06,1.7-1.77,2.94-3.45,2.88-1.67-.22-3.26-.89-4.58-1.94-4.95-3.24-9.9-6.49-14.81-9.74-3.88-2.54-7.97-5.15-12.51-5.78,9.16,7.53,18.13,15.39,26.78,23.48,1.07.97,2.21,2.41,1.51,3.68-.38.58-.97,1-1.64,1.17-4.21,1.31-8.52-1.4-12.23-3.71-7.42-4.64-15.37-8.38-23.68-11.14,7.55,4.85,14.68,10.34,21.31,16.39.89.83,1.94,2.07,1.44,3.21-.23.48-.62.87-1.1,1.11-3.12,1.64-6.79-.43-9.74-2.3-12.21-7.87-25.41-14.07-39.25-18.46-.77-.24-1.94-.77-3.01-1.11-.67-.27-1.41-.31-2.11-.13l-9.97,11.81-3.61-8.27c-6.52-16.45-10.21-34.55-20.97-48.15-.98-1.23-2.01-2.42-3.11-3.54-3.18-3.18-6.58-6.14-10.17-8.86-10.1-8.06-23.31-19.27-34.07-28.03,2.34-1.27,4.68-2.44,7.09-3.61,9.27-4.62,18.67-9.12,28.07-13.47,9.03,9.9,22.1,23.77,31.01,31.63,4.88,4.29,10.1,8.4,16.19,10.7,2,.77,4.08,1.34,6.12,1.94,12.1,3.69,23.53,9.29,33.87,16.59,11.11,7.86,22.71,14.78,32.27,24.48,1.23,1.01,2.15,2.34,2.66,3.84.41,1.53-.33,3.47-1.9,3.81-1.13.24-2.28-.47-3.24-1.1l-20.03-13.29c7.18,9.4,19.49,14.05,26.02,23.92.47.58.77,1.27.88,2.01Z"/><path class="cls-2_diversity-90" d="M116.61,172.52l-.64.6-12.07,11.68-3.61-8.27c-6.52-16.45-10.21-34.55-20.97-48.15.43.23,1.77,1,6.2,3.47,6.46,3.61,17.89,28.9,21.33,34.55,2.17,3.39,5.75,5.64,9.75,6.11Z"/></g></svg>