<svg id="_0362_entrepreneurs" xmlns="http://www.w3.org/2000/svg" xmlns:xlink="http://www.w3.org/1999/xlink" viewBox="0 0 500 500" data-imageid="entrepreneur-55" imageName="Entrepreneur" class="illustrations_image" style="width: 188px;"><defs><style>.cls-1_entrepreneur-55{fill:url(#linear-gradient);}.cls-1_entrepreneur-55,.cls-2_entrepreneur-55,.cls-3_entrepreneur-55,.cls-4_entrepreneur-55,.cls-5_entrepreneur-55,.cls-6_entrepreneur-55,.cls-7_entrepreneur-55,.cls-8_entrepreneur-55,.cls-9_entrepreneur-55,.cls-10_entrepreneur-55,.cls-11_entrepreneur-55,.cls-12_entrepreneur-55,.cls-13_entrepreneur-55,.cls-14_entrepreneur-55,.cls-15_entrepreneur-55,.cls-16_entrepreneur-55{stroke-width:0px;}.cls-2_entrepreneur-55{fill:url(#linear-gradient-10-entrepreneur-55);}.cls-3_entrepreneur-55{isolation:isolate;}.cls-3_entrepreneur-55,.cls-17_entrepreneur-55{opacity:.42;}.cls-3_entrepreneur-55,.cls-16_entrepreneur-55{fill:#68e1fd;}.cls-4_entrepreneur-55{fill:url(#linear-gradient-4-entrepreneur-55);}.cls-5_entrepreneur-55{fill:url(#linear-gradient-2-entrepreneur-55);}.cls-6_entrepreneur-55{fill:url(#linear-gradient-3-entrepreneur-55);}.cls-7_entrepreneur-55{fill:url(#linear-gradient-8-entrepreneur-55);}.cls-8_entrepreneur-55{fill:url(#linear-gradient-9-entrepreneur-55);}.cls-9_entrepreneur-55{fill:url(#linear-gradient-7-entrepreneur-55);}.cls-10_entrepreneur-55{fill:url(#linear-gradient-5-entrepreneur-55);}.cls-11_entrepreneur-55{fill:url(#linear-gradient-6-entrepreneur-55);}.cls-12_entrepreneur-55{fill:#18202d;}.cls-13_entrepreneur-55{fill:#a07a64;}.cls-14_entrepreneur-55{fill:#fff;}.cls-15_entrepreneur-55{fill:#ffaa71;}</style><linearGradient id="linear-gradient-entrepreneur-55" x1="331.43" y1="316.93" x2="258.02" y2="396.86" gradientUnits="userSpaceOnUse"><stop offset="0" stop-color="#231f20" stop-opacity="0"/><stop offset="1" stop-color="#231f20"/></linearGradient><linearGradient id="linear-gradient-2-entrepreneur-55" x1="215.92" y1="258.74" x2="212.01" y2="504.6" xlink:href="#linear-gradient-entrepreneur-55"/><linearGradient id="linear-gradient-3-entrepreneur-55" x1="218.05" y1="229.53" x2="347.93" y2="425.44" xlink:href="#linear-gradient-entrepreneur-55"/><linearGradient id="linear-gradient-4-entrepreneur-55" x1="205.18" y1="238.06" x2="335.07" y2="433.97" xlink:href="#linear-gradient-entrepreneur-55"/><linearGradient id="linear-gradient-5-entrepreneur-55" x1="788.71" y1="2908.74" x2="789.54" y2="2946.24" gradientTransform="translate(-478.81 3347.35) scale(1 -1)" gradientUnits="userSpaceOnUse"><stop offset="0" stop-color="#000"/><stop offset=".12" stop-color="#000" stop-opacity=".75"/><stop offset="1" stop-color="#000" stop-opacity="0"/></linearGradient><linearGradient id="linear-gradient-6-entrepreneur-55" x1="832.02" y1="3039.23" x2="872.95" y2="2901.42" gradientTransform="translate(-478.81 3347.35) scale(1 -1)" xlink:href="#linear-gradient-5-entrepreneur-55"/><linearGradient id="linear-gradient-7-entrepreneur-55" x1="386.78" y1="534.92" x2="368.54" y2="352.48" gradientTransform="matrix(1,0,0,1,0,0)" xlink:href="#linear-gradient-5-entrepreneur-55"/><linearGradient id="linear-gradient-8-entrepreneur-55" x1="227.16" y1="285" x2="18" y2="510.78" xlink:href="#linear-gradient-entrepreneur-55"/><linearGradient id="linear-gradient-9-entrepreneur-55" x1="194.52" y1="343.94" x2="178.89" y2="484.25" xlink:href="#linear-gradient-entrepreneur-55"/><linearGradient id="linear-gradient-10-entrepreneur-55" x1="678.67" y1="2991.08" x2="671.49" y2="2871.49" gradientTransform="translate(-478.81 3347.35) scale(1 -1)" xlink:href="#linear-gradient-entrepreneur-55"/></defs><path id="background_entrepreneur-55" class="cls-3_entrepreneur-55 targetColor" d="M95.58,409.76c-19.59-7.53-39.31-16.21-54.47-30.73-23.95-22.9-33.33-58.41-28.95-91.22,4.38-32.82,21.27-63.02,43.07-87.92,15.33-17.43,33.19-32.79,47.01-51.51,22.08-29.91,35.29-69.72,68.76-85.85,12.78-6.16,27.16-8.04,41.3-8.13,39.09-.16,77.08,12.93,112.51,29.42,14.21,6.61,28.49,14.04,39.05,25.57,18.76,20.68,22.51,50.26,30.98,76.85,11.31,35.07,31.89,66.44,59.56,90.78,13.21,11.62,28.85,22.86,32.98,39.94,2.89,12.02-.64,24.62-5.18,36.12-5.4,13.63-12.48,26.97-23.3,36.87-22.72,20.77-56.48,22.37-87.24,22.85l-72.57,1.16c-32.72.51-64.24,10.73-96.45,9.83-38.87-1.16-69.79.29-107.05-14.01Z" style="fill: rgb(153, 224, 24);"/><g id="character_entrepreneur-55"><path class="cls-16_entrepreneur-55 targetColor" d="M356.19,393.13s-22.32-11.62-34.76-14.64c-5.75-1.42-13.33-9.35-20.53-18.69-2.32-3.07-4.65-6.3-6.97-9.49,0,0-38.5-62.39-17.56-76.02,0,0,8.98-.2,13.94,2.48,4.96,2.67,15.86,25.29,17.69,29.28,1.82,4,21.67,41.06,23,41.89s3.54,3.88,11.48,8.13c9.71,5.23,24.98,20.55,24.98,20.55l-11.27,16.51Z" style="fill: rgb(153, 224, 24);"/><path class="cls-1_entrepreneur-55" d="M356.19,393.13s-22.32-11.62-34.76-14.64c-5.75-1.42-13.33-9.35-20.53-18.69-2.32-3.07-4.65-6.3-6.97-9.49,0,0-38.5-62.39-17.56-76.02,0,0,8.98-.2,13.94,2.48,4.96,2.67,15.86,25.29,17.69,29.28,1.82,4,21.67,41.06,23,41.89s3.54,3.88,11.48,8.13c9.71,5.23,24.98,20.55,24.98,20.55l-11.27,16.51Z"/><path class="cls-14_entrepreneur-55" d="M287.72,311.01c.91-12.13,1.54-23.47,1.88-34-2.93-1.55-6.44-3.36-9.3-4.65-8.7-4.15-20.85-9.74-28.63-13.31-4.56-2.09-9.02-3.63-9.02-3.63,0,0-31.13-2.99-33.7-2.82-3.33.9-6.61,2.02-9.8,3.35-11.03,4.2-32.32,12.71-35.7,15.11-4.97,3.56-22.75,90.64-23.24,96.63-.46,5.74,24.18,13.61,46.99,19.64,0,8.83-.2,21.21-.4,32.54,0,1.93-.07,3.82-.1,5.66h99.86c-.14-1.94-.26-3.86-.35-5.66v-.72c-.38-7.65-1.87-21.36-1.49-34.71,0,0-.24-14.06,1.16-20.13.21-26.81,1.82-53.29,1.82-53.29ZM161.11,362.24c.15-11.34,15.26-32.46,15.26-32.46.23-.1.47-.19.71-.27,0,0,.78-.1.78-.09s2.32-2.22,2.32-2.22c.55,2.01,5.55,30.52,6.79,47.11-14.08-2.79-25.94-6.67-25.86-12.07Z"/><path class="cls-5_entrepreneur-55" d="M287.72,311.01c.91-12.13,1.54-23.47,1.88-34-2.93-1.55-6.44-3.36-9.3-4.65-8.7-4.15-20.85-9.74-28.63-13.31-4.56-2.09-9.02-3.63-9.02-3.63,0,0-31.13-2.99-33.7-2.82-3.33.9-6.61,2.02-9.8,3.35-11.03,4.2-32.32,12.71-35.7,15.11-4.97,3.56-22.75,90.64-23.24,96.63-.46,5.74,24.18,13.61,46.99,19.64,0,8.83-.2,21.21-.4,32.54,0,1.93-.07,3.82-.1,5.66h99.86c-.14-1.94-.26-3.86-.35-5.66v-.72c-.38-7.65-1.87-21.36-1.49-34.71,0,0-.24-14.06,1.16-20.13.21-26.81,1.82-53.29,1.82-53.29ZM161.11,362.24c.15-11.34,15.26-32.46,15.26-32.46.23-.1.47-.19.71-.27,0,0,.78-.1.78-.09s2.32-2.22,2.32-2.22c.55,2.01,5.55,30.52,6.79,47.11-14.08-2.79-25.94-6.67-25.86-12.07Z"/><path class="cls-16_entrepreneur-55 targetColor" d="M289.57,419.79c-.65-4.73-1.28-9.46-1.84-14.08v-.06c-.17-1.55-.36-3.07-.53-4.58v-.24c-.73-6.37-1.34-12.48-1.78-18.07-.27-4.2-.08-8.42.56-12.57,1.74-28.61,2.6-58.78,2.6-58.78.92-12.34,1.44-23.89,1.79-34.64,0,0-39.08-18.48-42.62-19.53,0,0,7.41,17.43,12.97,56.33,2.14,14.94,6.09,40.09,8.97,65.77h0c1.56,13.85,4.47,27.97,6.68,40.46.35,1.93.66,3.81.96,5.66h13.08c-.31-1.88-.58-3.78-.85-5.66Z" style="fill: rgb(153, 224, 24);"/><path class="cls-16_entrepreneur-55 targetColor" d="M224.5,373.83c1.53-14.47,2.93-28.9,2.25-36.81-5.39-63.6-20.64-80.43-22.85-82.89-1.72.65-8.23,3.09-10.13,3.85-10.46,4.11-31.69,11.62-34.56,13.71-4.96,3.56-24.55,94.92-25.15,100.82-.4,4,25.17,12.34,51.26,19.76-.24,7.16.43,17.25-1.94,27.77-.6,1.79-.99,3.64-1.16,5.52l36.36-.14c.22-1.88.45-3.77.67-5.66.7-5.68,1.42-11.5,2.14-17.7,10.9,2.82,18.31,4.65,18.31,4.65,0,0,10.25-17.31,13.22-24.33.53-1.16-12.65-4.26-28.44-8.54ZM173.3,352.68c-.21-7.8,1.11-15.56,3.89-22.85,1.29,4.46,3.08,17.21,4.65,29.88-5.29-2.66-8.47-4.4-8.54-7.03Z" style="fill: rgb(153, 224, 24);"/><path class="cls-15_entrepreneur-55" d="M207.4,253.51s3.96-7.48,2.87-28.73c-.3-5.88,30.9,13.94,30.9,13.94,0,0-.1,2.03-.17,4.76,0,1.16-.06,2.39-.06,3.67v2.79c0,.57,0,1.42.07,2.09s.09,1.49.16,2.15c.24,1.43.63,2.83,1.16,4.17,1.44,3.31-23.24,3.53-34.93-4.86Z"/><path class="cls-12_entrepreneur-55" d="M233.57,267.01l4.31,5.81c1.02,1.37,1.73,2.23,1.63,4.07-.13,2.06-1.04,4-2.54,5.42-.37.43-.93.66-1.5.6-.34-.12-.63-.33-.86-.6-1.71-1.51-3.14-3.3-4.24-5.3-.62-1.35.15-2.44.69-3.77l2.52-6.23Z"/><path class="cls-12_entrepreneur-55" d="M237.29,275.73c1.88,1.24,2.73,6.39,3.73,8.48,2.32,4.9,5.21,9.54,7.19,14.62,2.52,6.45,3.49,13.38,4.35,20.24,1.35,11.31,2.22,22.66,2.63,34.05.3,8.45.34,16.93,1.62,25.29.8,5.25,2.07,10.76.16,15.71-1.45,3.78-4.56,6.64-7.63,9.3-2.42-2.13-4.92-4.38-6.11-7.37-.63-1.74-1.02-3.56-1.16-5.4l-2.51-22.18c-.92-8.2-1.85-16.4-2.56-24.62-.51-5.81-.91-11.62-.89-17.43,0-5.07.34-10.13-.15-15.18-.51-5.33-1.94-10.55-2.61-15.87-.62-4.83-2.74-15.05,1.22-18.97,1.15-1.05,2.02-1.15,2.74-.66Z"/><path class="cls-15_entrepreneur-55" d="M239.73,259.81l-6.16,7.2s-9.89-1.92-12.78-7.08c-2.89-5.16,18.94-.13,18.94-.13Z"/><path class="cls-14_entrepreneur-55" d="M241.13,253.51s-.71,5.48-7.57,13.5l12.27,13.94-.74-24.69-3.96-2.75Z"/><path class="cls-14_entrepreneur-55" d="M209.28,246.9s14.29,16.16,24.29,20.12l-7.11,16.51-20.35-30.21,3.17-6.41Z"/><path class="cls-6_entrepreneur-55" d="M241.13,253.51s-.71,5.48-7.57,13.5l12.27,13.94-.74-24.69-3.96-2.75Z"/><path class="cls-4_entrepreneur-55" d="M209.28,246.9s14.29,16.16,24.29,20.12l-7.11,16.51-20.35-30.21,3.17-6.41Z"/><path class="cls-15_entrepreneur-55" d="M265.14,414.42c-1.29-.03-2.57-.27-3.79-.71,0,0-1.98-1.28-3.49-2.09-.38-.22-.76-.42-1.16-.59-2.27-.66-4.43-1.68-6.37-3.03-2.5-1.89-10.63-9.51-10.63-9.51l5.26-8.13,2.42-8.01s18.97,1.89,21.5,3.39c.24.14.47.3.69.46,2.02,1.48,2.91,3.49,3.87,4.32.36.34,3.66,3.87,3.49,5.3-.1,1.64-1.03,3.11-2.48,3.88,0,0-.66,3.87-2.67,5.6-.35,2.15-1.68,4.02-3.6,5.04,0,0-.88,3.64-3.03,4.07Z"/><path class="cls-15_entrepreneur-55" d="M234.95,169.99s34.27-8.25,27.05,35.13c-7.22,43.38-15.44,46.9-36.31,38.26-20.87-8.65-19.42-36.4-20.66-49.97-1.24-13.57,18.99-22.78,29.92-23.42Z"/><path class="cls-15_entrepreneur-55" d="M216.95,200.04c-.51-3.81-8.08-5.1-8.6.63s3.66,15.72,6.51,14.69,2.79-10.06,2.09-15.32Z"/><path class="cls-16_entrepreneur-55 targetColor" d="M253.9,382.4l-14.15,24.33s-37.48-9.67-46.23-12.13l20.03-23.79s29.44,6.73,40.35,11.59Z" style="fill: rgb(153, 224, 24);"/><path class="cls-13_entrepreneur-55" d="M241.04,252.05h0c-10.62-.87-20.15-6.85-25.57-16.02,6.76,6.78,15.83,10.76,25.4,11.14v2.79c0,.57.13,1.48.16,2.09Z"/><rect class="cls-16_entrepreneur-55 targetColor" x="212.81" y="412.17" width="194.95" height="17.98" rx="8.98" ry="8.98" style="fill: rgb(153, 224, 24);"/><rect class="cls-10_entrepreneur-55" x="212.81" y="412.17" width="194.95" height="17.98" rx="8.98" ry="8.98"/><path class="cls-16_entrepreneur-55 targetColor" d="M290.25,412.97l2.96,9.54,125.76,7.65,35.83-90.85c1.62-4.1-.4-8.74-4.5-10.36-.93-.37-1.93-.56-2.93-.56h-106.59c-10.56,0-20.04,6.45-23.93,16.27l-26.61,68.31Z" style="fill: rgb(153, 224, 24);"/><path class="cls-11_entrepreneur-55" d="M290.25,412.97l2.96,9.54,125.76,7.65,35.83-90.85c1.62-4.1-.4-8.74-4.5-10.36-.93-.37-1.93-.56-2.93-.56h-106.59c-10.56,0-20.04,6.45-23.93,16.27l-26.61,68.31Z"/><path class="cls-16_entrepreneur-55 targetColor" d="M290.07,430.26h128.99l34.03-86.3c1.53-3.9-.38-8.31-4.28-9.84-.88-.35-1.82-.53-2.77-.53h-101.23c-10.03,0-19.04,6.12-22.72,15.46l-32.02,81.21Z" style="fill: rgb(153, 224, 24);"/><path class="cls-9_entrepreneur-55" d="M290.07,430.26h128.99l34.03-86.3c1.53-3.9-.38-8.31-4.28-9.84-.88-.35-1.82-.53-2.77-.53h-101.23c-10.03,0-19.04,6.12-22.72,15.46l-32.02,81.21Z"/><path class="cls-12_entrepreneur-55" d="M220.53,205.08c-.91-2.32-2.07-4.83-4.4-5.62-3.06-1.02-6.37,2.02-6.52,5.25s2,6.17,4.58,8.13c-1.52,5.19-3.46,10.24-5.81,15.11-2.89-9.02-4.39-18.42-4.45-27.89-1.16-.34-1.78-1.71-2.03-2.93-1.63-7.73,2.39-15.46,6.77-22.08,1.77-2.96,4.06-5.57,6.76-7.7,6.05-4.3,14.11-3.77,21.5-4.43,6.09-.55,12.45-1.99,18.12.28,4.04,1.81,7.33,4.98,9.3,8.95,1.95,3.95,3.29,8.17,3.99,12.53.99,4.37,1.35,8.85,1.08,13.32-.3,4.5-2.03,8.78-4.94,12.23-.81.89-2.93,1.95-3.9,1.24.94-3.78,1.38-7.66,1.31-11.55-.12-3.35-.14-5.36-2.32-7.88-.86-1.13-2.15-1.86-3.56-2.02-1.34,0-2.59.73-3.92.78-2.41.1-4.24-2-6.34-3.17-2.65-1.41-5.81-1.49-8.53-.21-2.72,1.29-4.81,3.6-5.81,6.44-.6,1.69-1.16,3.83-2.93,4.22-2.32.49-4.04-2.88-6.05-1.55-1.79,1.24-1.7,6.68-1.88,8.56Z"/><path class="cls-7_entrepreneur-55" d="M181.84,359.71l26.73,8.76s-8.72-52.71-10.89-54.9-27.89-30.05-27.89-30.05c0,0,13.46,27.27,7.38,46.31"/><path class="cls-8_entrepreneur-55" d="M239.75,406.74l6.34-11.69s-97.73-29.73-99.03-31.69,1.63-51.96,1.63-51.96l-14.62,61.1s30.76,17.81,105.68,34.23Z"/><path class="cls-2_entrepreneur-55" d="M209.14,399.62v25.82l-26.88.15s3.77-18.4,3.07-33.29l23.81,7.32Z"/></g><g id="icons_entrepreneur-55"><path class="cls-14_entrepreneur-55" d="M119.28,265.15v39.36c0,4.2-3.4,7.6-7.6,7.6h-63.91c-4.19,0-7.59-3.41-7.6-7.6v-39.36c0-.42.04-.85.1-1.27l45.23,30.42,33.56-30.79c.13.54.21,1.09.22,1.64Z"/><path class="cls-14_entrepreneur-55" d="M118.27,259.16l-33.56,30.79-45.26-30.38c.63-3.65,3.79-6.32,7.5-6.32h63.91c3.55,0,6.63,2.44,7.41,5.9Z"/><circle class="cls-14_entrepreneur-55" cx="177.22" cy="136.58" r="25.47"/><polygon class="cls-14_entrepreneur-55" points="166.99 174.35 160.06 155.1 194.71 155.1 189.21 173.85 166.99 174.35"/><path class="cls-14_entrepreneur-55" d="M168.09,177.98h19.6v1.6c0,2.97-2.4,5.37-5.37,5.37h-8.87c-2.97,0-5.37-2.4-5.37-5.37v-1.6h0Z"/><g class="cls-17_entrepreneur-55"><path class="cls-16_entrepreneur-55 targetColor" d="M172.25,174.74c-1.83-4.06-2.86-8.44-3.02-12.89-.18-4.56,1.39-9.03,4.39-12.47.79-1.01,1.95-1.67,3.22-1.81,1.58.05,3,.99,3.66,2.43.73-.45,1.57-.67,2.43-.63,2.22.16,3.72,2.27,4.23,4.29.39,1.91.45,3.88.16,5.81-.57,5.15-1.72,10.22-3.43,15.11l-1.09-.38c1.69-4.82,2.81-9.81,3.36-14.89.29-1.82.25-3.67-.13-5.47-.41-1.62-1.55-3.29-3.18-3.4-.65-.04-1.3.15-1.84.52.07.17.13.34.19.51.69,2.15.86,4.43.51,6.66-.11,1.1-.58,2.13-1.35,2.92-.54.48-1.26.71-1.98.64-.56-.04-1.08-.32-1.43-.76-.32-.47-.49-1.02-.5-1.58-.23-2.61.45-5.21,1.93-7.37.33-.5.72-.96,1.16-1.37-.45-1.11-1.48-1.88-2.67-1.99-.97.15-1.84.67-2.43,1.45-2.77,3.23-4.22,7.37-4.08,11.62.16,4.3,1.16,8.53,2.93,12.46l-1.05.59ZM180.07,151.85c-.27.27-.51.57-.72.88-1.32,1.94-1.93,4.27-1.74,6.61,0,.34.1.68.28.98.15.19.37.3.6.31.42.06.85-.08,1.16-.36.56-.61.9-1.4.96-2.23.32-2.05.16-4.15-.46-6.12,0,0-.07-.03-.08-.06h0Z" style="fill: rgb(153, 224, 24);"/></g><rect class="cls-14_entrepreneur-55" x="291.16" y="187.9" width="96.06" height="67.31" rx="6.5" ry="6.5"/><rect class="cls-3_entrepreneur-55 targetColor" x="295.3" y="205.76" width="19.17" height="17.64" style="fill: rgb(153, 224, 24);"/><rect class="cls-3_entrepreneur-55 targetColor" x="318.39" y="205.76" width="19.17" height="17.64" style="fill: rgb(153, 224, 24);"/><rect class="cls-3_entrepreneur-55 targetColor" x="295.3" y="227.11" width="19.17" height="17.64" style="fill: rgb(153, 224, 24);"/><rect class="cls-3_entrepreneur-55 targetColor" x="318.39" y="227.11" width="19.17" height="17.64" style="fill: rgb(153, 224, 24);"/><rect class="cls-3_entrepreneur-55 targetColor" x="340.61" y="205.76" width="19.17" height="17.64" style="fill: rgb(153, 224, 24);"/><rect class="cls-3_entrepreneur-55 targetColor" x="363.69" y="205.76" width="19.17" height="17.64" style="fill: rgb(153, 224, 24);"/><rect class="cls-3_entrepreneur-55 targetColor" x="340.61" y="227.11" width="19.17" height="17.64" style="fill: rgb(153, 224, 24);"/><rect class="cls-3_entrepreneur-55 targetColor" x="363.69" y="227.11" width="19.17" height="17.64" style="fill: rgb(153, 224, 24);"/></g></svg>