<svg id="_0566_team_presentation_5" xmlns="http://www.w3.org/2000/svg" xmlns:xlink="http://www.w3.org/1999/xlink" viewBox="0 0 500 500" data-imageid="team-presentation-5-87" imageName="Team Presentation 5" class="illustrations_image" style="width: 188px;"><defs><style>.cls-1_team-presentation-5-87{fill:url(#linear-gradient);}.cls-1_team-presentation-5-87,.cls-2_team-presentation-5-87,.cls-3_team-presentation-5-87,.cls-4_team-presentation-5-87,.cls-5_team-presentation-5-87,.cls-6_team-presentation-5-87,.cls-7_team-presentation-5-87,.cls-8_team-presentation-5-87,.cls-9_team-presentation-5-87,.cls-10_team-presentation-5-87,.cls-11_team-presentation-5-87,.cls-12_team-presentation-5-87,.cls-13_team-presentation-5-87,.cls-14_team-presentation-5-87,.cls-15_team-presentation-5-87,.cls-16_team-presentation-5-87,.cls-17_team-presentation-5-87,.cls-18_team-presentation-5-87,.cls-19_team-presentation-5-87,.cls-20_team-presentation-5-87,.cls-21_team-presentation-5-87,.cls-22_team-presentation-5-87,.cls-23_team-presentation-5-87,.cls-24_team-presentation-5-87{stroke-width:0px;}.cls-2_team-presentation-5-87{isolation:isolate;opacity:.18;}.cls-2_team-presentation-5-87,.cls-24_team-presentation-5-87{fill:#68e1fd;}.cls-3_team-presentation-5-87{fill:url(#linear-gradient-11-team-presentation-5-87);}.cls-4_team-presentation-5-87{fill:url(#linear-gradient-12-team-presentation-5-87);}.cls-5_team-presentation-5-87{fill:url(#linear-gradient-13-team-presentation-5-87);}.cls-6_team-presentation-5-87{fill:url(#linear-gradient-10-team-presentation-5-87);}.cls-25_team-presentation-5-87{fill:none;stroke:#68e1fd;stroke-miterlimit:10;stroke-width:1.26px;}.cls-7_team-presentation-5-87{opacity:.14;}.cls-7_team-presentation-5-87,.cls-17_team-presentation-5-87{fill:#231f20;}.cls-8_team-presentation-5-87{fill:url(#linear-gradient-4-team-presentation-5-87);}.cls-9_team-presentation-5-87{fill:url(#linear-gradient-2-team-presentation-5-87);}.cls-10_team-presentation-5-87{fill:url(#linear-gradient-3-team-presentation-5-87);}.cls-11_team-presentation-5-87{fill:url(#linear-gradient-8-team-presentation-5-87);}.cls-12_team-presentation-5-87{fill:url(#linear-gradient-9-team-presentation-5-87);}.cls-13_team-presentation-5-87{fill:url(#linear-gradient-7-team-presentation-5-87);}.cls-14_team-presentation-5-87{fill:url(#linear-gradient-5-team-presentation-5-87);}.cls-15_team-presentation-5-87{fill:url(#linear-gradient-6-team-presentation-5-87);}.cls-16_team-presentation-5-87{fill:#473f47;}.cls-18_team-presentation-5-87{fill:#d68369;}.cls-19_team-presentation-5-87{fill:#c14834;}.cls-20_team-presentation-5-87{fill:#d8dae1;}.cls-21_team-presentation-5-87{fill:#fff;}.cls-22_team-presentation-5-87{fill:#ec9c7d;}.cls-23_team-presentation-5-87{fill:#ffaa71;}</style><linearGradient id="linear-gradient-team-presentation-5-87" x1="228.8" y1="211.72" x2="244.45" y2="439.38" gradientUnits="userSpaceOnUse"><stop offset="0" stop-color="#231f20"/><stop offset=".08" stop-color="#231f20" stop-opacity=".69"/><stop offset=".21" stop-color="#231f20" stop-opacity=".32"/><stop offset="1" stop-color="#231f20" stop-opacity="0"/></linearGradient><linearGradient id="linear-gradient-2-team-presentation-5-87" x1="269.34" y1="274.51" x2="358.98" y2="272.61" gradientUnits="userSpaceOnUse"><stop offset="0" stop-color="#231f20"/><stop offset=".08" stop-color="#231f20" stop-opacity=".69"/><stop offset=".21" stop-color="#231f20" stop-opacity=".32"/><stop offset=".81" stop-color="#231f20" stop-opacity="0"/></linearGradient><linearGradient id="linear-gradient-3-team-presentation-5-87" x1="1310.82" y1="4719.94" x2="1504.1" y2="4728.5" gradientTransform="translate(1695.34 5029.39) rotate(-180)" xlink:href="#linear-gradient-team-presentation-5-87"/><linearGradient id="linear-gradient-4-team-presentation-5-87" x1="170.95" y1="341.77" x2="212.45" y2="352.44" xlink:href="#linear-gradient-team-presentation-5-87"/><linearGradient id="linear-gradient-5-team-presentation-5-87" x1="151.21" y1="351.76" x2="192.71" y2="362.43" xlink:href="#linear-gradient-team-presentation-5-87"/><linearGradient id="linear-gradient-6-team-presentation-5-87" x1="227.39" y1="321.67" x2="254.42" y2="372.66" xlink:href="#linear-gradient-team-presentation-5-87"/><linearGradient id="linear-gradient-7-team-presentation-5-87" x1="224.99" y1="284.17" x2="269.1" y2="344.28" xlink:href="#linear-gradient-team-presentation-5-87"/><linearGradient id="linear-gradient-8-team-presentation-5-87" x1="240.77" y1="149.42" x2="249.57" y2="423.54" xlink:href="#linear-gradient-team-presentation-5-87"/><linearGradient id="linear-gradient-9-team-presentation-5-87" x1="232.32" y1="249.6" x2="234.99" y2="289.62" gradientUnits="userSpaceOnUse"><stop offset="0" stop-color="#fff" stop-opacity="0"/><stop offset="1" stop-color="#fff"/></linearGradient><linearGradient id="linear-gradient-10-team-presentation-5-87" x1="254.62" y1="263.91" x2="184.19" y2="262.13" xlink:href="#linear-gradient-2-team-presentation-5-87"/><linearGradient id="linear-gradient-11-team-presentation-5-87" x1="230.68" y1="287.94" x2="270.99" y2="217.75" xlink:href="#linear-gradient-9-team-presentation-5-87"/><linearGradient id="linear-gradient-12-team-presentation-5-87" x1="216.25" y1="257.4" x2="249.57" y2="293.2" xlink:href="#linear-gradient-2-team-presentation-5-87"/><linearGradient id="linear-gradient-13-team-presentation-5-87" x1="205.1" y1="246.14" x2="247.07" y2="277.08" xlink:href="#linear-gradient-2-team-presentation-5-87"/></defs><g id="background_team-presentation-5-87"><path class="cls-2_team-presentation-5-87 targetColor" d="M200.35,56.13c-18.73,4.05-37.42,9.76-53.46,20.26-43.59,28.53-58.63,85.05-93.3,123.93-15.12,16.95-34.52,31.32-42.55,52.56-6.38,16.88-4.54,35.66-1.62,53.46,2.69,16.42,6.23,32.71,10.58,48.77,2.68,9.87,5.75,19.83,11.48,28.3,17.19,25.38,52.26,30.19,82.91,29.89,31.33-.31,62.63-3.48,93.38-9.47,15.42-3,30.77-6.72,46.44-7.82,34.02-2.4,67.5,7.55,101.09,13.43,33.59,5.88,70.38,7.13,99.44-10.7,22.3-13.68,37.58-38.19,40.06-64.24,1.8-19.03-2.84-38.02-7.84-56.47-6.45-23.8-13.53-47.43-21.25-70.86-5.96-18.08-12.35-36.18-22.14-52.51-43.74-73.01-163.38-115.8-243.22-98.55Z" style="fill: rgb(153, 224, 24);"/><path class="cls-1_team-presentation-5-87" d="M121.24,350.54c3.25.7,6.54-.78,9.85-.99s7.41,2.06,6.77,5.32c10.9,3.23,22.32,4.69,33.68,4.32.11-1.69-.17-3.4-.82-4.96,29.77-4.08,59.75-6.61,89.79-7.55,1.93-.06,3.92-.11,5.73.59,1.61.62,2.95,1.78,4.51,2.51,7.18,3.36,14.9-3.24,22.71-4.59,2.92-.51,5.97-.24,8.76.75,4,1.42,7.34,4.25,11.15,6.12,7.13,3.48,15.93,3.3,22.9-.48,1.06-.58,2.18-1.36,2.42-2.55.61-3.03-4.75-4.84-4.06-7.86,11.9-.82,23.79-1.64,35.69-2.46,8.06-.56,16.55-1.03,23.8,2.52-1.88,2.26-4.39,3.98-7.18,4.92,12.71,1.85,27.33,5,33.13,16.47-28.66,5.29-58.78,19.34-87.25,13.13-43.93-9.59-89.42-11.98-134.12-7.07-.64.07-1.32.16-1.79.6-1.39,1.28.41,3.47.46,5.36.06,2.75-3.45,3.9-6.18,4.19-38.32,4.09-77.16,3.37-115.31-2.11-6.71-.97-14.43-2.82-17.26-8.98,15.33-2.49,30.76-4.38,46.23-5.66-4.49-1.42-8.86-3.21-13.06-5.34-1.07-.54-2.18-1.16-2.75-2.22-.88-1.64-.04-3.78,1.4-4.97s3.33-1.64,5.14-2.06c7.88,2.89,17.35,4.32,25.65,3.07Z"/></g><g id="presentation_team-presentation-5-87"><rect class="cls-24_team-presentation-5-87 targetColor" x="284.85" y="201.32" width="6.13" height="145.59" style="fill: rgb(153, 224, 24);"/><rect class="cls-9_team-presentation-5-87" x="284.85" y="201.32" width="6.13" height="145.59"/><rect class="cls-21_team-presentation-5-87" x="242.57" y="109.17" width="95.77" height="95.77"/><rect class="cls-24_team-presentation-5-87 targetColor" x="233.97" y="105.97" width="113.12" height="4.98" style="fill: rgb(153, 224, 24);"/><polyline class="cls-25_team-presentation-5-87" points="252 163.95 280.22 144.03 293.97 153.99 322.36 133.12"/></g><g id="_character_3_team-presentation-5-87"><rect class="cls-17_team-presentation-5-87" x="359.84" y="297.98" width="4.29" height="39.67"/><path class="cls-17_team-presentation-5-87" d="M339.65,342.12c0,2.94,10,5.31,22.34,5.31,12.34,0,22.34-2.38,22.34-5.31,0-.27.16-3.05,0-3.31-1.59-2.56-11.12-2.01-22.34-2.01-10.8,0-20.26-.42-22.34,2.01-.3.35,0,2.94,0,3.31Z"/><ellipse class="cls-17_team-presentation-5-87" cx="361.99" cy="338.81" rx="22.34" ry="5.31"/><path class="cls-17_team-presentation-5-87" d="M355.18,290.75h36.96s8.85-48.04,8.85-48.04c.65-3.53-2.06-6.79-5.66-6.79h-25.26c-2.77,0-5.15,1.98-5.66,4.71l-9.23,50.12Z"/><path class="cls-17_team-presentation-5-87" d="M345.33,290.75h36.96s8.85-48.04,8.85-48.04c.65-3.53-2.06-6.79-5.66-6.79h-25.26c-2.77,0-5.15,1.98-5.66,4.71l-9.23,50.12Z"/><rect class="cls-17_team-presentation-5-87" x="351.26" y="283.51" width="41.11" height="14.48" rx="7.24" ry="7.24"/><path class="cls-19_team-presentation-5-87" d="M364.36,204.07c-1.55-3.04-8.96-4.87-12.24-5.44-4.08-.71-8.71.04-11.58,3.02s-3.08,8.57.29,11.01c.76.55,1.65.92,2.36,1.53,1.89,1.61,2.03,4.52,1.53,6.96-.5,2.44-1.51,4.82-1.45,7.32s1.74,5.23,4.23,5.28c1.45.04,3.15-.77,4.21.22.43.5.69,1.13.75,1.78,1.02,5.35,1.48,11.14,5.1,15.15,2.5,2.57,5.79,4.2,9.35,4.63,4.34.65,9.18-.18,12.21-3.35,2.23-2.48,3.27-5.81,2.85-9.13-.45-3.29-1.9-6.35-4.16-8.78-.34-.32-.6-.72-.75-1.16-.23-.97.67-1.78,1.19-2.67,1.08-1.81.49-4.26-.89-5.86-1.49-1.52-3.32-2.65-5.35-3.3-1.57-.46-3.01-1.26-4.24-2.33-2.08-2.16-1.87-5.55-1.7-8.54.66-11.01-11.09-17.46-20.89-13.69-4.36,1.67-2.99,5.16-2.99,5.16,0,0,5.28-1.38,9.02,0,3.74,1.38,1.79,4.58,1.89,5.71.17,1.95,1.13,3.73,2.67,4.94.77-.59,1.87-1.13,2.67.3.64,1.13-1.33,4.83-2.84,4.7,0,0-1.43.95-.76,3.56,0,0,5.87-2.52,7.81-5.2,1.94-2.66,3.27-8.8,1.72-11.84Z"/><path class="cls-19_team-presentation-5-87" d="M369.27,243.7c-3.59,2.07-6.63-.1-7.52-3.74-.39-1.66-.54-3.38-1.09-4.99-.83-2.08-1.94-4.04-3.31-5.83-1.36-1.79-2.34-3.83-2.88-6.02-.4-2.21.16-4.72,1.94-6.09.39-.35.91-.54,1.43-.51.84.08,1.33,1.02,1.46,1.86.03.84.16,1.68.39,2.5.51,1.18,1.79,1.78,2.98,2.25,2.8,1.14,5.8,2.17,7.77,4.46,1.68,2.12,2.48,4.8,2.24,7.49-.15,2.55-.93,7.2-3.42,8.62Z"/><path class="cls-17_team-presentation-5-87" d="M334.72,261.6l4.05,15.25c11.82,2.44,25.25-2.25,25.25-2.25-.64-6.79-.04-16.08,1.21-18.95,3.34-7.72,7.47-17.93,2.67-23.76-3.86-4.7-10.93-4.24-15.26-4.12-4.28.07-8.55-.1-12.81-.48-16.4,17.6-5.12,34.31-5.12,34.31Z"/><polygon class="cls-21_team-presentation-5-87" points="291.36 241.02 317.53 235.92 330.06 264.79 307.72 269.24 291.36 241.02"/><path class="cls-19_team-presentation-5-87" d="M349.36,199.11l-5,14.33s-8.23.14-6.54-8.12c1.69-8.26,7.4-8.59,7.4-8.59l4.14,2.38Z"/><path class="cls-22_team-presentation-5-87" d="M356.75,199.27s-13.78-3.87-16.04,5.79c-.47,2-.71,4.04-.7,6.1,0,.7.02,1.4.08,2.1.61,6.31,3.75,11.12,8.91,10.69,8.96-.74,18.53-19.84,7.74-24.68Z"/><path class="cls-18_team-presentation-5-87" d="M355.17,217.34c.37.33.93.3,1.26-.07-1.01,1.5-1.64,3.21-1.84,5.01-.7,5.22,1.84,5.44,1.84,5.44-9.4,5.26-10.79,1.69-10.79,1.69,1.23-1.73,1.37-4.01.34-5.87,4.27,1.18,8.02-3.86,8.91-6.71.03.2.13.38.28.51Z"/><path class="cls-19_team-presentation-5-87" d="M346.86,197.84c.73-.25,1.5-.36,2.26-.3,3.83.04,7.8.23,11.24,1.93,2.17,1.08,4.19,2.99,4.35,5.42,0,1.24-.23,2.46-.69,3.61-.38.89-.63,1.83-.76,2.79,0,.73.29,1.49.29,2.25,0,1.67-.51,3.3-1.45,4.69-.76,1.02-1.63,1.95-2.6,2.78l-2.04,1.86c-.09.1-.21.17-.34.2-.11,0-.21-.04-.3-.1-1.52-.88-2.39-2.56-2.24-4.3.04-.64.31-1.23.77-1.68.41-.28.84-.53,1.29-.73.99-.61,1.6-1.69,1.6-2.85.03-.48-.18-.95-.56-1.24-.46-.22-1.02-.12-1.38.24-.53.49-.47,1.04-1.17,1.19-.75,0-1.48-.24-2.1-.66-4.56-2.56-6.35-9.19-7.7-13.86.61-.22.88-.94,1.54-1.22Z"/><path class="cls-22_team-presentation-5-87" d="M357.73,246.95c3.76-11.01,6.36-16.46,10.18-15.06,0,0,5,2.54,2.18,12.62-3.2,11.41-11.7,21.98-11.7,21.98l-3.94-8.66s1.21-4.81,3.28-10.87Z"/><path class="cls-24_team-presentation-5-87 targetColor" d="M317.53,287.31c.24-.29,1.02-1.24,2.19-2.55-.1.1-.2.2-.29.3-.68.72-1.31,1.49-1.91,2.25Z" style="fill: rgb(153, 224, 24);"/><path class="cls-24_team-presentation-5-87 targetColor" d="M363.43,271.39c-5.21.3-10.69.67-16.04,1.44,0,0-21,17.68-23.68,21.97-6.21,9.94-12.24,7.11-3.25,21.64,5.99,9.68,11.99,19.37,18,29.06,3.07,1.03,6.37-1.66,7.21-4.79.84-3.13-.05-6.43-.94-9.54-1.84-6.27-3.64-12.53-5.43-18.79-.38-1.42-.78-3.03,0-4.29.51-.7,1.18-1.26,1.95-1.63,2.13-1.26,3.59-4.28,5.95-5,3.98-1.2,7.97-2.61,11.37-5,3.4-2.39,6.2-5.91,6.91-10.02.86-5.02-1.46-9.99-2.05-15.06Z" style="fill: rgb(153, 224, 24);"/><path class="cls-24_team-presentation-5-87 targetColor" d="M347.34,272.88c-4.3.53-11.43-1.44-11.43-1.44-6.15,2.74-12.8,9.55-16.2,13.37h0c-1.17,1.31-1.95,2.25-2.19,2.55l-.04.05h0l-.34.44c-3.75,5.03-6.18,11.01-8.52,16.86-3.95,9.84-7.9,19.68-11.85,29.53-.45.92-.69,1.93-.71,2.96.18,3.65,5.06,4.62,8.71,4.54l15.75-25.3s-2.99-9.01,3.25-21.64c2.29-4.53,23.68-21.97,23.68-21.97l-.09.04Z" style="fill: rgb(153, 224, 24);"/><path class="cls-10_team-presentation-5-87" d="M347.34,272.88c-4.3.53-11.43-1.44-11.43-1.44-6.15,2.74-12.8,9.55-16.2,13.37h0c-1.17,1.31-1.95,2.25-2.19,2.55l-.04.05h0l-.34.44c-3.75,5.03-6.18,11.01-8.52,16.86-3.95,9.84-7.9,19.68-11.85,29.53-.45.92-.69,1.93-.71,2.96.18,3.65,5.06,4.62,8.71,4.54l15.75-25.3s-2.99-9.01,3.25-21.64c2.29-4.53,23.68-21.97,23.68-21.97l-.09.04Z"/><path class="cls-22_team-presentation-5-87" d="M338.8,347.99c.34-.9.74-1.78,1.19-2.63.61-.83,1.76-1.32,2.52-2,.37-.33,2.54-2.16,2.4-2.67.49,1.73,1.14,3.41,1.94,5.03.62.93.93,2.04.89,3.15-.33,1.06-1.01,1.97-1.93,2.58-3.36,2.76-7.37,5.39-11.69,4.91-.27,0-.54-.1-.73-.29-.11-.16-.16-.34-.15-.53-.07-1.92,1.8-3.21,3.21-4.51.94-.88,1.74-1.9,2.36-3.03Z"/><path class="cls-22_team-presentation-5-87" d="M296.52,339.68c.86-1.01.94-1.03,2.23-.45.94.42,1.83.94,2.67,1.53.11.06.2.16.25.28.04.12.04.24,0,.36l-1.25,3.82c-.11.55-.4,1.04-.82,1.42-.35.21-.75.33-1.16.36-3.15.45-6.37.9-9.49.27-.81-.16-1.7-.6-1.7-1.39.02-.29.14-.57.32-.8.96-1.29,2.73-1.59,4.24-2.12,1.83-.66,3.45-1.78,4.71-3.26Z"/><path class="cls-24_team-presentation-5-87 targetColor" d="M299.03,346.11c-.76-.2-1.8.3-2.54.45-.96.19-1.94.3-2.92.34-.85.12-1.71-.1-2.38-.63-.58-.59-.65-1.52-1.17-2.17-.49-.57-1.21-.9-1.97-.89-.75.02-1.48.18-2.17.47-1.85.62-3.5,1.74-4.75,3.24-.16.16-.24.37-.25.6.02.15.08.29.17.4.72,1.02,2.1,1.29,3.35,1.47,2.85.48,5.72.75,8.61.79,1.42-.09,2.84-.04,4.25.15.26.08.53.08.78,0,.16-.11.3-.26.38-.44.5-.86,2.28-3.35.61-3.78Z" style="fill: rgb(153, 224, 24);"/><path class="cls-24_team-presentation-5-87 targetColor" d="M347.02,347.19c-.83.27-1.52,1.44-2.12,2.05-.8.79-1.66,1.51-2.57,2.17-.73.65-1.7.97-2.67.89-.93-.19-1.6-1.03-2.5-1.32-.83-.23-1.72-.07-2.43.42-.7.48-1.3,1.09-1.78,1.78-1.36,1.77-2.2,3.88-2.44,6.1-.04.25,0,.51.14.72.11.13.26.23.42.28,1.34.52,2.82-.12,4.12-.74,3-1.35,5.9-2.93,8.66-4.72,1.29-.99,2.67-1.86,4.13-2.58.29-.08.55-.25.73-.5.09-.21.12-.44.08-.66-.06-1.12.04-4.63-1.77-3.9Z" style="fill: rgb(153, 224, 24);"/><path class="cls-17_team-presentation-5-87" d="M371.53,235.11c-.95-2.58-5.74-8.31-8.97-5.94-2.07,1.54-3.56,3.74-4.21,6.24-.3,1.15-.41,2.38-.7,3.56-.39,1.46-1.01,2.85-1.28,4.33-.23,1.56-.26,3.15-.09,4.71,3.08-.43,6.16-.89,9.22-1.35l4.61-.73c.86-.13,2.59.21,3.02-.68.19-.52.22-1.08.09-1.62l-.37-2.61c-.21-1.93-.62-3.83-1.22-5.68-.02-.08-.05-.16-.09-.23Z"/><path class="cls-22_team-presentation-5-87" d="M325.39,255.48l2.25-2.6s24.04,3.77,27.47,5.17,3.28,8.44,3.28,8.44c-9.4,2.6-33.01-11.01-33.01-11.01Z"/><path class="cls-22_team-presentation-5-87" d="M329.7,256.19c-.07.29-.24.56-.47.75-.25.15-.53.24-.82.29-1.69.4-3,1.75-4.62,2.38-2.2.86-4.67.34-6.96-.21-.58.04-1.14-.2-1.52-.63-.68-.77-.61-1.96.16-2.64.56-1.13,1.34-2.13,2.3-2.95,2.01-1.51,4.81-1.19,7.29-.79,2.25.32,5.66.44,4.64,3.81Z"/></g><g id="_character_2_team-presentation-5-87"><path class="cls-23_team-presentation-5-87" d="M232.89,318.85c6.51-1.47,5.23,7.75,6.95,11.18.91,1.83,2.55,3.17,4.02,4.61s2.84,3.2,2.93,5.24c.03.38-.05.77-.23,1.11-.32.41-.78.68-1.29.78-3.71,1.08-7.7.69-11.14-1.1-1.6-.77-2.94-2-3.82-3.55-.71-1.66-1.05-3.45-.99-5.25-.15-3.85-1.85-11.81,3.57-13.02Z"/><path class="cls-24_team-presentation-5-87 targetColor" d="M238.65,337.84s18.51.79,10.67,6.6-19.55-1.42-20.69-2.75-.21-3.6-.21-3.6l10.23-.26Z" style="fill: rgb(153, 224, 24);"/><path class="cls-21_team-presentation-5-87" d="M229.44,340.39c1.65,2.01,10.35,4.71,14.19,4.44,3.85-.27,7.31-2.07,6.93-4.56-.38-2.48-7.18-8.28-8.46-8.27s-2.3,2.97-4.87,3.59c-2.33.38-4.7-.47-6.26-2.24-.48-.66-1.36-.89-2.11-.55-.88,1.28-1.09,5.58.57,7.59Z"/><path class="cls-23_team-presentation-5-87" d="M210.58,322.49c6.51-1.51,5.23,7.71,6.95,11.14.9,1.84,2.55,3.18,4.02,4.62,1.46,1.44,2.84,3.2,2.92,5.24.04.38-.04.77-.22,1.11-.32.41-.78.68-1.29.78-3.72,1.08-7.7.69-11.14-1.1-1.6-.77-2.93-2.01-3.82-3.55-.71-1.66-1.05-3.45-.99-5.25-.15-3.89-1.85-11.83,3.57-12.99Z"/><path class="cls-24_team-presentation-5-87 targetColor" d="M216.33,341.4s18.51.78,10.67,6.6c-7.84,5.83-19.55-1.41-20.69-2.74s-.21-3.61-.21-3.61l10.23-.26Z" style="fill: rgb(153, 224, 24);"/><path class="cls-21_team-presentation-5-87" d="M207.13,343.91c1.65,2.02,10.35,4.72,14.19,4.45s7.31-2.06,6.93-4.56c-.38-2.49-7.18-8.28-8.46-8.27s-2.3,2.97-4.87,3.58c-2.33.38-4.7-.47-6.26-2.24-.48-.66-1.37-.89-2.11-.54-.88,1.3-1.09,5.56.57,7.58Z"/><path class="cls-16_team-presentation-5-87" d="M227.35,241.85l-8.69,91.53-12.54-1.55c-4.95-22.33-3.73-89.15-3.73-89.15l24.97-.83Z"/><path class="cls-16_team-presentation-5-87" d="M218.66,239.38l8.69,91.53,12.57-1.55c7.17-57.92,1.26-93.97,1.26-93.97l-22.52,3.99Z"/><path class="cls-24_team-presentation-5-87 targetColor" d="M254.44,197.23l-18.77-19.21v25.83c1.34,1.22,2.75,2.36,4.21,3.43,3.53,2.56,8.59,5.5,12.45,4.73.18-.04.36-.09.54-.15,2.1-.7,2.88-2.81,3.02-5.23.27-4.23-1.45-9.4-1.45-9.4Z" style="fill: rgb(153, 224, 24);"/><path class="cls-24_team-presentation-5-87 targetColor" d="M240.07,206.28c.15-1.68.6-3.34.78-5.05.41-3.45.34-6.95-.2-10.38-.59-3.66-1.69-7.22-3.27-10.57-1.45-2.9-4.06-4.14-7-5.59-2.46-1.33-5.13-2.24-7.89-2.68-1.95-.18-3.92-.07-5.83.33-5.91,1.12-13.7,4.17-17.73,8.83-3.03,3.5-3.39,8.51-3.49,13.15-.13,6.4,0,12.79.39,19.17.05.93.11,1.85.19,2.78.54,7.01,1.11,14.28,3.11,21.05.63,2.12,1.29,4.26,3.26,5.4,4.62,2.69,11.69,1.21,16.69.51,6.63-.94,13.43-1.93,19.31-5.14,1.23-.53,2.22-1.48,2.79-2.69.51-1.44-.11-3-.56-4.46-1.99-6.54-.45-13.41-.45-20.09,0-1.21-.15-2.44-.15-3.65,0-.3.05-.61.05-.91Z" style="fill: rgb(153, 224, 24);"/><path class="cls-7_team-presentation-5-87" d="M213.58,244.39c.65-1.28-.72-4.67-.21-6.42.91-3.2,2.04-5.65,1.88-9.19-.18-2.54-.56-5.07-1.16-7.55l-4.24-20.18c-.77-3.7-2.45-21.54-8.1-19.51-3.2,1.16-5.5,4.14-6.62,7.36-1.12,3.22-1.17,6.69-1.17,10.12.1,8.83,1.87,17.99,3.01,26.82.44,3.34.96,15.75,5.38,16.85.86.22,1.71.66,2.57.81,1.48.27,5.95,2.04,7.88,1.46.32-.08.6-.29.77-.57Z"/><path class="cls-23_team-presentation-5-87" d="M227.33,162.81c-.03-1.76-.14-3.54-.33-5.25-.16-1.52-.4-3.06-.7-4.57-.2-.98-.31-1.72-1.17-2.31-2.35-1.45-5.06-2.19-7.82-2.14-2.08,0-4.32.5-5.7,2.05-.94,1.2-1.49,2.65-1.58,4.17-.42,3.85.58,7.68,1.14,11.5.44,2.96.59,5.96.47,8.95,1.45.96,3.11,1.55,4.83,1.71.81,0,1.61-.15,2.37-.4.43-.09.81-.34,1.06-.69.12-.32.15-.66.09-.99-.03-.32-.09-.63-.09-.94h0c-.12-1.75-.09-3.51.1-5.25,0-.15.05-.29.15-.39.11-.06.24-.08.36-.06h.49c.87.06,1.75.05,2.62-.04,1.04-.11,2.01-.59,2.72-1.36.92-1.02,1-2.58.96-3.97Z"/><path class="cls-17_team-presentation-5-87" d="M223.84,151.45c1.94-.47,3.72-1.18,4.84-2.96,1.16-1.79,1.1-4.1-.15-5.83-1.03-1.3-2.71-1.91-4.28-2.45.21.46.34.95.39,1.46-.9-.59-1.89-1.04-2.92-1.34.48.69.87,1.44,1.16,2.24-1.1.5-2.29.79-3.5.86-1.46.17-2.91.37-4.35.63-2.25.27-4.41,1.07-6.29,2.33-1.8,1.36-3.02,3.71-2.45,5.89.06.16.08.33.07.51-.06.31-.36.49-.63.65-.64.41-1.19.94-1.61,1.57-.5.72-.8,1.56-.86,2.44-.09,2.16,1.44,4.04,3.09,5.42.93.78,1.94,1.48,2.84,2.28.47.41.91.85,1.31,1.33.25.31.51,1.03.94,1.11s.74-.38.86-.78c.48-1.73.36-3.58-.35-5.23-.5-.8-.79-1.72-.86-2.66.09-.93,1.36-1.67,1.97-1.12s.72,1.89,1.46,1.63c-.86-2.66.26-6.02,2.83-7.08,1.88-.75,4.03-.42,6-.75l.49-.14Z"/><path class="cls-7_team-presentation-5-87" d="M221.01,168.2c-2.03-.38-4.01-.97-5.92-1.76-.17,6.18,4.85,7.45,4.85,7.45h0c-.12-1.75-.09-3.51.1-5.25,0-.15.05-.29.15-.39.11-.06.24-.08.36-.06h.49-.03Z"/><path class="cls-24_team-presentation-5-87 targetColor" d="M270.8,197.5c-.55-1.55-1.3-3.33-2.16-3.69-1.51-.62-14.2,3.43-14.2,3.43,0,0-5.58,3-5.37,8.14.15,1.97.91,3.84,2.18,5.35.41.54.98.93,1.63,1.13.38.12.78.16,1.18.13,3.04-.28,5.95-1.33,8.47-3.04,3.5-2.45,6.55-5.49,9.01-8.98,0,0-.29-1.13-.74-2.47Z" style="fill: rgb(153, 224, 24);"/><path class="cls-7_team-presentation-5-87" d="M270.8,197.51c-3.97,3.41-8.37,6.29-13.08,8.57-.58.27-1.2.45-1.83.55-2.36.31-4.76-.13-6.85-1.26-2.95-1.52-5.64-3.51-7.95-5.89l-1.2,7.71v.09c3.53,2.56,8.59,5.5,12.45,4.73.18-.04.36-.09.54-.15.38.12.78.16,1.18.13,3.04-.28,5.95-1.33,8.47-3.04,3.5-2.45,6.55-5.49,9.01-8.98,0,0-.29-1.13-.74-2.45Z"/><path class="cls-23_team-presentation-5-87" d="M268.94,198.18c.47.22.98.29,1.49.21,2-.04,3.99-.33,5.92-.86,1.94-.54,3.67-1.68,4.93-3.25,1.25-1.61,1.61-3.74.96-5.67-.12-.42-.4-.77-.79-.97-.36-.11-.75-.11-1.11,0-1.56.39-3.1.86-4.61,1.43-.52.24-1.08.37-1.65.4-.58.02-1.12-.32-1.35-.86-.03-.24-.11-.48-.21-.69-.29-.32-.78-.35-1.11-.08-.3.29-.53.65-.65,1.05-.63,1.59-4.27,7.86-1.82,9.29Z"/><path class="cls-24_team-presentation-5-87 targetColor" d="M193.47,195.95c-1.3,7.68,1.19,15.5,4.4,22.6,3.22,7.1,7.22,13.91,9.24,21.44,4.21.6,8.63-.44,12.13-2.85-4.31-15.76-8.63-31.51-12.94-47.27-.73-2.68-3.07-9.88-6.85-8.26-3.03,1.29-5.48,11.42-5.97,14.34Z" style="fill: rgb(153, 224, 24);"/><path class="cls-23_team-presentation-5-87" d="M220.71,244.34c1.34,2.67,2,5.75,1.43,8.69-.06.3-.17.65-.46.75-.19.06-.39,0-.56-.1-1.13-.69-1-2.94-2.32-3.01-.28-.02-.55.09-.81.19-1.17.48-2.33,1-3.57,1.23s-2.6.11-3.63-.62c-1.35-.95-1.85-2.73-1.97-4.38-.12-1.65.05-3.34-.37-4.94-.84-3.16,3.66-3.97,6.1-3.95,2.95.02,5.01,3.86,6.16,6.15Z"/></g><g id="_character_1_team-presentation-5-87"><ellipse class="cls-17_team-presentation-5-87" cx="114.04" cy="350.23" rx="22.34" ry="5.31"/><path class="cls-24_team-presentation-5-87 targetColor" d="M173.86,341.6v7.65h27.39s-1.6-5.87-12.45-7.65l-3.56-2.89-11.38,2.89Z" style="fill: rgb(153, 224, 24);"/><path class="cls-8_team-presentation-5-87" d="M173.86,341.6v7.65h27.39s-1.6-5.87-12.45-7.65l-3.56-2.89-11.38,2.89Z"/><rect class="cls-24_team-presentation-5-87 targetColor" x="172.61" y="349.25" width="29.52" height="1.96" style="fill: rgb(153, 224, 24);"/><rect class="cls-17_team-presentation-5-87" x="111.89" y="306.09" width="4.29" height="39.67"/><path class="cls-17_team-presentation-5-87" d="M136.38,350.23c0,2.94-10,5.31-22.34,5.31s-22.34-2.38-22.34-5.31c0-.27-.16-3.05,0-3.31,1.59-2.56,11.12-2.01,22.34-2.01s20.26-.42,22.34,2.01c.3.35,0,2.94,0,3.31Z"/><ellipse class="cls-17_team-presentation-5-87" cx="114.04" cy="346.92" rx="22.34" ry="5.31"/><path class="cls-17_team-presentation-5-87" d="M120.85,298.86h-36.96l-8.85-48.04c-.65-3.53,2.06-6.79,5.66-6.79h25.26c2.77,0,5.15,1.98,5.66,4.71l9.23,50.12Z"/><path class="cls-17_team-presentation-5-87" d="M130.69,298.86h-36.96l-8.85-48.04c-.65-3.53,2.06-6.79,5.66-6.79h25.26c2.77,0,5.15,1.98,5.66,4.71l9.23,50.12Z"/><rect class="cls-17_team-presentation-5-87" x="83.65" y="291.62" width="41.11" height="14.48" rx="7.24" ry="7.24"/><rect class="cls-17_team-presentation-5-87" x="99.92" y="291.62" width="41.11" height="14.48" rx="7.24" ry="7.24"/><path class="cls-21_team-presentation-5-87" d="M102.52,252.52c.73,1.58,1.31,3.23,1.72,4.93.37,2.08.97,4.11,1.37,6.19.73,4.19,1.08,8.45,1.04,12.7,0,1.68,0,3.58,1.2,4.75.89.7,1.95,1.14,3.08,1.26,2.18.44,4.15,1.3,6.33,1.67,2.37.34,4.77.48,7.16.43,7.07,0,20.22-.79,19.78-10.68-.48-11.2-1.35-22.09-2.91-33.25-.53-3.74-.64-8.05-1.78-11.65-.97-3.02-4.47-3.05-7.4-2.74l-.55.06c-.56.06-1.13.13-1.68.2-3.89.4-7.81.51-11.71.34-4.41-.14-11.44-.57-15.77,3.57-.3.29-.58.59-.84.91-4.36,5.26-2.01,13.78.97,21.29Z"/><path class="cls-21_team-presentation-5-87" d="M159.49,249.88c.38,2.36.57,4.74.58,7.12.07.84-.11,1.67-.51,2.41-.74,1.13-2.28,1.35-3.63,1.32-4.25-.04-8.32-1.75-11.34-4.75-2.81-2.79-5.38-5.82-7.69-9.05-1.29-1.52-1.92-3.5-1.74-5.48,0-2.71.11-5.43.35-8.12.06-.63,4.42-.14,4.85,0,1.63.47,3.18,1.16,4.61,2.07.16-1.78-.34-3.8-.49-5.61-.1-.53-.03-1.08.18-1.58.49-.88,1.73-.97,2.75-.87,2.18.16,4.6.52,5.96,2.23.57.81,1,1.71,1.26,2.67,1.96,5.76,3.91,11.64,4.84,17.64Z"/><path class="cls-20_team-presentation-5-87" d="M153.03,252.15c.23.88.13,1.82-.26,2.64-.97,1.48-3.2.97-4.78.25-2.12-1.02-4.14-2.23-6.03-3.63-.32-.31-.75-.48-1.19-.47-.32.1-.6.31-.8.58-2.95,3.25-6.56,5.84-10.58,7.61-1.37.6-3.17.97-4.16-.11s-.2-3.1.67-4.44l10.4-16.07c.12-.23.31-.42.55-.53.4-.14.8.16,1.12.44,1.43,1.24,3.02,2.28,4.73,3.11.6.37,1.32.5,2.01.36.97-.33,1.3-1.51,1.43-2.52.21-1.68.25-3.38.14-5.07-.11-.7-.06-1.41.14-2.09.56-1.16,1.95-1.65,3.11-1.09.08.04.15.08.22.12,1.28.97,1.08,4.64,1.29,6.2l2.01,14.71Z"/><path class="cls-20_team-presentation-5-87" d="M117.06,251.59c.94,1.72,2.21,3.24,3.74,4.47,1.7,1.32,5.63,6.51,8.06,4.93-1.07.94-2.33,1.63-3.7,2.04,3.77,2.65,8.51,3.36,13.03,4.2,1.18.15,2.31.53,3.34,1.13,1.04.62,1.64,1.77,1.53,2.98-.33,2.04-2.91,2.65-4.99,2.78-5.08.31-10.18.42-15.23,1.04-4.3.52-8.93,1.65-11.58,5.08-.19.3-.45.54-.77.7-.55.13-1.12-.14-1.36-.66-.22-.51-.31-1.07-.28-1.62-.08-4.22-.73-8.4-1.94-12.44-.49-1.63-.54-3.29-1.02-4.85-.58-1.94-1.64-3.76-2.3-5.67-1.32-3.86-2.21-7.85-2.65-11.91-.31-2.84-.11-6.28,2.34-7.76,1.89-.97,4.17-.73,5.82.6,1.59,1.32,2.82,3.03,3.57,4.96,1.47,3.27,2.57,6.93,4.37,10.02Z"/><path class="cls-24_team-presentation-5-87 targetColor" d="M127.55,233.86c-.15.18-.25.39-.32.61-.01.24.04.49.15.71,2.23,6.02,4.02,12.2,5.36,18.49,1.3,5.5,2.61,11.04,2.91,16.7.04.41.01.82-.09,1.22-.43,1.4-2.25,1.83-3.05,3.06l-2.65-3.02c-.17-.18-.31-.38-.41-.6-.07-.32-.07-.65,0-.97.9-6.05-.09-12.21-1.5-18.15-1.21-5.1-2.76-10.22-2.66-15.47.1-.63-.07-1.28-.48-1.78-.27-.18-.56-.32-.87-.43-1.46-.68-2.09-2.41-1.41-3.87.02-.05.05-.09.07-.14.56,0,1.11-.14,1.61-.41.5-.26,1.08-.34,1.63-.21,1.19.46,2.41,3.1,1.71,4.25Z" style="fill: rgb(153, 224, 24);"/><path class="cls-21_team-presentation-5-87" d="M102.37,230.35c4.33-4.14,11.36-3.71,15.77-3.57,3.91.17,7.82.06,11.71-.34.55-.08,1.12-.15,1.68-.2-2.32-.97-5.62-.31-8.1-.23-3.76.12-7.51.35-11.27.69-3.56.32-7.48.93-9.79,3.66Z"/><path class="cls-18_team-presentation-5-87" d="M115.7,214.85c1.48,3.86,5.67,5.93,9.64,4.77,0,0-1.82,5.57.47,8.94.43.63-2.45,1.27-2.61,1.28-1.61.1-3.26-.44-4.74-1.01-2.52-.97-4.53-2.01-7.24-2.4,1.22-.44,2.07-1.56,2.63-2.73,1.34-2.81.89-5.33.37-8.2.4.19.88.19,1.21-.13.15-.14.25-.32.29-.52Z"/><path class="cls-22_team-presentation-5-87" d="M120.73,222.01c5.41,1.59,9.81-2.86,11.81-9.44.21-.72.4-1.47.55-2.23.46-2.19.66-4.42.59-6.66-.29-10.79-15.81-9.71-15.81-9.71-12.56,2.81-6.55,25.28,2.85,28.04Z"/><path class="cls-17_team-presentation-5-87" d="M128.69,192.22c1.98.49,3.71,1.69,4.85,3.38.59.88.97,1.88,1.69,2.71.97,1.17,2.41,2.02,2.91,3.46-2.45.39-4.96-.06-7.11-1.29-.36.6-1,.97-1.7.97-.69,0-1.37-.14-2.01-.38-.35-.15-.74-.18-1.12-.1-.28.12-.53.31-.74.53-1.29,1.1-3.06,1.47-4.68.97-.97-.29-1.94-.88-2.84-.58-.99.33-1.57,1.8-1.53,2.77.03.65.32,1.29.35,1.96s-.08,1.42-.3,2.09c-.39-.46-.79-.93-1.31-1.22s-1.21-.38-1.72-.07c-.21.13-.39.33-.53.54-.9,1.3-.65,3.26.55,4.31-.17.68-.33,1.35-.48,2.03-.85-.94-1.54-2.03-2.02-3.21-.53-1.29-.84-2.69-1.64-3.83-.4-.57-.94-1.07-1.21-1.73-.19-.47-.25-.94-.51-1.38-.64-1.12-1.51-2.24-1.15-3.62s1.94-2.47,1.59-3.88c-.09-.26-.17-.52-.23-.79-.03-.4.05-.79.24-1.15,1.47-2.88,4.18-4.94,7.35-5.6,3.14-.62,6.37-.59,9.49.09,3.14.54,6.25,1.33,9.43,1.57.26,0,.56.07.68.3.03.11.03.24,0,.35-.13.68-.77,1.14-1.28,1.61s-.97,1.24-.59,1.83"/><path class="cls-17_team-presentation-5-87" d="M116.98,276.65s6.57,16.42,11.85,18.15,24.81,7.68,24.81,7.68l20.94,42.48,10.68-6.57-17.73-51.17-21.27-10.9s-5.44.16-29.26.33Z"/><path class="cls-17_team-presentation-5-87" d="M107.86,279.8s-1.23,14.97,4.05,16.7,24.8,7.69,24.8,7.69l17.41,47.39,11.38-2.89-14.86-59.75-21.26-10.9s-12.35-4.5-21.51,1.76Z"/><path class="cls-21_team-presentation-5-87" d="M99.81,238.12s9.27,20.77,19.09,23.57c9.82,2.8,21.65-26.3,21.65-26.3l-7.88-2.97-13.23,13.3s-8.2-17.41-11.53-16.62-9.36,5.44-8.1,9.02Z"/><path class="cls-18_team-presentation-5-87" d="M142.56,220.85c.1.81.44,1.57.97,2.19.62,1.3,1.03,2.69,1.21,4.11.22,1.43.79,2.79,1.67,3.94.93,1.16,2.5,1.57,3.88,1.03.89-.52,1.48-1.43,1.59-2.46.1-1.01-.02-2.03-.34-3-.35-1.27-.83-2.49-1.44-3.66-.54-1.11-1.29-2.1-2.22-2.91-1.35-1.15-5.14-2.14-5.33.75Z"/><path class="cls-22_team-presentation-5-87" d="M138.62,222.1c.49-.88,1.21-1.61,2.09-2.11.84-.32,1.74-.45,2.63-.37,1.75,0,3.78.32,4.62,1.84.53,1.24.39,2.66-.38,3.78-.67,1.14-1.62,2.09-2.31,3.22-.97,1.61-1.44,3.63-2.91,4.8-.63.48-1.35.81-2.13.97-2.56.59-5.91-.63-5.31-3.69.73-3.01,1.98-5.87,3.7-8.45Z"/><path class="cls-24_team-presentation-5-87 targetColor" d="M154.11,351.59v7.65h27.39s-1.6-5.87-12.45-7.65l-3.56-2.89-11.38,2.89Z" style="fill: rgb(153, 224, 24);"/><path class="cls-14_team-presentation-5-87" d="M154.11,351.59v7.65h27.39s-1.6-5.87-12.45-7.65l-3.56-2.89-11.38,2.89Z"/><rect class="cls-24_team-presentation-5-87 targetColor" x="152.87" y="359.24" width="29.52" height="1.96" style="fill: rgb(153, 224, 24);"/><path class="cls-21_team-presentation-5-87" d="M113.56,225.12c-.41-.08-.85-.15-1.23.02-.64.27-.93,1.09-1.58,1.33,1.51,1.39,3.55,2.02,5.29,3.11,1.85,1.17,3.32,2.83,4.77,4.47,1.64-.9,1.53-3.44,2.96-4.64-.79,0-2.14-.89-2.87-1.22s-1.38-.72-2.05-1.15c-1.6-1.02-3.44-1.56-5.3-1.93Z"/><path class="cls-21_team-presentation-5-87" d="M127.59,226.08c.53.44.96.98,1.39,1.52.54.69,1.08,1.37,1.62,2.06.14.18.29.4.24.62-.06.27-.4.4-.67.36s-.52-.19-.78-.28c-.58-.19-1.21-.07-1.82-.1-.75-.04-1.47-.3-2.18-.57-.08-.03-.17-.06-.21-.14-.04-.07-.04-.16-.03-.25.06-.73-.08-1.43-.33-2.12-.18-.5-.52-1.09-.18-1.61.65-1,2.3-.02,2.94.51Z"/></g><g id="table_team-presentation-5-87"><path class="cls-24_team-presentation-5-87 targetColor" d="M263.15,350.29c0,2.94-10,5.31-22.34,5.31s-22.34-2.38-22.34-5.31c0-.27-.16-3.05,0-3.31,1.59-2.56,11.12-2.01,22.34-2.01s20.26-.42,22.34,2.01c.3.35,0,2.94,0,3.31Z" style="fill: rgb(153, 224, 24);"/><ellipse class="cls-24_team-presentation-5-87 targetColor" cx="240.81" cy="346.98" rx="22.34" ry="5.31" style="fill: rgb(153, 224, 24);"/><ellipse class="cls-15_team-presentation-5-87" cx="240.81" cy="346.98" rx="22.34" ry="5.31"/><rect class="cls-24_team-presentation-5-87 targetColor" x="238.25" y="297.09" width="5.18" height="50.26" style="fill: rgb(153, 224, 24);"/><rect class="cls-13_team-presentation-5-87" x="238.25" y="297.09" width="5.18" height="17.36"/><path class="cls-24_team-presentation-5-87 targetColor" d="M367.63,283.84c0,10.81-54.79,19.57-122.38,19.57s-122.38-8.76-122.38-19.57c0-.45-.18-5.87,0-6.31,4.28-10.19,57.59-13.25,122.38-13.25s116.11,3.39,122.38,13.25c.42.66,0,5.64,0,6.31Z" style="fill: rgb(153, 224, 24);"/><path class="cls-11_team-presentation-5-87" d="M122.88,283.84c0,10.81,54.79,19.57,122.38,19.57s122.38-8.76,122.38-19.57c0-1.25.13-2.56,0-3.81-.08-.78-.48-1.48-.88-2.16-.83-1.42-1.76-2.93-3.28-3.54-.88-.36-1.85-.37-2.8-.37-2.83,0-5.66.06-8.48.18-3.89.16-7.79.43-11.64.99-2.88.42-5.75,1-8.66,1.17-5.99.35-11.95-1.06-17.95-1.32-.45-.02-.9-.03-1.33.07-.49.12-.93.38-1.38.61-2.15,1.1-4.65,1.52-7.04,1.18-21.76,1.48-43.47,0-65.14-2.52-18.1-2.11-36.19-4.68-54.41-5.15-19.03-.49-38.11,1.32-56.71,5.38-2.52.55-5.58,1.76-5.7,4.34-.08,1.8,1.79,3.55.64,4.95Z"/><ellipse class="cls-24_team-presentation-5-87 targetColor" cx="245.26" cy="277.52" rx="122.38" ry="19.57" style="fill: rgb(153, 224, 24);"/><polygon class="cls-24_team-presentation-5-87 targetColor" points="199.7 260.37 199.7 263.31 224.01 274.6 266.6 271.58 267.18 269.36 199.7 260.37" style="fill: rgb(153, 224, 24);"/><polygon class="cls-12_team-presentation-5-87" points="199.7 260.37 199.7 263.31 224.01 274.6 266.6 271.58 267.18 269.36 199.7 260.37"/><polygon class="cls-24_team-presentation-5-87 targetColor" points="225.34 272.47 199.7 260.37 236.37 254.15 225.34 272.47" style="fill: rgb(153, 224, 24);"/><polygon class="cls-6_team-presentation-5-87" points="225.34 272.47 199.7 260.37 236.37 254.15 225.34 272.47"/><polygon class="cls-21_team-presentation-5-87" points="165.58 267.67 197.42 269.09 187.64 280.47 152.6 277.52 165.58 267.67"/><path class="cls-21_team-presentation-5-87" d="M297.91,267.67c-1.78.18-31.3,8.72-31.3,8.72l17.07,13.16,33.79-9.07-19.56-12.81Z"/><polygon class="cls-24_team-presentation-5-87 targetColor" points="267.18 269.36 225.34 272.47 233.25 238.47 277.28 235.83 267.18 269.36" style="fill: rgb(153, 224, 24);"/><polygon class="cls-3_team-presentation-5-87" points="267.18 269.36 225.34 272.47 233.25 238.47 277.28 235.83 267.18 269.36"/><polygon class="cls-4_team-presentation-5-87" points="227.76 261.97 215.86 264.76 225.34 271.17 227.76 261.97"/><polygon class="cls-5_team-presentation-5-87" points="224.96 257.2 218.26 258.86 221.89 262.09 227.76 260.52 224.96 257.2"/></g></svg>