<?xml version="1.0" encoding="UTF-8" standalone="no"?>
<svg
   width="748"
   height="205"
   viewBox="0 0 748 205"
   version="1.1"
   id="svg3"
   sodipodi:docname="androidstudio-logos.svg"
   inkscape:version="1.3.2 (091e20e, 2023-11-25, custom)"
   xmlns:inkscape="http://www.inkscape.org/namespaces/inkscape"
   xmlns:sodipodi="http://sodipodi.sourceforge.net/DTD/sodipodi-0.dtd"
   xmlns="http://www.w3.org/2000/svg"
   xmlns:svg="http://www.w3.org/2000/svg">
  <defs
     id="defs3" />
  <sodipodi:namedview
     id="namedview3"
     pagecolor="#505050"
     bordercolor="#eeeeee"
     borderopacity="1"
     inkscape:showpageshadow="0"
     inkscape:pageopacity="0"
     inkscape:pagecheckerboard="0"
     inkscape:deskcolor="#505050"
     inkscape:zoom="0.79394533"
     inkscape:cx="338.81426"
     inkscape:cy="-22.04182"
     inkscape:window-width="1920"
     inkscape:window-height="1009"
     inkscape:window-x="-8"
     inkscape:window-y="-8"
     inkscape:window-maximized="1"
     inkscape:current-layer="svg3" />
  <path
     fill="currentColor"
     d="m 42.867803,36.751054 c 8.212533,0 16.425065,2.8159 21.70455,8.447701 v -7.03975 H 79.23759 v 54.440754 h -9.972361 c -2.346438,0 -4.692876,-1.40795 -4.692876,-3.754534 V 85.090691 C 59.292868,90.253175 51.666945,93.538393 42.867803,93.538393 24.096301,93.069075 10.017674,80.866841 10.017674,65.848691 V 65.379375 C 9.4310635,49.891923 23.509691,37.22037 42.867803,36.751054 m 2.346438,10.794285 c -11.14558,0 -20.531331,7.509067 -19.944721,16.426085 v 0.938634 c -1.173219,8.917031 7.625922,16.895416 18.771502,17.364733 11.14558,0.938634 21.117941,-6.101118 21.70455,-15.018149 V 64.910058 C 66.332182,55.99304 58.119649,48.483972 46.97407,47.545339 Z m 50.448414,-9.855652 h 14.665235 v 7.039752 c 4.69288,-5.631802 12.3188,-8.917018 20.53133,-8.447702 15.83846,0 25.81082,8.917018 25.81082,22.527203 v 32.852185 h -9.97236 c -2.34644,0 -4.69288,-1.40795 -4.69288,-3.754533 V 61.155524 c 0,-8.447701 -5.27948,-13.610185 -14.07862,-13.610185 -9.97237,0 -17.59829,6.101118 -17.59829,17.834036 v 26.751067 h -9.97236 c -2.346437,0 -4.692875,-1.877267 -4.692875,-3.754533 z m 105.589705,-1.40795 c 8.21253,0 16.42506,2.8159 21.70455,7.978384 V 10 h 14.66523 v 81.191809 h -9.38575 c -2.34644,0 -4.69287,-1.40795 -4.69287,-3.754535 v -3.754533 c -5.27949,5.162484 -13.49202,8.447701 -21.70455,8.447701 -18.77151,-0.469317 -33.43674,-13.140868 -32.26352,-27.689701 v -0.469317 c -1.17322,-14.548818 12.9054,-26.751054 31.67691,-27.689687 m 3.51965,10.794285 c -11.14558,0 -20.53133,7.509067 -19.94472,16.426085 v 0.938634 c -1.17322,8.917032 7.62593,16.895416 18.77151,17.364733 11.14558,0.938633 21.11794,-6.101118 21.70455,-15.01815 v -2.346583 c 0.5866,-8.917018 -7.62593,-16.426086 -18.77151,-17.364719 z m 50.44842,-9.855652 h 14.66523 v 9.855652 c 2.34644,-6.101117 9.97237,-10.324968 17.59829,-10.324968 1.75983,0 4.10626,0 5.86609,0.469316 v 12.202236 c -2.34644,-0.469318 -4.69287,-0.938634 -7.62592,-0.938634 -8.21253,0 -16.42507,5.631801 -16.42507,16.426086 v 26.281751 h -10.55897 c -2.34643,0 -4.69287,-1.40795 -4.69287,-3.754535 z m 78.60567,55.848705 c -19.35812,0 -34.60996,-12.671552 -34.60996,-28.159017 0,-15.487452 15.83845,-27.689688 35.19656,-27.689688 19.35812,0 34.60996,12.671553 34.60996,28.159005 0,15.018148 -15.83845,27.6897 -34.60996,27.6897 z m 0,-11.263601 c 11.14558,0 20.53133,-7.039751 20.53133,-16.426099 v -0.469317 c 0,-8.917018 -9.38575,-16.426086 -20.53133,-16.426086 -11.14558,0 -20.53134,7.509068 -20.53134,16.426086 -0.58661,8.917031 8.21254,16.426099 19.35812,16.895416 z m 55.14128,-55.848706 c -5.27948,0 -9.97236,-3.754534 -9.97236,-7.978383 0,-4.223851 4.69288,-7.978385 9.97236,-7.978385 5.27949,0 9.97237,3.754534 9.97237,7.978385 0,4.223849 -4.69288,7.978383 -9.97237,7.978383 m -7.62592,11.732919 h 14.66524 v 53.971438 h -9.97236 c -1.17322,0 -2.34644,-0.469316 -3.51966,-0.938633 -0.58661,-0.938633 -1.17322,-1.877267 -1.17322,-2.8159 z m 59.83417,-0.938633 c 8.79914,0 17.01167,2.8159 22.29116,8.447701 V 10.469316 h 14.66523 v 81.191809 h -10.55897 c -2.34644,0 -4.69287,-1.40795 -4.69287,-3.754533 v -3.754535 c -5.27949,5.162484 -12.90541,8.447702 -21.70455,8.447702 C 422.40412,92.130442 407.73889,79.928207 408.3255,64.910058 V 64.440741 C 407.73889,49.422606 421.81751,37.22037 441.17563,36.751054 q -0.87992,-0.703976 0,0 m 2.34643,10.324968 c -11.14558,0 -19.94472,7.509067 -19.94472,16.426085 v 0.938634 c -1.17322,8.917032 7.62593,16.895416 18.77151,17.364733 11.14558,0.938633 21.11794,-6.101118 21.70455,-15.01815 v -2.346583 c 0.58661,-8.917018 -7.62593,-16.426086 -18.77151,-17.364719 z M 173.0951,176.13815 V 149.85641 H 159.01648 V 139.06213 H 173.0951 V 124.044 h 15.25185 v 15.01813 h 19.35811 v 10.79428 h -19.35811 v 24.40447 c 0,7.03975 3.51966,9.38634 11.73219,9.38634 2.93305,0 5.27948,-0.46932 8.21253,-0.93863 v 10.79429 c -3.51966,0.93862 -7.62592,1.40794 -11.14558,1.40794 -11.73219,0.93863 -22.29116,-5.6318 -23.46438,-15.01813 -0.58661,-1.87728 -0.58661,-2.81591 -0.58661,-3.75454 m 232.88396,-9.85566 c 0,-15.95676 15.83845,-28.62831 35.78318,-28.62831 19.94472,0 35.78317,12.67155 35.78317,28.62831 0,15.95678 -15.83845,28.62833 -35.78317,28.62833 -19.35812,0 -35.78318,-12.20223 -35.78318,-27.68968 z m 56.31451,0 c -0.58661,-9.38632 -9.97236,-16.89539 -21.70455,-16.42608 -11.73219,0.46932 -21.11794,7.97839 -20.53133,17.36473 0.58661,9.38633 9.97236,16.89539 21.70455,16.42608 11.14558,-0.46932 20.53133,-7.50907 20.53133,-16.42608 z m -347.85941,10.79429 c 1.17322,5.16249 7.62592,8.91702 14.07862,7.97839 6.45271,0 11.14558,-2.34658 11.14558,-5.6318 0,-3.28522 -2.93304,-5.6318 -9.97236,-7.03976 l -11.14558,-2.34657 c -9.97236,-1.40796 -17.59828,-8.44771 -17.59828,-16.42609 0,-9.38634 9.97236,-15.48746 25.22421,-15.48746 15.25184,0 24.63759,6.57044 26.39742,16.42608 h -14.66523 c -1.17322,-4.22384 -5.8661,-7.03973 -11.14558,-6.57042 -5.8661,0 -9.97236,1.87726 -9.97236,5.6318 0,3.28522 2.93304,5.16248 9.38575,6.57043 l 11.73219,2.34659 c 12.31879,2.34658 18.18489,7.97838 18.18489,16.42609 0,10.32496 -11.14558,15.95676 -26.98404,15.95676 -7.62592,0 -14.66523,-1.40794 -20.53133,-5.16248 -5.27948,-2.81591 -8.799139,-7.50907 -8.799139,-12.67156 z m 148.9988,8.91702 c -4.10627,5.6318 -11.73219,8.91702 -19.94472,8.4477 -15.83846,0 -25.22421,-8.91701 -25.22421,-22.99652 v -32.85216 h 15.25185 v 30.50558 c 0,8.91701 4.69287,14.0795 13.49202,14.0795 9.97236,0 16.42506,-6.57043 16.42506,-17.83403 v -26.75105 h 15.25185 v 54.44073 h -15.25185 z m 82.12532,0 c -5.27948,5.16249 -12.9054,8.4477 -21.11794,8.4477 -18.7715,-0.46931 -33.43674,-12.67154 -32.85013,-27.22036 v -0.93865 c -1.17321,-14.54882 13.49202,-27.22036 31.67692,-28.159 h 1.17321 c 8.21254,0 16.42507,2.8159 21.70455,8.44771 v -34.26014 h 14.66524 v 81.19182 h -15.25185 z m -33.43673,-7.03974 c 3.51965,3.28521 8.79914,5.16247 14.66523,5.16247 5.27949,0 10.55897,-1.87726 14.66524,-5.16247 7.62592,-7.03976 7.62592,-17.83404 0,-24.87379 -3.51966,-3.28522 -8.79914,-5.16249 -14.66524,-5.16249 -5.27948,0 -11.14558,1.40795 -14.66523,5.16249 -7.62593,7.03975 -7.62593,17.36471 0,24.87379 m 72.73957,-67.58163 c 5.27948,0.46932 9.38575,4.22385 9.38575,8.4477 -0.58661,3.75453 -4.10627,7.03977 -9.38575,7.50908 -3.51966,0 -7.03932,-1.40795 -8.79914,-3.75455 -1.75983,-2.34658 -1.75983,-5.6318 0,-7.97838 2.34643,-2.34658 5.27948,-4.22385 8.79914,-4.22385 m 7.62592,27.6897 v 54.44075 H 377.8218 V 139.06213 Z M 569.05647,33.465836 h 25.22421 c -9.38575,7.509069 -14.66524,16.426087 -16.42507,27.220371 h -9.97236 c -10.55897,0 -18.18489,-6.570434 -18.18489,-14.079502 0.58661,-7.509068 8.79914,-13.140869 19.35811,-13.140869 m 75.08601,114.982634 c 1.75983,3.2852 12.90541,21.58857 12.90541,21.58857 h -31.67691 c 0,0 10.55897,-16.89541 12.3188,-21.58857 1.75983,-3.28522 4.69287,-3.28522 6.4527,0"
     id="path1"
     style="fill:#989c9f;fill-opacity:0.6;stroke-width:0.999995" />
  <path
     fill="currentColor"
     d="m 736.82678,78.520257 c -1.75983,6.570434 -10.55897,11.263602 -20.53133,11.263602 h -9.38576 c -0.58661,0 -1.17321,0.469316 -0.58661,0.938633 v 79.314548 h -17.01167 l -32.85013,-53.97145 c 3.51966,-2.81589 5.27949,-7.03975 5.27949,-11.26359 0,-7.039757 -5.27949,-13.610191 -12.90541,-15.956775 v -7.509068 c 0,-3.285217 -3.51966,-5.631801 -7.03932,-5.631801 h -0.58661 c -4.10626,0 -7.03931,2.815901 -7.03931,5.631801 v 7.039752 c -8.79914,2.346583 -14.66524,8.917016 -14.66524,16.426091 0,4.69316 2.34644,8.4477 5.8661,11.73292 l -31.67691,53.50212 h -27.57065 c -10.55897,0 -19.35811,-7.03976 -19.35811,-15.48747 V 51.299872 c 0,0 0,-0.938633 0,0 1.75983,7.039752 9.38575,12.671552 18.7715,12.671552 h 143.71932 c 0,0 26.98404,-1.877267 27.57065,14.548833"
     id="path2"
     style="fill:#989c9f;fill-opacity:0.6;stroke-width:0.999995" />
  <path
     fill="currentColor"
     d="m 640.62283,96.354288 c 5.86609,0 10.55897,3.754542 10.55897,8.447712 0,4.69316 -4.69288,8.4477 -10.55897,8.4477 -5.8661,0 -10.55897,-3.75454 -10.55897,-8.4477 0,-2.34659 1.17321,-4.22386 2.93304,-6.101121 2.34644,-1.407954 4.69288,-2.346591 7.62593,-2.346591 m 4.10626,-5.162479 v -8.917018 c 0,-0.938634 -0.58661,-1.877268 -1.75983,-2.346584 -1.75983,-0.938633 -3.51965,-0.469316 -4.69287,0.938634 -0.58661,0.469316 -0.58661,0.938633 -0.58661,1.40795 v 8.917018 c -9.38575,0.938633 -15.83846,8.447697 -14.66524,15.956761 0.58661,3.75454 2.93305,7.03976 7.03932,8.91702 l -39.30284,68.05094 c -1.75983,2.34659 -1.17322,5.16249 0.58661,7.50907 2.93305,3.28522 8.79914,4.22385 12.90541,1.87728 1.17322,-0.93864 2.34644,-1.87728 3.51966,-3.28523 l 26.39742,-45.52372 c 1.75983,-2.8159 6.45271,-4.22385 9.97236,-2.8159 q 2.63974,0.70397 3.51966,2.8159 l 26.98403,45.05441 c 2.34644,3.75454 7.62593,5.16248 12.3188,3.28521 4.69288,-1.87726 6.45271,-6.10112 4.10627,-9.85565 l -41.06266,-68.05094 c 7.62592,-4.69316 8.79914,-13.61018 2.93304,-19.711304 -1.17321,-1.407947 -4.10626,-3.285214 -8.21253,-4.223847 M 671.12652,26.426086 681.09888,12.8159 c 0.58661,-0.938633 0,-1.877267 -0.58661,-2.346584 -0.58661,-0.469316 -1.75983,0 -2.34644,0.469317 l -10.55897,14.079503 c -16.42506,-6.101118 -35.19657,-6.101118 -51.03502,0 L 606.59948,10.938633 C 606.01287,10.469316 605.42626,10 604.83965,10 c -0.58661,0 -1.17322,0.469316 -1.75983,0.938633 -0.58661,0.469318 -0.58661,1.407951 0,1.877267 l 9.97236,13.610186 c -16.42506,7.03975 -27.57064,19.711302 -29.91708,34.260121 H 702.21682 C 698.69716,46.137388 687.55158,33.465836 671.12652,26.426086 m -53.38146,22.057886 -0.58661,0.469316 c -1.17322,0.938635 -2.34644,0.938635 -3.51966,0.938635 -2.93305,0 -4.69288,-1.877268 -5.27948,-3.754535 q 0,-1.407949 1.75982,-2.8159 c 1.75983,-1.877267 4.69288,-1.877267 7.03932,-0.469317 2.34643,1.40795 2.93304,4.223851 0.58661,5.631801 m 51.62163,1.877267 c -2.93305,0 -5.27949,-1.407951 -5.27949,-3.754534 q 0,-1.40795 1.75983,-2.8159 c 1.75983,-1.407951 5.27949,-1.407951 7.03932,0 1.17321,0.938634 1.17321,1.877266 1.75982,2.8159 -0.58661,1.877267 -2.93304,3.754534 -5.27948,3.754534 m 50.44841,43.177154 h -7.62592 c -0.58661,0 -0.58661,0.469316 -0.58661,0.938633 v 99.495164 c 0,0.46931 0.58661,0.93863 1.17322,0.93863 h 8.21253 c 9.38575,0 17.01168,-6.10113 17.01168,-13.61019 V 86.498641 c 0,-3.754534 -0.58661,-0.938633 -1.17322,-0.469316 -3.51966,4.22385 -9.97236,7.509068 -17.01168,7.509068"
     id="path3"
     style="fill:#989c9f;fill-opacity:0.6;stroke-width:0.999995" />
  <ellipse
     cx="640.62286"
     cy="104.80193"
     fill="currentColor"
     id="circle3"
     style="fill:#989c9f;fill-opacity:0.6;stroke-width:0.999995"
     rx="5.8660946"
     ry="4.6931677" />
</svg>
