<?xml version="1.0" encoding="UTF-8" standalone="no"?>
<svg
   width="748"
   height="205"
   viewBox="0 0 748 205"
   version="1.1"
   id="svg9"
   sodipodi:docname="angular.svg"
   inkscape:version="1.3.2 (091e20e, 2023-11-25, custom)"
   xmlns:inkscape="http://www.inkscape.org/namespaces/inkscape"
   xmlns:sodipodi="http://sodipodi.sourceforge.net/DTD/sodipodi-0.dtd"
   xmlns="http://www.w3.org/2000/svg"
   xmlns:svg="http://www.w3.org/2000/svg">
  <sodipodi:namedview
     id="namedview9"
     pagecolor="#505050"
     bordercolor="#eeeeee"
     borderopacity="1"
     inkscape:showpageshadow="0"
     inkscape:pageopacity="0"
     inkscape:pagecheckerboard="0"
     inkscape:deskcolor="#505050"
     inkscape:zoom="0.8046875"
     inkscape:cx="375.92233"
     inkscape:cy="112.46602"
     inkscape:window-width="1920"
     inkscape:window-height="1009"
     inkscape:window-x="-8"
     inkscape:window-y="-8"
     inkscape:window-maximized="1"
     inkscape:current-layer="svg9" />
  <defs
     id="defs8">
    <linearGradient
       id="logosAngular0"
       x1="0"
       x2="1"
       y1="0.48064998"
       y2="0.50391001">
      <stop
         offset="0%"
         stop-color="#e847a3"
         id="stop1" />
      <stop
         offset="25.687%"
         stop-color="#da5af7"
         id="stop2" />
      <stop
         offset="33.759%"
         stop-color="#dd57f6"
         id="stop3" />
      <stop
         offset="56.442%"
         stop-color="#b848f4"
         id="stop4" />
      <stop
         offset="100%"
         stop-color="#8842f6"
         id="stop5" />
    </linearGradient>
    <linearGradient
       id="logosAngular1"
       x1="0.36615002"
       x2="0.33291999"
       y1="0.41655999"
       y2="1">
      <stop
         offset="0%"
         stop-color="#e03440"
         stop-opacity="0.2"
         id="stop6" />
      <stop
         offset="28.023%"
         stop-color="#e03440"
         stop-opacity="0.62"
         id="stop7" />
      <stop
         offset="100%"
         stop-color="#e03440"
         id="stop8" />
    </linearGradient>
  </defs>
  <path
     fill="url(#logosAngular0)"
     d="M 174.97731,40.393494 169.01966,138.04393 112.06219,10 Z M 135.52739,166.66074 92.488656,192.29565 49.451344,166.66223 58.204406,144.51685 H 126.77291 Z M 92.488656,58.605545 115.04102,115.83918 H 69.936297 Z M 15.896516,138.04393 10,40.393494 72.915125,10 Z M 687.33859,158.29388 V 65.566794 h 20.30011 v 15.454268 h 0.92422 q 2.42999,-8.028442 8.35778,-12.405568 5.9278,-4.377127 13.56043,-4.377127 1.7361,0 3.90446,0.151397 2.16836,0.151395 3.61441,0.452703 v 20.103018 q -1.32945,-0.48239 -4.19311,-0.875723 a 42.65625,44.528242 0 0 0 -5.52256,-0.393333 q -5.72447,0 -10.26594,2.567796 -4.54147,2.564826 -7.14208,7.091865 -2.60203,4.528522 -2.60203,10.44484 v 54.51295 z M 644.80036,64.358594 q 6.41976,0 12.78266,1.570362 6.36004,1.570363 11.6224,5.160824 5.26094,3.591945 8.47438,9.751685 3.20775,6.156771 3.20775,15.391931 v 62.060484 h -20.1238 v -12.73803 h -0.69387 q -1.90958,3.86505 -5.3491,7.21505 -3.44094,3.35149 -8.61656,5.37308 -5.17563,2.02158 -12.11722,2.02158 -8.44309,0 -15.18136,-3.16892 -6.73827,-3.16893 -10.63989,-9.38804 -3.90305,-6.21614 -3.90305,-15.33257 0,-7.84735 2.77408,-12.97997 a 21.470312,22.412549 0 0 1 7.57717,-8.21102 q 4.80025,-3.07838 10.84322,-4.67843 a 89.578125,93.509308 0 0 1 12.52103,-2.32438 l 2.60488,-0.28645 3.01864,-0.34733 q 3.84333,-0.45419 6.70414,-0.8579 l 0.33841,-0.0475 q 4.85712,-0.69316 7.08378,-2.17298 2.22523,-1.478337 2.22665,-4.619068 v -0.362163 q -10e-4,-6.821722 -3.87461,-10.563579 -3.87603,-3.744826 -11.16172,-3.744826 -7.69234,0 -12.17409,3.502889 -4.48175,3.502888 -6.04297,8.270378 L 607.1548,89.956396 q 2.31054,-8.451461 7.63262,-14.157012 5.32066,-5.705552 13.013,-8.573172 7.68808,-2.866134 17.00136,-2.867618 m 15.2098,49.745466 q -0.98252,0.84604 -3.32435,1.56888 a 49.765625,51.949616 0 0 1 -5.23392,1.26757 q -2.31339,0.43637 -4.58981,0.7926 l -1.56691,0.23749 -4.48459,0.6605 q -4.68366,0.66496 -8.38622,2.17446 -3.70256,1.50951 -5.84106,4.19605 -2.1385,2.68654 -2.13992,6.91226 0,6.03506 4.22154,9.11493 4.22297,3.07839 10.75791,3.07839 6.30175,0 10.92995,-2.62568 4.62678,-2.62717 7.14208,-6.97164 2.51672,-4.34744 2.51672,-9.47858 z m -80.19233,44.18982 h 20.93569 V 34.656773 H 579.81925 Z M 552.0287,119.29606 V 65.566794 h 20.93427 v 92.727086 h -20.29869 v -16.47989 h -0.92564 q -3.00727,7.78799 -9.8607,12.73805 -6.85344,4.95005 -16.85775,4.95005 -8.73174,0 -15.41313,-4.07582 -6.68139,-4.07581 -10.43656,-11.89201 -3.76086,-7.81767 -3.75944,-18.9245 V 65.565309 h 20.93427 v 55.660301 q 0,8.81659 4.62678,14.0071 4.62678,5.19051 12.14423,5.19051 4.62536,0 8.96493,-2.35406 4.33671,-2.35406 7.14207,-7.03249 2.71863,-4.53892 2.8011,-11.31611 z M 441.24758,64.358594 q 7.80609,0 12.86797,2.745908 5.05903,2.748877 8.06772,6.581275 3.00584,3.835366 4.56848,7.213575 h 1.15598 V 65.566794 h 20.64563 V 159.8034 q 0,11.89349 -5.43583,19.68148 -5.43583,7.78799 -14.86286,11.65155 Q 458.82764,195 446.8583,195 q -11.27974,0 -19.37447,-3.16893 -8.09758,-3.17189 -13.013,-8.48263 -4.914,-5.3137 -6.82358,-11.77326 l 18.85406,-4.76897 q 1.26974,2.71622 3.70114,5.40424 2.42857,2.68654 6.56338,4.46766 4.13623,1.78114 10.43798,1.78114 8.90663,0 14.74769,-4.49735 5.84106,-4.49884 5.84106,-14.76112 v -17.56787 h -1.04081 q -1.62094,3.37969 -4.71352,6.94195 -3.09542,3.56225 -8.15445,5.97718 -5.06187,2.41491 -12.6945,2.41491 -10.2375,0 -18.53414,-5.04208 -8.30091,-5.03912 -13.18647,-15.09062 -4.88698,-10.05151 -4.88698,-25.20596 0,-15.273183 4.88698,-25.807083 4.88699,-10.533899 13.21491,-15.998998 8.32792,-5.465099 18.564,-5.463615 m 5.78276,17.930038 q -6.99704,0 -11.68212,3.804197 -4.68366,3.802711 -7.05392,10.413674 -2.37311,6.609467 -2.37169,15.001567 0,8.51231 2.40012,14.88133 2.40013,6.36903 7.11222,9.90012 4.7121,3.53109 11.59539,3.53257 6.65011,0 11.33519,-3.38117 4.68508,-3.38119 7.11364,-9.71904 2.42856,-6.34082 2.42856,-15.21381 0,-8.75277 -2.3987,-15.332565 -2.40155,-6.581272 -7.05534,-10.234072 -4.65522,-3.651316 -11.42335,-3.651316 M 343.70553,103.96349 v 54.33039 H 322.77127 V 65.566794 h 20.01146 V 81.32237 h 1.0394 q 3.06414,-7.786506 9.8024,-12.374399 6.73684,-4.587893 16.6857,-4.589377 9.19385,0 16.04871,4.105504 6.85059,4.105503 10.63989,11.892009 3.69403,7.599486 3.731,18.357512 v 59.580261 h -20.93569 v -55.66029 q 0,-9.296017 -4.59834,-14.548865 -4.59835,-5.252848 -12.69308,-5.252848 -5.4927,0 -9.74553,2.505456 -4.25141,2.50694 -6.65011,7.213575 -2.3205,4.553752 -2.3987,10.965822 z M 279.36,34.656773 321.11336,158.29388 h -22.90072 l -9.81236,-30.48699 H 243.87 l -9.79388,30.48699 H 211.17398 L 252.87047,34.656773 Z m -12.77981,25.355864 h -0.92707 l -16.0032,49.804843 h 32.95906 z"
     id="path8"
     style="fill:#989c9f;fill-opacity:0.6;stroke-width:0.999999" />
</svg>
