<?xml version="1.0" encoding="UTF-8" standalone="no"?>
<svg
   width="748"
   height="205"
   viewBox="0 0 748 205"
   fill="none"
   version="1.1"
   id="svg9"
   sodipodi:docname="Monochrome_Horizontal_Lockup_Black.svg"
   inkscape:version="1.3.2 (091e20e, 2023-11-25, custom)"
   xmlns:inkscape="http://www.inkscape.org/namespaces/inkscape"
   xmlns:sodipodi="http://sodipodi.sourceforge.net/DTD/sodipodi-0.dtd"
   xmlns="http://www.w3.org/2000/svg"
   xmlns:svg="http://www.w3.org/2000/svg">
  <sodipodi:namedview
     id="namedview9"
     pagecolor="#505050"
     bordercolor="#eeeeee"
     borderopacity="1"
     inkscape:showpageshadow="0"
     inkscape:pageopacity="0"
     inkscape:pagecheckerboard="0"
     inkscape:deskcolor="#505050"
     inkscape:zoom="0.55080214"
     inkscape:cx="531.95146"
     inkscape:cy="122.54854"
     inkscape:window-width="1920"
     inkscape:window-height="1009"
     inkscape:window-x="-8"
     inkscape:window-y="-8"
     inkscape:window-maximized="1"
     inkscape:current-layer="svg9" />
  <path
     d="M707.176 161.385C699.944 161.385 693.405 159.701 687.56 156.332C681.814 152.964 677.306 148.308 674.037 142.364C670.767 136.32 669.133 129.584 669.133 122.153C669.133 115.02 670.668 108.482 673.74 102.537C676.91 96.4942 681.318 91.7388 686.965 88.2714C692.612 84.7049 699.052 82.9216 706.284 82.9216C713.714 82.9216 720.154 84.5563 725.603 87.8256C731.151 91.0949 735.361 95.6521 738.234 101.497C741.107 107.243 742.544 113.881 742.544 121.41C742.544 122.302 742.494 123.194 742.395 124.085C742.296 124.977 742.246 125.472 742.246 125.571H685.479C685.975 132.308 688.402 137.509 692.761 141.175C697.12 144.84 702.074 146.673 707.621 146.673C716.141 146.673 722.68 142.71 727.237 134.785L741.206 141.472C737.937 147.515 733.38 152.37 727.534 156.035C721.788 159.602 715.002 161.385 707.176 161.385ZM725.9 113.088C725.702 110.711 724.909 108.284 723.522 105.807C722.135 103.33 719.956 101.25 716.984 99.5654C714.111 97.7821 710.494 96.8905 706.135 96.8905C701.281 96.8905 697.07 98.3765 693.504 101.349C690.037 104.321 687.659 108.234 686.371 113.088H725.9Z"
     fill="#212121"
     id="path1"
     style="fill:#989c9f;fill-opacity:0.60000002" />
  <path
     d="M633.255 161.385C624.834 161.385 617.85 159.453 612.302 155.589C606.853 151.627 602.99 146.673 600.711 140.729L615.274 134.487C616.958 138.549 619.386 141.621 622.556 143.701C625.825 145.781 629.392 146.822 633.255 146.822C637.317 146.822 640.636 146.079 643.212 144.593C645.788 143.007 647.076 140.977 647.076 138.5C647.076 136.122 646.035 134.19 643.955 132.704C641.874 131.119 638.457 129.732 633.701 128.543L623.596 126.166C618.048 124.878 613.243 122.5 609.181 119.033C605.219 115.466 603.237 110.859 603.237 105.212C603.237 98.3765 606.061 92.9772 611.708 89.0144C617.355 84.9526 624.29 82.9216 632.512 82.9216C639.348 82.9216 645.391 84.3581 650.642 87.2312C655.992 90.1042 659.856 94.2651 662.233 99.714L647.819 105.807C646.432 102.736 644.302 100.457 641.429 98.9709C638.556 97.4849 635.435 96.7419 632.067 96.7419C628.797 96.7419 625.924 97.4849 623.447 98.9709C620.971 100.358 619.732 102.24 619.732 104.618C619.732 106.698 620.574 108.383 622.259 109.67C624.042 110.958 626.816 112.048 630.58 112.94L641.577 115.615C649.007 117.497 654.555 120.37 658.221 124.234C661.887 127.998 663.719 132.556 663.719 137.905C663.719 142.264 662.382 146.227 659.707 149.794C657.131 153.36 653.515 156.184 648.859 158.264C644.302 160.345 639.1 161.385 633.255 161.385Z"
     fill="#212121"
     id="path2"
     style="fill:#989c9f;fill-opacity:0.60000002" />
  <path
     d="M555.053 161.385C549.802 161.385 545.047 160.345 540.787 158.264C536.626 156.085 533.307 153.113 530.83 149.348C528.453 145.484 527.264 141.125 527.264 136.271C527.264 128.543 530.137 122.45 535.883 117.992C541.728 113.534 549.109 111.305 558.025 111.305C565.851 111.305 572.539 112.643 578.087 115.317V112.197C578.087 107.739 576.303 104.073 572.737 101.2C569.269 98.2279 565.059 96.7419 560.105 96.7419C552.576 96.7419 546.533 99.813 541.976 105.955L529.493 97.3363C532.96 92.68 537.27 89.1135 542.421 86.6368C547.672 84.16 553.567 82.9216 560.105 82.9216C570.904 82.9216 579.226 85.6461 585.071 91.0949C591.015 96.4447 593.987 104.024 593.987 113.831V159.007H578.087V149.942H577.195C574.817 153.311 571.796 156.085 568.13 158.264C564.464 160.345 560.105 161.385 555.053 161.385ZM557.728 147.862C561.393 147.862 564.762 146.97 567.833 145.187C571.003 143.305 573.48 140.877 575.263 137.905C577.145 134.834 578.087 131.565 578.087 128.097C572.836 125.224 567.238 123.788 561.294 123.788C555.845 123.788 551.585 124.977 548.514 127.354C545.443 129.732 543.907 132.754 543.907 136.419C543.907 139.788 545.245 142.562 547.92 144.741C550.694 146.822 553.963 147.862 557.728 147.862Z"
     fill="#212121"
     id="path3"
     style="fill:#989c9f;fill-opacity:0.60000002" />
  <path
     d="M486.469 161.385C481.119 161.385 476.314 160.246 472.054 157.967C467.893 155.688 464.773 152.815 462.692 149.348H461.801V159.007H446.346V52.6062H462.692V84.5562L461.801 94.8099H462.692C464.773 91.4416 467.893 88.6181 472.054 86.3395C476.314 84.0609 481.119 82.9216 486.469 82.9216C492.809 82.9216 498.655 84.6058 504.004 87.9741C509.453 91.3425 513.763 96.0483 516.933 102.092C520.202 108.036 521.837 114.723 521.837 122.153C521.837 129.583 520.202 136.271 516.933 142.215C513.763 148.159 509.453 152.865 504.004 156.332C498.655 159.701 492.809 161.385 486.469 161.385ZM483.645 146.376C487.509 146.376 491.076 145.385 494.345 143.404C497.713 141.422 500.388 138.599 502.37 134.933C504.45 131.169 505.49 126.909 505.49 122.153C505.49 117.398 504.45 113.187 502.37 109.522C500.388 105.757 497.713 102.884 494.345 100.903C491.076 98.9213 487.509 97.9306 483.645 97.9306C479.782 97.9306 476.166 98.9213 472.797 100.903C469.528 102.884 466.853 105.708 464.773 109.373C462.791 113.039 461.801 117.299 461.801 122.153C461.801 127.008 462.791 131.268 464.773 134.933C466.853 138.599 469.528 141.422 472.797 143.404C476.166 145.385 479.782 146.376 483.645 146.376Z"
     fill="#212121"
     id="path4"
     style="fill:#989c9f;fill-opacity:0.60000002" />
  <path
     d="M401.242 161.385C394.01 161.385 387.471 159.701 381.626 156.332C375.88 152.964 371.372 148.308 368.103 142.364C364.834 136.32 363.199 129.584 363.199 122.153C363.199 115.02 364.735 108.482 367.806 102.537C370.976 96.4942 375.385 91.7388 381.032 88.2714C386.679 84.7049 393.118 82.9216 400.35 82.9216C407.781 82.9216 414.22 84.5563 419.669 87.8256C425.217 91.0949 429.427 95.6521 432.3 101.497C435.173 107.243 436.61 113.881 436.61 121.41C436.61 122.302 436.56 123.194 436.461 124.085C436.362 124.977 436.313 125.472 436.313 125.571H379.546C380.041 132.308 382.468 137.509 386.827 141.175C391.186 144.84 396.14 146.673 401.688 146.673C410.208 146.673 416.746 142.71 421.304 134.785L435.273 141.472C432.003 147.515 427.446 152.37 421.601 156.035C415.855 159.602 409.069 161.385 401.242 161.385ZM419.966 113.088C419.768 110.711 418.976 108.284 417.589 105.807C416.202 103.33 414.022 101.25 411.05 99.5654C408.177 97.7821 404.561 96.8905 400.202 96.8905C395.347 96.8905 391.137 98.3765 387.57 101.349C384.103 104.321 381.725 108.234 380.437 113.088H419.966Z"
     fill="#212121"
     id="path5"
     style="fill:#989c9f;fill-opacity:0.60000002" />
  <path
     d="M317.832 85.2994H333.287V96.2961H334.179C335.764 92.5315 338.637 89.4108 342.798 86.934C346.959 84.3582 351.219 83.0703 355.578 83.0703C359.144 83.0703 362.067 83.5657 364.345 84.5564V101.646C360.977 99.9617 357.212 99.1196 353.051 99.1196C347.702 99.1196 343.194 101.2 339.528 105.361C335.962 109.423 334.179 114.426 334.179 120.37V159.007H317.832V85.2994Z"
     fill="#212121"
     id="path6"
     style="fill:#989c9f;fill-opacity:0.60000002" />
  <path
     d="M294.503 72.8165C291.431 72.8165 288.806 71.7763 286.627 69.6958C284.546 67.5163 283.506 64.8909 283.506 61.8197C283.506 58.7486 284.546 56.1728 286.627 54.0923C288.806 51.9128 291.431 50.823 294.503 50.823C297.574 50.823 300.15 51.9128 302.23 54.0923C304.41 56.1728 305.499 58.7486 305.499 61.8197C305.499 64.8909 304.41 67.5163 302.23 69.6958C300.15 71.7763 297.574 72.8165 294.503 72.8165ZM286.329 85.2993H302.676V159.007H286.329V85.2993Z"
     fill="#212121"
     id="path7"
     style="fill:#989c9f;fill-opacity:0.60000002" />
  <path
     d="M211.871 52.6062H276.514V68.5069H228.515V99.1195H271.759V114.872H228.515V159.007H211.871V52.6062Z"
     fill="#212121"
     id="path8"
     style="fill:#989c9f;fill-opacity:0.60000002" />
  <g
     clip-path="url(#clip0_60_3833)"
     id="g9"
     style="fill:#989c9f;fill-opacity:0.60000002">
    <path
       d="M140.54 68.9888C136.097 62.8248 125.882 50.1504 110.191 31.322C103.38 23.1552 97.5371 16.2232 94.6609 12.8199C93.0747 10.9426 91.7144 9.33637 90.6402 8.06643L88.9285 6.04857L87.9999 4.9543L87.8192 4.68827L87.7389 4.65313L83.7785 0L78.7589 4.02568C65.944 14.2907 55.4481 27.5222 48.4157 42.2697C44.1039 51.0439 41.2879 59.6223 39.8122 68.4567C39.4257 70.4445 39.0944 72.4874 38.8183 74.5354C37.0966 74.3948 35.3448 74.3045 33.608 74.2643C33.4624 74.2543 33.3169 74.2493 33.1211 74.2443C26.7613 74.0234 20.4367 74.7813 14.3279 76.5031L11.7127 77.2359L10.3674 79.5951C4.06288 90.6532 0.493977 103.242 0.0472363 115.997C-0.530013 132.561 3.98257 148.594 13.0981 162.363C22.0178 175.83 34.6169 186.125 49.535 192.134L51.4776 192.917L52.0649 193.122L52.09 193.112C59.8603 195.933 68.0171 197.509 76.3345 197.796C77.2781 197.831 78.2168 197.846 79.1554 197.846C89.6513 197.846 99.8712 195.793 109.569 191.732L109.639 191.762L112.219 190.567C125.3 184.519 136.494 175.012 144.59 163.07C152.918 150.787 157.596 136.416 158.118 121.513C158.741 103.699 152.822 86.0302 140.535 68.9938L140.54 68.9888ZM82.1471 124.184C84.8526 134.439 84.3206 144.292 80.576 153.513C71.2195 144.277 64.3578 134.123 60.1715 123.3C55.689 111.725 52.9935 100.712 52.1402 90.5277C56.1006 91.8278 59.7398 93.5445 62.9824 95.6577C72.3088 101.736 78.7589 111.334 82.1471 124.189V124.184ZM83.8538 173.827C87.8292 176.854 92.0105 179.69 96.3223 182.3C89.9726 184.027 83.4221 184.785 76.7963 184.549C75.7723 184.514 74.7483 184.454 73.7193 184.368C77.494 181.116 80.8872 177.587 83.8487 173.827H83.8538ZM94.957 120.806C90.7004 104.673 82.373 92.4753 70.2106 84.5544C64.8748 81.0809 58.7961 78.4456 52.1201 76.7239C52.2155 75.6146 52.336 74.5103 52.4765 73.4261C52.597 72.4975 52.7225 71.6441 52.858 70.846C53.9573 65.1689 55.5936 59.552 57.7119 54.156C58.5251 52.0879 59.4135 50.0349 60.3572 48.0522L60.3923 47.9819C61.848 45.0355 63.4894 42.0589 65.4219 38.8765L66.1799 37.6266L66.1548 37.6115C70.6423 30.5992 76.0182 24.2043 82.1672 18.5673L84.5414 21.3733C90.078 27.9338 95.2833 34.138 100.017 39.8151C110.663 52.5849 124.467 69.3552 129.793 76.749C140.324 91.3459 145.399 106.249 144.882 121.057C144.48 132.556 141.077 143.77 135.033 153.478C129.311 162.679 121.34 170.379 111.948 175.8C106.708 173.185 99.0981 168.883 91.0167 162.624C97.532 149.638 98.8622 135.578 94.962 120.806H94.957ZM73.7293 165.299C67.756 173.039 60.6483 178.074 56.5022 180.604C55.8296 180.358 55.1569 180.102 54.4944 179.831L53.9623 179.62C41.6794 174.545 31.3191 165.967 24.0006 154.803C16.5214 143.394 12.817 130.132 13.2938 116.449C13.6352 106.64 16.0797 97.269 20.5672 88.5901C23.1723 88.0129 25.8277 87.6515 28.483 87.516L29.1707 87.5009C30.5109 87.4708 31.8461 87.4708 33.1161 87.5009C34.9833 87.5862 36.8556 87.782 38.6978 88.0782C39.3002 100.547 42.3621 113.999 47.8083 128.074C53.0537 141.622 61.7677 154.136 73.7243 165.294L73.7293 165.299Z"
       fill="#212121"
       id="path9"
       style="fill:#989c9f;fill-opacity:0.60000002" />
  </g>
  <defs
     id="defs9">
    <clipPath
       id="clip0_60_3833">
      <rect
         width="158.171"
         height="197.841"
         fill="white"
         transform="translate(-0.00195312)"
         id="rect9" />
    </clipPath>
  </defs>
</svg>
