<?xml version="1.0" encoding="UTF-8" standalone="no"?>
<svg
   height="205"
   viewBox="-0.6 -0.1 604.22782 165.64146"
   width="748"
   version="1.1"
   id="svg7"
   sodipodi:docname="google-maps.svg"
   inkscape:version="1.3.2 (091e20e, 2023-11-25, custom)"
   xmlns:inkscape="http://www.inkscape.org/namespaces/inkscape"
   xmlns:sodipodi="http://sodipodi.sourceforge.net/DTD/sodipodi-0.dtd"
   xmlns="http://www.w3.org/2000/svg"
   xmlns:svg="http://www.w3.org/2000/svg">
  <defs
     id="defs7" />
  <sodipodi:namedview
     id="namedview7"
     pagecolor="#505050"
     bordercolor="#eeeeee"
     borderopacity="1"
     inkscape:showpageshadow="0"
     inkscape:pageopacity="0"
     inkscape:pagecheckerboard="0"
     inkscape:deskcolor="#505050"
     inkscape:zoom="1.0229143"
     inkscape:cx="450.67316"
     inkscape:cy="3.4215967"
     inkscape:window-width="1920"
     inkscape:window-height="1009"
     inkscape:window-x="-8"
     inkscape:window-y="-8"
     inkscape:window-maximized="1"
     inkscape:current-layer="svg7" />
  <path
     d="m 355.4996,94.620816 19.81894,-7.848556 c -1.10105,-2.646624 -4.35634,-4.471909 -8.23395,-4.471909 -4.95474,-0.02253 -11.82435,4.15248 -11.58499,12.320465 m 23.26571,7.597654 7.56378,4.79134 c -2.44148,3.44516 -8.30577,9.3772 -18.47856,9.3772 -12.59029,0 -21.68596,-9.28597 -21.68596,-21.127323 0,-12.571469 9.16747,-21.12732 20.60884,-21.12732 10.50787,0.342156 17.04239,6.799013 19.98652,15.83407 l -29.68057,11.681673 c 2.27392,4.2437 5.7925,6.41124 10.74724,6.41124 4.9308,0 8.37757,-2.32728 10.89085,-5.84088 m -48.11121,12.8909 h 9.74191 V 53.050563 h -9.74191 z M 314.71276,95.328124 c 0,-7.437887 -5.21805,-12.890901 -11.84828,-12.890901 -6.70207,0 -12.35093,5.453014 -12.35093,12.890901 0,7.369536 5.62493,12.731226 12.35093,12.731226 6.65419,0 11.84828,-5.36169 11.84828,-12.731226 z m 8.56907,-19.918117 v 37.874063 c 0,15.60599 -9.64618,22.01722 -21.06361,22.01722 -10.74724,0 -17.20994,-6.89035 -19.65141,-12.48023 l 8.47333,-3.35384 c 1.50796,3.44519 5.21803,7.52912 11.17808,7.52912 10.89085,-1.17956 11.84828,-7.89415 11.84828,-15.4462 h -0.35905 c -2.17818,2.55529 -6.39089,4.81406 -11.68073,4.81406 -11.08233,0 -21.25512,-9.19472 -21.25512,-21.058892 0,-11.932599 10.14883,-21.218662 21.25512,-21.218662 5.28984,0 9.50255,2.235954 11.68073,4.722914 h 0.33512 v -3.445172 c 0,-0.02253 9.23926,-0.02253 9.23926,-0.02253 z m -106.27554,19.84968 c 0,-7.59764 -5.69673,-12.799659 -12.27912,-12.799659 -6.60632,0 -12.27914,5.202019 -12.27914,12.799659 0,7.529203 5.69677,12.799663 12.27914,12.799663 6.58239,0 12.27912,-5.29326 12.27912,-12.799663 m 9.57436,0 c 0,12.160803 -9.81372,21.127323 -21.85348,21.127323 -12.03978,0 -21.85352,-8.96652 -21.85352,-21.127323 0,-12.252028 9.81374,-21.12732 21.85352,-21.12732 12.03976,0 21.85348,8.875292 21.85348,21.12732 m 39.4943,0 c 0,-7.59764 -5.69675,-12.799659 -12.27913,-12.799659 -6.60632,0 -12.27913,5.202019 -12.27913,12.799659 0,7.529203 5.69676,12.799663 12.27913,12.799663 6.58238,0 12.27913,-5.29326 12.27913,-12.799663 m 9.57439,0 c 0,12.160803 -9.81374,21.127323 -21.85352,21.127323 -12.03978,0 -21.85352,-8.96652 -21.85352,-21.127323 0,-12.252028 9.81374,-21.12732 21.85352,-21.12732 12.03978,0 21.85352,8.875292 21.85352,21.12732 M 145.43787,116.38701 c -18.95726,0 -34.94646,-14.7389 -34.94646,-32.854625 0,-18.092831 15.96525,-32.854638 34.94646,-32.854638 10.50787,0 17.97587,3.92428 23.60081,9.057866 l -6.63025,6.319906 c -4.02122,-3.604846 -9.4786,-6.411145 -16.97056,-6.411145 -13.8589,0 -24.65402,10.654944 -24.65402,23.728335 0,13.210252 10.84298,23.728331 24.65402,23.728331 8.97596,0 14.09826,-3.44517 17.37748,-6.5709 2.68082,-2.555393 4.45209,-6.251559 5.12228,-11.293825 h -22.49976 v -8.966532 h 31.59542 c 0.33511,1.597083 0.50266,3.513607 0.50266,5.589796 0,6.730667 -1.93883,15.058421 -8.13822,20.967661 -6.03185,6.04617 -13.76314,9.26324 -23.93593,9.26324"
     fill="#5f6368"
     fill-rule="evenodd"
     id="path1"
     style="fill:#989c9f;fill-opacity:0.6;stroke-width:0.999985" />
  <path
     d="M 409.62829,114.63936 V 59.469553 h 7.47473 l 20.10092,33.602605 h 0.30302 l 20.10092,-33.602605 h 7.47472 v 55.169807 h -7.47232 l 0.30302,-41.97912 h -0.30302 l -18.08074,30.23271 h -4.3434 L 417.10541,72.66024 h -0.30303 c 0.55149,13.963258 0.30303,28.01821 0.30303,41.97912 z m 78.78752,0.96282 c -4.24241,0 -7.67673,-1.15542 -10.50499,-3.46618 -2.82827,-2.3108 -4.24242,-5.3918 -4.24242,-9.14912 0,-4.140115 1.71717,-7.317412 5.05048,-9.628198 3.33332,-2.310787 7.47475,-3.466185 12.32318,-3.466185 4.34342,0 7.97978,0.770326 10.70703,2.310785 -0.0726,-8.008321 -5.87868,-10.205952 -10.404,-10.205952 -4.27256,0.193482 -7.97976,1.896681 -9.49491,5.488095 l -6.76763,-2.792145 c 0.90909,-2.214502 2.72725,-4.33496 5.45452,-6.258332 2.72723,-1.92337 6.26259,-2.88853 10.707,-2.88853 5.0505,0 9.29291,1.444265 12.6262,4.23641 3.33334,2.792246 5.0505,6.836074 5.0505,11.939096 v 22.818896 h -7.07068 v -5.19922 c -3.30316,3.94754 -7.76769,6.17158 -13.43428,6.25833 z m 13.33328,-17.523388 c -4.35349,-3.158096 -13.43429,-3.55282 -17.67668,-0.288877 -3.33333,3.081115 -3.68687,7.211665 -0.20203,9.628315 8.42425,5.15107 18.18173,-2.86933 17.87871,-9.339438 z m 36.16144,17.523388 c -3.0303,0 -5.75753,-0.57765 -8.08076,-1.82934 -2.32324,-1.25169 -4.14139,-2.79224 -5.35351,-4.62157 h -0.40404 l 0.30302,5.19925 v 16.65685 h -7.37369 V 76.607875 h 7.07067 v 5.199215 h 0.30302 c 1.21212,-1.829327 2.92928,-3.369888 5.35353,-4.621572 2.42423,-1.251685 5.15146,-1.829328 8.08075,-1.829328 5.1515,0 9.4949,1.925624 13.23226,5.776871 3.73737,3.851338 5.55314,8.665493 5.55314,14.346078 0,5.680681 -1.81817,10.494821 -5.55314,14.346061 -3.63633,3.85135 -8.08076,5.77698 -13.13125,5.77698 z m -1.21212,-6.54721 c 3.43431,0 6.36362,-1.25167 8.88885,-3.75496 2.52522,-2.50336 3.73735,-5.776953 3.73735,-9.917066 0,-4.140215 -1.21213,-7.41382 -3.73735,-9.917086 -2.52523,-2.50337 -5.45454,-3.755052 -8.88885,-3.755052 -3.53532,0 -6.46462,1.251682 -8.88886,3.658755 -2.42423,2.503278 -3.63632,5.77687 -3.63632,9.917086 0,4.140125 1.21209,7.510003 3.63632,9.917073 2.42424,2.69587 5.35354,3.85125 8.88886,3.85125 z m 41.61598,6.54721 c -4.44443,0 -8.08078,-1.05911 -10.90904,-3.08103 -2.92928,-2.02189 -4.94947,-4.62156 -6.36363,-7.70259 l 6.66667,-2.59965 c 2.12117,4.71788 5.65653,7.12493 10.70699,7.12493 2.32324,0 4.2424,-0.47908 5.65653,-1.44425 1.51516,-0.9628 2.22224,-2.21449 2.22224,-3.85127 0,-2.50334 -1.81818,-4.14019 -5.45453,-5.006722 l -7.97976,-1.829327 c -2.52525,-0.577745 -4.94948,-1.829327 -7.17168,-3.466174 -2.22221,-1.636758 -3.43434,-4.043829 -3.43434,-6.93236 0,-3.36989 1.51515,-6.065749 4.64646,-8.087659 3.1313,-2.118203 6.76762,-3.081111 11.01003,-3.081111 3.53535,0 6.66665,0.770325 9.39391,2.310786 2.72727,1.540551 4.74744,3.658755 5.85855,6.547197 l -6.4646,2.503369 c -1.41413,-3.369891 -4.44444,-5.006646 -9.09086,-5.006646 -2.22222,0 -4.0404,0.479105 -5.55315,1.347889 -1.51274,0.868864 -2.22223,2.021999 -2.22223,3.562471 0,2.118193 1.71717,3.658756 5.25252,4.42898 l 7.87875,1.733145 c 3.73735,0.86652 6.46463,2.214489 8.28279,4.236398 1.81817,2.02192 2.62626,4.236424 2.62626,6.739764 0,3.36991 -1.41415,6.25836 -4.34342,8.47283 -2.82828,1.92561 -6.56563,3.08103 -11.21207,3.08103 z"
     fill="#63666a"
     id="path2"
     style="fill:#989c9f;fill-opacity:0.6;stroke-width:0.999985" />
  <path
     d="m 25.87478,107.04186 c 3.577504,3.89729 7.22109,8.7977 9.127835,11.75767 2.322076,3.84798 3.284889,6.44617 5.012286,11.0999 1.010012,2.54888 1.972821,3.32175 3.99284,3.32175 2.208805,0 3.218814,-1.2991 3.992837,-3.32175 1.61413,-4.36595 2.860122,-7.6877 4.832942,-10.85323 7.608106,-12.49767 20.011393,-21.377598 26.996503,-33.546379 0,0 4.59695,-7.432824 4.59695,-17.842066 0,-9.702138 -4.53088,-16.444302 -4.53088,-16.444302 L 25.903097,107.12408 Z"
     fill="#34a853"
     id="path3"
     style="stroke-width:0.999996" />
  <path
     d="M 7.5624652,84.184278 C 11.914003,92.817535 20.211179,100.38191 25.87478,107.04186 L 55.891862,76.044349 c 0,0 -4.238262,4.834624 -11.893561,4.834624 -8.533159,0 -15.480507,-5.919948 -15.480507,-13.402105 0,-5.147067 3.520869,-8.71548 3.520869,-8.71548 C 9.9506192,61.622696 11.177734,66.284656 7.4963942,84.167834 Z"
     fill="#fbbc04"
     id="path4"
     style="stroke-width:0.999996" />
  <path
     d="m 56.269436,33.840049 c 10.005698,2.803753 18.501097,8.71548 23.598337,17.348738 L 55.891862,76.101903 c 0,0 3.520874,-3.584857 3.520874,-8.71548 0,-7.638377 -7.400439,-13.402105 -15.386118,-13.402105 -7.579787,0 -11.893561,4.77707 -11.893561,4.77707 1.840673,-3.650635 20.86093,-23.679795 24.164696,-24.913117 z"
     fill="#4285f4"
     id="path5"
     style="stroke-width:0.999996" />
  <path
     d="m 13.037283,44.800176 c 5.965658,-6.183058 16.424442,-12.579891 30.866623,-12.579891 6.975671,0 12.27114,1.611542 12.27114,1.611542 L 32.10474,58.744943 C 30.481175,57.977816 14.641971,47.233933 13.037283,44.767287 Z"
     fill="#1a73e8"
     id="path6"
     style="stroke-width:0.999996" />
  <path
     d="m 7.5624652,84.184278 c 0,0 -3.936201,-6.807941 -3.936201,-16.608745 0,-9.29103 4.172186,-17.430959 9.4393368,-22.693136 L 32.133057,58.860054 7.5907882,84.184278 Z"
     fill="#ea4335"
     id="path7"
     style="stroke-width:0.999996" />
</svg>
