<?xml version="1.0" encoding="UTF-8" standalone="no"?>
<svg
   width="748"
   height="205"
   version="1.1"
   id="svg5"
   sodipodi:docname="w3_html5.svg"
   inkscape:version="1.3.2 (091e20e, 2023-11-25, custom)"
   xmlns:inkscape="http://www.inkscape.org/namespaces/inkscape"
   xmlns:sodipodi="http://sodipodi.sourceforge.net/DTD/sodipodi-0.dtd"
   xmlns="http://www.w3.org/2000/svg"
   xmlns:svg="http://www.w3.org/2000/svg">
  <defs
     id="defs5" />
  <sodipodi:namedview
     id="namedview5"
     pagecolor="#505050"
     bordercolor="#eeeeee"
     borderopacity="1"
     inkscape:showpageshadow="0"
     inkscape:pageopacity="0"
     inkscape:pagecheckerboard="0"
     inkscape:deskcolor="#505050"
     inkscape:zoom="0.85833333"
     inkscape:cx="384.46602"
     inkscape:cy="91.456311"
     inkscape:window-width="1920"
     inkscape:window-height="1009"
     inkscape:window-x="-8"
     inkscape:window-y="-8"
     inkscape:window-maximized="1"
     inkscape:current-layer="svg5" />
  <path
     d="m 98.27,58.459149 h 29.26631 v 28.979379 h 26.76584 V 58.459149 h 29.26631 v 87.761701 h -29.26631 v -29.33969 h -26.76584 v 29.33969 H 98.27 Z m 123.77596,29.10806 H 196.23513 V 58.464294 h 80.79555 V 87.567209 H 251.25579 V 146.23115 H 221.98948 V 87.567209 Z m 67.81055,-29.10806 h 30.51398 l 18.77152,30.883887 18.75097,-30.883887 h 30.47291 V 146.22085 H 359.2228 v -43.50509 l -20.127,31.20816 h -0.5032 L 318.53747,102.7209 v 43.5051 h -28.62964 z m 113.11173,0 h 29.26631 v 58.808061 h 41.15254 v 29.01027 h -70.41372 z"
     id="path1"
     style="fill:#989c9f;fill-opacity:0.6;stroke-width:1" />
  <path
     id="path2"
     style="fill:#989c9f;fill-opacity:0.6;stroke-width:1"
     d="M 487.30816,10 502.08974,176.22206 568.42629,194.68 634.94341,176.19189 649.745,10 Z m 81.20842,33.93005 h 50.94326 l -1.82515,20.428404 h -49.04793 -0.0703 -28.75087 l 1.86525,20.880802 26.83545,0.01026 v -0.02001 h 47.26294 l -0.49145,5.479076 -4.77342,53.654718 -0.31139,3.45836 -41.61702,11.56135 v 0.0303 l -0.10003,0.02 -41.64713,-11.59151 -2.85804,-32.01991 9.47665,-0.04 h 11.00094 l 1.44406,16.26632 22.59357,6.18281 0.0205,-0.0103 v -0.0303 l 22.68378,-6.13254 2.35667,-26.44031 h -24.9201 v 0.0103 h -45.5081 l -5.47539,-61.647556 h 50.91321 z" />
</svg>
