<?xml version="1.0" encoding="UTF-8" standalone="no"?>
<svg
   width="748"
   height="205"
   version="1.1"
   id="svg3"
   sodipodi:docname="javaFx.svg"
   inkscape:version="1.3.2 (091e20e, 2023-11-25, custom)"
   xmlns:inkscape="http://www.inkscape.org/namespaces/inkscape"
   xmlns:sodipodi="http://sodipodi.sourceforge.net/DTD/sodipodi-0.dtd"
   xmlns="http://www.w3.org/2000/svg"
   xmlns:svg="http://www.w3.org/2000/svg">
  <defs
     id="defs3" />
  <sodipodi:namedview
     id="namedview3"
     pagecolor="#505050"
     bordercolor="#eeeeee"
     borderopacity="1"
     inkscape:showpageshadow="0"
     inkscape:pageopacity="0"
     inkscape:pagecheckerboard="0"
     inkscape:deskcolor="#505050"
     inkscape:zoom="0.85833333"
     inkscape:cx="252.81553"
     inkscape:cy="249.90291"
     inkscape:window-width="1920"
     inkscape:window-height="1009"
     inkscape:window-x="-8"
     inkscape:window-y="-8"
     inkscape:window-maximized="1"
     inkscape:current-layer="svg3" />
  <path
     d="m 76.539894,153.02004 c 0,0 -9.74536,4.32334 6.783702,5.56202 19.854734,1.84999 30.499064,1.54434 52.526784,-1.54433 0,0 5.92883,2.77498 13.98103,4.9467 -49.56511,15.44337 -112.256406,-0.92499 -73.285996,-8.95635 z m -6.35351,-20.07637 c 0,0 -10.58918,5.87169 5.92884,7.10636 21.603052,1.54433 38.606406,1.84998 67.781826,-2.46933 0,0 3.80549,3.08867 10.16453,4.63301 -59.729634,12.97403 -126.662126,1.23466 -83.875196,-9.26602 z m 116.922266,35.21409 c 0,0 7.20286,4.32333 -8.05219,7.72168 -28.38123,6.17734 -119.034586,8.03135 -144.454156,0 -8.89602,-2.77498 8.0522,-6.83691 13.55637,-7.41201 5.5152,-0.925 8.47135,-0.925 8.47135,-0.925 -9.73985,-4.9467 -64.8146479,10.19504 -27.96207,14.47816 101.242556,12.04502 184.693056,-5.25235 158.429666,-13.89903 z M 81.194726,111.93828 c 0,0 -46.173262,8.03135 -16.523542,10.81035 12.70702,1.23467 37.701926,0.92499 60.998136,-0.30967 19.06053,-1.23467 38.12658,-3.70802 38.12658,-3.70802 0,0 -6.78371,2.16368 -11.43853,4.32334 -47.02259,8.95635 -137.251298,4.9467 -111.407066,-4.32334 22.02771,-7.72168 40.244422,-6.8369 40.244422,-6.8369 z m 82.606694,33.66975 c 47.44175,-17.91672 25.41404,-35.21409 10.1645,-33.05041 -3.80548,0.61934 -5.51519,1.23466 -5.51519,1.23466 0,0 1.2685,-1.84998 4.23568,-2.46933 30.07439,-7.72168 53.80078,23.16505 -9.74537,35.21409 0,0 0.42468,-0.30967 0.84934,-0.92499 z m -77.940824,48.80345 c 45.748594,2.16368 115.653764,-1.23467 117.341424,-16.98771 0,0 -3.38634,6.17735 -37.70192,10.81036 -38.97041,5.25235 -87.261516,4.63301 -115.653776,1.23467 0,0 5.92884,3.70801 36.014272,4.9467 z"
     fill="#4e7896"
     id="path1"
     style="fill:#989c9f;fill-opacity:0.6;stroke-width:0.999999" />
  <path
     d="m 134.99551,10 c 0,0 26.2634,19.465075 -24.99488,48.807469 -41.088256,23.784391 -9.37584,37.37777 0,52.821131 C 85.855076,95.875567 68.487704,81.976539 80.345386,68.998481 97.718276,49.8471 145.57919,40.581081 134.99001,10 Z m -13.55636,88.654569 c 12.28235,10.195031 -3.39184,19.465071 -3.39184,19.465071 0,0 31.3484,-11.74339 16.9427,-26.261761 -13.12618,-13.899028 -23.29622,-20.695718 31.76755,-43.864787 0,0 -86.842354,15.753036 -45.32393,50.657455 z"
     fill="#f58219"
     id="path2"
     style="fill:#989c9f;fill-opacity:0.6;stroke-width:0.999999" />
  <path
     d="M 375.42714,137.65462 V 90.693111 c 0,-11.984695 -9.19935,-20.124636 -32.19775,-20.124636 -13.14272,0 -24.32204,2.396939 -34.17218,5.26844 l 3.28707,8.626567 c 7.2249,-1.918355 16.43529,-3.832689 26.28544,-3.832689 12.48641,0 18.39871,3.832689 18.39871,11.50209 v 6.23365 h -6.51897 c -31.54695,0 -45.99678,8.626567 -45.99678,22.521577 0,11.50209 9.85567,18.2103 27.59807,18.2103 11.1738,0 19.71684,-3.83269 27.59807,-8.62657 l 1.31261,7.1868 h 14.44983 z M 357.0174,122.32386 c -6.56308,4.31127 -13.79903,6.70821 -20.37314,6.70821 -8.54857,0 -13.79905,-3.83269 -13.79905,-10.53688 0,-6.70419 5.25599,-11.50209 26.28546,-11.50209 h 7.88673 v 15.33478 z m 80.16897,15.33478 h -22.9984 L 386.59542,72.012269 h 19.71685 l 17.0861,40.257321 3.94336,11.98469 c 8.54857,-17.25313 15.11167,-34.980833 17.74241,-52.229946 h 19.71134 c -5.256,21.564407 -14.44985,45.043156 -27.59808,65.646366 z m 106.45441,0 V 90.693111 c 0,-11.984695 -9.19936,-20.124636 -32.20878,-20.124636 -13.14272,0 -24.31101,2.396939 -34.17219,5.26844 l 2.63075,8.626567 c 7.88673,-1.918355 17.08609,-3.832689 26.94176,-3.832689 12.48641,0 18.39871,3.832689 18.39871,11.50209 v 6.23365 h -6.56309 c -31.54695,0 -45.99678,8.626567 -45.99678,22.521577 0,11.50209 9.19937,18.2103 26.94176,18.2103 11.83011,0 20.37315,-3.83269 28.25439,-8.62657 l 1.3126,7.1868 h 14.44984 z m -18.39872,-15.33478 c -6.56308,4.31127 -13.79903,6.70821 -20.37315,6.70821 -8.54857,0 -13.79903,-3.83269 -13.79903,-10.53688 0,-6.70419 5.25598,-11.50209 26.28543,-11.50209 h 7.88675 v 15.33478 z m -241.16871,26.35426 c -5.25598,5.75105 -13.14272,10.06232 -22.99839,12.45926 L 252.5264,153.472 c 6.57413,-2.87552 13.14272,-7.18679 15.77348,-11.01948 2.63075,-3.35411 3.28706,-8.14799 3.28706,-19.16747 V 48.525484 h 19.71683 v 73.798376 c 0,14.8562 -1.97445,20.60322 -7.2249,26.35426 z"
     fill="#4e7896"
     id="path3"
     style="fill:#989c9f;fill-opacity:0.6;stroke-width:0.999999" />
  <text
     xml:space="preserve"
     style="font-style:italic;font-variant:normal;font-weight:600;font-stretch:normal;font-size:157.327px;font-family:'Segoe UI';-inkscape-font-specification:'Segoe UI, Semi-Bold Italic';font-variant-ligatures:normal;font-variant-caps:normal;font-variant-numeric:normal;font-variant-east-asian:normal;fill:#989c9f;fill-opacity:0.6;stroke-width:2.29795;stroke-linecap:round;stroke-linejoin:round;paint-order:fill markers stroke"
     x="496.24115"
     y="157.2906"
     id="text1"
     transform="scale(1.1157668,0.89624463)"><tspan
       sodipodi:role="line"
       id="tspan1"
       x="496.24115"
       y="157.2906"
       style="font-style:italic;font-variant:normal;font-weight:600;font-stretch:normal;font-size:157.327px;font-family:'Segoe UI';-inkscape-font-specification:'Segoe UI, Semi-Bold Italic';font-variant-ligatures:normal;font-variant-caps:normal;font-variant-numeric:normal;font-variant-east-asian:normal;stroke-width:2.29795">Fx</tspan></text>
</svg>
