<?xml version="1.0" encoding="UTF-8" standalone="no"?>
<svg
   width="748"
   height="205"
   viewBox="0 0 748 205"
   version="1.1"
   id="svg70"
   sodipodi:docname="logos--maven.svg"
   inkscape:version="1.3.2 (091e20e, 2023-11-25, custom)"
   xmlns:inkscape="http://www.inkscape.org/namespaces/inkscape"
   xmlns:sodipodi="http://sodipodi.sourceforge.net/DTD/sodipodi-0.dtd"
   xmlns="http://www.w3.org/2000/svg"
   xmlns:svg="http://www.w3.org/2000/svg">
  <sodipodi:namedview
     id="namedview70"
     pagecolor="#505050"
     bordercolor="#eeeeee"
     borderopacity="1"
     inkscape:showpageshadow="0"
     inkscape:pageopacity="0"
     inkscape:pagecheckerboard="0"
     inkscape:deskcolor="#505050"
     inkscape:zoom="0.56899999"
     inkscape:cx="254.83305"
     inkscape:cy="210.01758"
     inkscape:window-width="1920"
     inkscape:window-height="1009"
     inkscape:window-x="-8"
     inkscape:window-y="-8"
     inkscape:window-maximized="1"
     inkscape:current-layer="g70" />
  <defs
     id="defs54">
    <linearGradient
       id="logosMaven0"
       x1="3.3139136"
       x2="22.264458"
       y1="9.5932655"
       y2="3.0007093"
       gradientTransform="scale(0.96816252,1.0328844)"
       gradientUnits="userSpaceOnUse">
      <stop
         offset="0%"
         stop-color="#f69923"
         id="stop1" />
      <stop
         offset="31.23%"
         stop-color="#f79a23"
         id="stop2" />
      <stop
         offset="83.83%"
         stop-color="#e97826"
         id="stop3" />
    </linearGradient>
    <linearGradient
       id="logosMaven1"
       x1="3.043714"
       x2="7.5778379"
       y1="64.138977"
       y2="9.3260374"
       gradientTransform="scale(0.57303691,1.7450883)"
       gradientUnits="userSpaceOnUse">
      <stop
         offset="32.33%"
         stop-color="#9e2064"
         id="stop4" />
      <stop
         offset="63.02%"
         stop-color="#c92037"
         id="stop5" />
      <stop
         offset="75.14%"
         stop-color="#cd2335"
         id="stop6" />
      <stop
         offset="100%"
         stop-color="#e97826"
         id="stop7" />
    </linearGradient>
    <linearGradient
       id="logosMaven2"
       x1="32.657513"
       x2="37.520657"
       y1="74.154991"
       y2="22.908978"
       gradientTransform="scale(0.67983846,1.4709377)"
       gradientUnits="userSpaceOnUse">
      <stop
         offset="0%"
         stop-color="#282662"
         id="stop8" />
      <stop
         offset="9.548%"
         stop-color="#662e8d"
         id="stop9" />
      <stop
         offset="78.82%"
         stop-color="#9f2064"
         id="stop10" />
      <stop
         offset="94.87%"
         stop-color="#cd2032"
         id="stop11" />
    </linearGradient>
    <linearGradient
       id="logosMaven3"
       x1="9.0533447"
       x2="18.254675"
       y1="66.792046"
       y2="9.3939257"
       gradientTransform="scale(0.62435361,1.6016565)"
       gradientUnits="userSpaceOnUse">
      <stop
         offset="32.33%"
         stop-color="#9e2064"
         id="stop12" />
      <stop
         offset="63.02%"
         stop-color="#c92037"
         id="stop13" />
      <stop
         offset="75.14%"
         stop-color="#cd2335"
         id="stop14" />
      <stop
         offset="100%"
         stop-color="#e97826"
         id="stop15" />
    </linearGradient>
    <linearGradient
       id="logosMaven4"
       x1="19.337435"
       x2="33.359997"
       y1="74.451309"
       y2="40.850704"
       gradientTransform="scale(0.72108035,1.386808)"
       gradientUnits="userSpaceOnUse">
      <stop
         offset="0%"
         stop-color="#282662"
         id="stop16" />
      <stop
         offset="9.548%"
         stop-color="#662e8d"
         id="stop17" />
      <stop
         offset="78.82%"
         stop-color="#9f2064"
         id="stop18" />
      <stop
         offset="94.87%"
         stop-color="#cd2032"
         id="stop19" />
    </linearGradient>
    <linearGradient
       id="logosMaven5"
       x1="27.193068"
       x2="32.355667"
       y1="71.228615"
       y2="0.6510852"
       gradientTransform="scale(0.58843435,1.6994249)"
       gradientUnits="userSpaceOnUse">
      <stop
         offset="32.33%"
         stop-color="#9e2064"
         id="stop20" />
      <stop
         offset="63.02%"
         stop-color="#c92037"
         id="stop21" />
      <stop
         offset="75.14%"
         stop-color="#cd2335"
         id="stop22" />
      <stop
         offset="100%"
         stop-color="#e97826"
         id="stop23" />
    </linearGradient>
    <linearGradient
       id="logosMaven6"
       x1="14.329373"
       x2="20.111027"
       y1="93.699738"
       y2="7.9347916"
       gradientTransform="scale(0.62642664,1.5963561)"
       gradientUnits="userSpaceOnUse">
      <stop
         offset="32.33%"
         stop-color="#9e2064"
         id="stop24" />
      <stop
         offset="63.02%"
         stop-color="#c92037"
         id="stop25" />
      <stop
         offset="75.14%"
         stop-color="#cd2335"
         id="stop26" />
      <stop
         offset="100%"
         stop-color="#e97826"
         id="stop27" />
    </linearGradient>
    <linearGradient
       id="logosMaven7"
       x1="55.886673"
       x2="78.782814"
       y1="9.6636658"
       y2="4.3424592"
       gradientTransform="scale(1.0708862,0.93380605)"
       gradientUnits="userSpaceOnUse">
      <stop
         offset="0%"
         stop-color="#f69923"
         id="stop28" />
      <stop
         offset="31.23%"
         stop-color="#f79a23"
         id="stop29" />
      <stop
         offset="83.83%"
         stop-color="#e97826"
         id="stop30" />
    </linearGradient>
    <linearGradient
       id="logosMaven8"
       x1="28.774185"
       x2="62.014492"
       y1="95.104706"
       y2="9.5254087"
       gradientTransform="scale(0.84357751,1.1854275)"
       gradientUnits="userSpaceOnUse">
      <stop
         offset="32.33%"
         stop-color="#9e2064"
         id="stop31" />
      <stop
         offset="63.02%"
         stop-color="#c92037"
         id="stop32" />
      <stop
         offset="75.14%"
         stop-color="#cd2335"
         id="stop33" />
      <stop
         offset="100%"
         stop-color="#e97826"
         id="stop34" />
    </linearGradient>
    <linearGradient
       id="logosMaven9"
       x1="9.2229233"
       x2="37.689148"
       y1="108.17295"
       y2="72.498528"
       gradientTransform="scale(1.1576873,0.86379112)"
       gradientUnits="userSpaceOnUse">
      <stop
         offset="0%"
         stop-color="#282662"
         id="stop35" />
      <stop
         offset="9.548%"
         stop-color="#662e8d"
         id="stop36" />
      <stop
         offset="78.82%"
         stop-color="#9f2064"
         id="stop37" />
      <stop
         offset="94.87%"
         stop-color="#cd2032"
         id="stop38" />
    </linearGradient>
    <linearGradient
       id="logosMavena"
       x1="25.749332"
       x2="51.118923"
       y1="79.597069"
       y2="2.9087682"
       gradientTransform="scale(0.74831354,1.3363382)"
       gradientUnits="userSpaceOnUse">
      <stop
         offset="32.33%"
         stop-color="#9e2064"
         id="stop39" />
      <stop
         offset="63.02%"
         stop-color="#c92037"
         id="stop40" />
      <stop
         offset="75.14%"
         stop-color="#cd2335"
         id="stop41" />
      <stop
         offset="100%"
         stop-color="#e97826"
         id="stop42" />
    </linearGradient>
    <linearGradient
       id="logosMavenb"
       x1="11.186749"
       x2="21.679571"
       y1="65.244072"
       y2="29.392483"
       gradientTransform="scale(0.65986875,1.5154529)"
       gradientUnits="userSpaceOnUse">
      <stop
         offset="0%"
         stop-color="#282662"
         id="stop43" />
      <stop
         offset="9.548%"
         stop-color="#662e8d"
         id="stop44" />
      <stop
         offset="78.82%"
         stop-color="#9f2064"
         id="stop45" />
      <stop
         offset="94.87%"
         stop-color="#cd2032"
         id="stop46" />
    </linearGradient>
    <linearGradient
       id="logosMavenc"
       x1="6.5266442"
       x2="65.145088"
       y1="107.65451"
       y2="15.830705"
       gradientTransform="scale(1.0113935,0.98873482)"
       gradientUnits="userSpaceOnUse">
      <stop
         offset="32.33%"
         stop-color="#9e2064"
         id="stop47" />
      <stop
         offset="63.02%"
         stop-color="#c92037"
         id="stop48" />
      <stop
         offset="75.14%"
         stop-color="#cd2335"
         id="stop49" />
      <stop
         offset="100%"
         stop-color="#e97826"
         id="stop50" />
    </linearGradient>
    <linearGradient
       id="logosMavend"
       x1="5.7681699"
       x2="53.837261"
       y1="82.416321"
       y2="25.257654"
       gradientTransform="scale(1.1772848,0.84941213)"
       gradientUnits="userSpaceOnUse">
      <stop
         offset="32.33%"
         stop-color="#9e2064"
         id="stop51" />
      <stop
         offset="63.02%"
         stop-color="#c92037"
         id="stop52" />
      <stop
         offset="75.14%"
         stop-color="#cd2335"
         id="stop53" />
      <stop
         offset="100%"
         stop-color="#e97826"
         id="stop54" />
    </linearGradient>
  </defs>
  <g
     fill="none"
     id="g70"
     transform="matrix(1.3399954,0,0,1.340408,30.961675,10.04134)"
     style="stroke-width:0.746157">
    <path
       fill="url(#logosMaven0)"
       d="M 1.782,2.143 C 1.596,2.582 1.42,3.149 1.256,3.833 L 1.136,4.367 Q 1.076,4.646 1.021,4.945 L 0.911,5.563 0.805,6.223 0.706,6.921 0.613,7.658 0.525,8.431 0.444,9.241 0.406,9.658 0.334,10.519 0.27,11.413 0.212,12.339 0.186,12.814 5.922,15.59 C 5.835,12.241 5.943,9.075 6.245,6.165 L 6.304,5.647 6.264,6.122 6.212,6.907 6.193,7.282 6.162,8.137 6.15,8.618 l -0.013,1.07 0.002,0.898 0.014,0.982 0.016,0.7 0.037,1.123 0.034,0.796 0.042,0.835 0.024,0.432 c 1.068,-0.871 2.348,-2.015 3.678,-3.265 l 0.893,-0.848 q 0.225,-0.215 0.449,-0.432 l 0.896,-0.874 0.885,-0.878 0.862,-0.872 0.83,-0.854 C 13.882,5.556 12.892,4.178 11.972,3.171 L 11.668,2.85 Q 11.366,2.541 11.08,2.285 L 10.798,2.039 10.526,1.817 Q 10.392,1.712 10.265,1.617 L 10.015,1.439 9.78,1.28 9.454,1.078 9.164,0.916 8.84,0.756 8.598,0.652 8.156,0.492 7.833,0.388 7.52,0.3 7.28,0.24 7.02,0.18 6.882,0.153 6.595,0.103 6.295,0.059 C 4.709,-0.139 2.66,0.07 1.782,2.143"
       transform="translate(250.163,25.432)"
       id="path54"
       style="fill:url(#logosMaven0);stroke-width:0.746157" />
    <path
       d="m 267.075,96.87 -0.796,-2.91 -0.702,-2.59 -0.299,-1.138 -0.582,-2.249 -0.562,-2.202 -0.559,-2.261 -0.27,-1.114 -0.52,-2.185 -0.523,-2.24 a 251,251 0 0 1 -0.726,-3.25 l -0.455,-2.13 q -0.112,-0.527 -0.22,-1.045 l -0.306,-1.488 -0.68,-3.496 -0.146,-0.78 -0.295,-1.532 -0.09,-0.507 -0.068,-0.368 -0.276,0.25 -0.57,-0.282 0.041,0.188 q 0.187,1.144 0.394,2.305 l 0.468,2.502 q 0.063,0.34 0.122,0.683 c 0.266,1.4 0.541,2.794 0.835,4.194 l 0.3,1.403 c 0.394,1.887 0.814,3.778 1.24,5.641 0.413,1.848 0.858,3.673 1.303,5.498 q 0.443,1.822 0.899,3.618 l 0.46,1.79 c 0.48,1.872 0.963,3.717 1.466,5.523 0.105,0.406 0.222,0.829 0.343,1.224 l 0.6,2.176 q 0.298,1.075 0.606,2.135 l 0.919,0.462 0.307,-0.274 a 0.3,0.3 0 0 0 -0.038,-0.117 c -0.608,-1.85 -1.123,-3.672 -1.62,-5.435"
       id="path55"
       style="stroke-width:0.746157" />
    <path
       fill="url(#logosMaven1)"
       d="M 7.423,32.522 A 285,285 0 0 1 6.698,26.89 127,127 0 0 1 6.256,22.352 L 6.154,21.012 6.152,20.909 A 117,117 0 0 1 5.895,15.586 l -5.725,-2.76 -0.015,0.35 -0.039,0.729 a 129,129 0 0 0 -0.111,4.36 217,217 0 0 0 0.034,5.414 c 0.04,1.735 0.111,3.545 0.205,5.385 q 0.104,1.772 0.233,3.579 l 0.105,1.394 7.658,3.88 -0.27,-1.807 z"
       transform="translate(250.163,25.432)"
       id="path56"
       style="fill:url(#logosMaven1);stroke-width:0.746157" />
    <path
       fill="url(#logosMaven2)"
       d="m 18.5,76.992 0.118,0.409 0.76,2.584 q 0.164,0.55 0.333,1.107 l 0.363,1.175 0.124,0.423 q 0.033,0.103 0.072,0.206 l 1.234,3.954 c 1.093,-0.226 2.424,0.181 3.831,0.795 l 0.567,0.256 c -1.036,-1.246 -2.47,-2.08 -4.183,-2.273 4.69,-3.128 7.776,-7.157 7.343,-11.964 a 17,17 0 0 0 -0.19,-1.312 c -0.07,1.772 -0.777,3.073 -2.827,4.463 l -0.253,0.167 c 2.12,-3.731 2.704,-6.263 2.453,-9.535 a 31,31 0 0 0 -0.301,-2.486 c -0.678,4.872 -3.295,8.026 -7.123,9.892 z"
       transform="translate(250.163,25.432)"
       id="path57"
       style="fill:url(#logosMaven2);stroke-width:0.746157" />
    <path
       fill="url(#logosMaven3)"
       d="m 15.753,71.273 -0.488,-1.826 -0.98,-3.696 a 361,361 0 0 1 -1.358,-5.409 c -0.445,-1.825 -0.874,-3.661 -1.304,-5.497 -0.436,-1.88 -0.845,-3.755 -1.24,-5.642 L 9.995,47.338 9.249,43.606 A 80,80 0 0 1 8.876,41.583 232,232 0 0 1 8.266,38.116 L 8.224,37.928 0.61,34.041 0.634,34.283 q 0.005,0.063 0.003,0.125 c 0.154,1.725 0.303,3.476 0.507,5.236 0.2,1.787 0.427,3.579 0.693,5.39 0.225,1.526 0.467,3.041 0.72,4.572 l 0.166,0.917 a 107,107 0 0 0 2.569,10.878 c 0.331,1.11 0.656,2.178 0.988,3.191 l 0.295,0.853 0.61,1.698 A 77,77 0 0 0 9.59,72.92 l 7.696,3.9 C 16.876,75.404 16.497,73.966 16.08,72.507 L 15.867,71.69 Z"
       transform="translate(250.163,25.432)"
       id="path58"
       style="fill:url(#logosMaven3);stroke-width:0.746157" />
    <path
       fill="url(#logosMaven4)"
       d="m 9.703,73.175 a 61,61 0 0 0 3.056,5.752 l 0.62,1.002 c -0.73,-0.294 -1.652,-0.44 -2.548,-0.505 L 10.386,79.398 10.167,79.389 9.74,79.38 9.139,79.382 8.601,79.398 8.149,79.421 7.517,79.473 Q 7.508,79.474 7.51,79.475 c 3.891,1.35 7.304,3.002 9.457,5.508 -0.856,0.942 -2.457,1.658 -4.47,2.241 1.498,0.163 2.64,0.096 3.464,-0.038 l 0.333,-0.061 0.153,-0.033 0.276,-0.068 0.239,-0.07 0.29,-0.101 0.148,-0.061 c -1.236,1.03 -2.01,2.787 -2.653,4.756 l -0.222,0.703 -0.108,0.356 c 1.637,-2.676 3.262,-4.448 4.843,-5.126 1.767,5.858 3.81,12.092 6.052,18.597 l 1.048,3.021 a 831,831 0 0 0 1.076,3.058 c 0.521,-0.673 0.58,-1.417 0.361,-2.175 l -0.717,-2.026 -0.817,-2.366 -1.265,-3.754 -1.036,-3.147 -1.146,-3.552 -1.094,-3.465 -1.004,-3.247 -0.739,-2.431 -0.6,-2.008 c -0.081,-0.263 -0.155,-0.531 -0.234,-0.803 l -0.226,-0.745 -0.65,-2.243 -0.66,-2.307 -0.296,-1.064 -0.012,-0.015 -7.697,-3.9 c 0.018,0.068 0.037,0.123 0.06,0.18 z"
       transform="translate(250.163,25.432)"
       id="path59"
       style="fill:url(#logosMaven4);stroke-width:0.746157" />
    <path
       fill="url(#logosMaven5)"
       d="m 9.135,38.082 0.136,0.746 c 0.1,0.508 0.19,1.02 0.288,1.536 l 0.833,4.272 0.306,1.488 0.445,2.102 0.23,1.073 q 0.345,1.596 0.726,3.25 l 0.523,2.24 0.52,2.185 0.27,1.114 0.56,2.261 0.558,2.198 q 0.424,1.665 0.884,3.39 0.338,1.276 0.698,2.586 l 0.8,2.914 0.605,2.142 0.625,2.188 0.32,1.108 a 0.3,0.3 0 0 0 0.038,0.117 l 2.321,-2.139 -0.056,0.024 -0.124,0.06 c 2.756,-2.602 5.117,-7.816 5.657,-12.515 0.248,-2.165 0.225,-4.469 -0.072,-6.982 -0.215,-1.873 -0.596,-3.841 -1.12,-5.971 a 77,77 0 0 0 -1.708,-5.853 c -0.426,0.869 -1.031,1.724 -1.773,2.558 l -0.402,0.44 -0.138,0.144 -0.291,0.293 c 2.032,-3.16 2.274,-6.552 1.67,-10.074 -0.369,1.044 -1.094,2.592 -2.297,3.983 a 8,8 0 0 1 -0.516,0.548 c -0.032,0.023 -0.058,0.053 -0.09,0.084 l -0.056,0.047 c 0.674,-1.123 1.172,-2.19 1.492,-3.27 q 0.074,-0.226 0.124,-0.455 l 0.05,-0.23 c 0.082,-0.35 0.136,-0.704 0.19,-1.058 l 0.078,-0.685 q 0.047,-0.605 0.02,-1.238 l -0.054,-0.774 a 2,2 0 0 0 -0.022,-0.171 l -0.08,-0.496 a 7,7 0 0 0 -0.045,-0.234 c -0.157,-0.92 -0.33,-1.741 -0.508,-2.469 L 20.583,29.906 20.432,29.355 20.235,28.702 19.98,27.938 19.899,27.716 19.744,27.331 Q 19.67,27.153 19.603,27.006 l -0.127,-0.26 a 2,2 0 0 1 -0.098,0.306 l -0.07,0.155 c -0.48,1.126 -1.595,2.67 -2.612,3.754 -0.016,0.012 -0.031,0.023 -0.035,0.05 l -0.21,0.21 a 3,3 0 0 0 -0.106,0.119 l 0.04,-0.078 -7.315,6.699 c 0.062,0.05 0.07,0.094 0.065,0.121"
       transform="translate(250.163,25.432)"
       id="path60"
       style="fill:url(#logosMaven5);stroke-width:0.746157" />
    <path
       fill="url(#logosMaven6)"
       d="m 6.306,15.454 q 0.044,0.8 0.105,1.67 l 0.089,1.186 0.05,0.615 0.108,1.273 0.06,0.657 0.017,0.212 a 1,1 0 0 0 0.018,0.1 q 0.092,0.979 0.207,2.017 l 0.162,1.413 q 0.087,0.72 0.183,1.473 l 0.304,2.298 q 0.213,1.563 0.469,3.252 l 0.133,0.854 q 0.198,1.305 0.431,2.675 l 0.482,2.819 7.316,-6.699 c 1.525,-2.763 1.858,-4.482 1.838,-6.618 Q 18.265,24.004 18.222,23.315 L 18.191,22.853 A 58,58 0 0 0 17.53,17.077 c -0.3,-1.858 -0.668,-3.643 -1.089,-5.171 A 27,27 0 0 0 15.603,9.282 30,30 0 0 0 14.796,7.457 l -0.83,0.847 q -0.211,0.214 -0.427,0.43 l -0.874,0.872 -0.891,0.874 -0.897,0.865 -0.448,0.426 -0.886,0.831 a 70,70 0 0 1 -3.237,2.85"
       transform="translate(250.163,25.432)"
       id="path61"
       style="fill:url(#logosMaven6);stroke-width:0.746157" />
    <path
       fill="#000000"
       d="m 212.12,35.534491 q 6.091,0.759463 10.702,2.850873 4.774,2.089101 7.737,5.70059 3.129,3.419893 4.116,8.931195 0.495,3.22945 0,7.409961 a 96,110.80314 0 0 1 -1.317,8.551463 l -7.408,42.375277 q -0.495,3.61034 -1.153,7.40996 -0.659,3.61149 -0.494,6.65165 0,0.57018 -0.164,1.32964 v 1.14035 q 0,2.09141 -0.33,4.18051 -0.33,2.09025 -2.14,2.85087 a 6.2,7.1560363 0 0 1 -2.47,0.57017 h -14.487 q -1.318,-0.18928 -1.976,-0.95106 a 3.15,3.6357281 0 0 1 -1.317,-2.0891 q -0.33,-1.52123 -1.153,-2.46998 a 2.1,2.4238187 0 0 0 -0.823,-0.57133 q -0.33,-0.38089 -1.152,-0.18929 a 9,10.387795 0 0 0 -1.811,0.94991 q -0.824,0.57132 -1.647,0.9499 -0.988,0.76177 -2.14,1.32964 -0.988,0.57133 -2.14,1.14035 a 35,40.396979 0 0 1 -4.775,1.90096 q -2.469,0.56903 -4.939,1.32964 -1.317,0.38089 -2.47,0.38089 -0.987,0.19044 -2.14,0.37973 h -0.987 q -0.495,0.19044 -0.988,0.18929 h -1.811 q -1.811,0.38088 -3.293,0 h -1.482 a 8.4,9.695275 0 0 0 -2.305,-0.37973 4.05,4.6745076 0 0 1 -1.975,-0.19045 l -2.964,-0.75946 q -1.481,-0.19044 -2.634,-0.94991 -4.445,-2.0914 -7.244,-5.32085 -2.799,-3.42105 -3.786,-8.9312 a 16.4,18.92887 0 0 1 -0.494,-2.85087 q 0,-1.52008 -0.165,-3.22945 a 4.2,4.8476375 0 0 1 0,-1.90097 q 0.33,-0.9499 0.33,-1.89981 0,-0.57133 0.164,-2.2807 0.33,-1.89981 0.658,-2.66043 0.66,-1.89981 0.824,-3.22945 l 1.646,-4.180508 q 0.988,-2.280698 2.14,-3.991222 3.622,-5.510148 7.738,-8.36102 4.116,-2.850873 10.208,-4.939973 a 23.6,27.239106 0 0 1 4.61,-1.330792 87,100.41535 0 0 0 4.774,-0.949906 q 1.316,-0.380886 2.799,-0.380886 1.646,-0.190443 3.128,-0.569021 a 5.5,6.3480967 0 0 1 2.305,-0.190442 q 1.152,0 2.634,-0.380886 a 8.4,9.695275 0 0 1 2.305,-0.378578 q 1.152,0 2.47,-0.380886 3.622,-0.948751 6.585,-1.52008 3.127,-0.760618 5.927,-3.419893 1.645,-1.710523 2.634,-3.800779 0.165,-0.571328 0.165,-0.949906 0,-0.380885 0.164,-0.760617 0.33,-0.380886 0.33,-1.139195 0.164,-0.761771 0.329,-1.140349 v -2.850872 q -0.66,-5.701745 -5.598,-7.790846 -1.317,-0.571329 -3.457,-0.759464 a 17,19.62139 0 0 0 -4.116,-0.190442 q -2.14,0 -4.28,0.380885 -1.977,0.379732 -3.458,0.948752 a 7.6,8.7719154 0 0 0 -2.14,1.140349 q -0.988,0.571329 -1.976,1.330792 -0.988,0.759463 -2.14,2.089101 -1.152,1.329638 -1.647,2.469987 a 36,41.551178 0 0 0 -1.975,3.61149 q -0.824,1.709369 -2.8,2.280698 -1.316,0.380886 -2.798,0.379731 h -9.22 q -0.822,0 -1.81,0.190443 -0.824,0 -1.318,-0.190443 h -1.481 q -0.33,-0.190443 -0.824,-0.190443 -0.494,0 -0.823,-0.379731 -1.152,-0.380886 -1.317,-2.469987 0,-0.95106 0.33,-1.900966 0.328,-0.948752 0.658,-1.70937 a 46,53.093172 0 0 1 1.646,-3.800778 35,40.396979 0 0 1 1.976,-3.421047 l 1.317,-1.899812 1.317,-1.899813 q 1.647,-2.090255 3.951,-3.991221 0.495,-0.190443 1.153,-0.949906 a 37,42.705378 0 0 0 1.646,-1.329638 q 0.824,-0.571329 1.811,-1.140349 a 30,34.625982 0 0 1 6.421,-3.230604 q 3.458,-1.330792 6.915,-2.469987 a 29,33.471783 0 0 1 4.28,-0.760617 q 2.14,-0.190443 4.446,-0.759463 0.658,-0.190443 1.975,0 1.317,0.190442 1.811,-0.190443 6.75,-0.190443 12.677,0.570174 m 183.035,1.520081 q 5.597,2.279544 9.713,6.080322 a 16.2,18.69803 0 0 1 2.47,2.66043 q 1.317,1.330792 2.14,2.850872 0.33,0.951061 1.152,1.520081 a 23,26.546586 0 0 1 1.647,4.370953 q 0.823,2.090255 1.81,4.369799 0.495,1.709369 0.66,3.610336 0.328,1.710523 0.658,3.800778 0.33,2.469987 0.33,5.130417 l 0.328,5.320859 q 0,1.520081 -0.494,3.421047 -0.33,1.708215 -0.164,3.22945 l -0.33,2.090255 q 0,1.520081 -0.658,3.421047 -0.659,1.898658 -1.646,2.469987 -0.824,0.760617 -2.47,1.140349 -1.646,0.190443 -3.622,0.380885 h -3.787 A 37,42.705378 0 0 0 399.6,92.731997 h -42.476 q -0.989,0 -1.811,0.379731 -1.482,0.760618 -1.976,1.520081 -0.33,0.380886 -0.988,1.52008 -0.495,0.951061 -0.494,1.899813 0.165,1.140349 0,2.280698 0,0.94991 0.165,2.09025 0.495,4.5614 1.81,7.60041 1.483,2.85087 4.281,5.13157 a 7.2,8.3102357 0 0 0 2.47,1.32964 q 1.481,0.19044 2.799,0.76061 1.317,0.38089 3.457,0.56902 2.305,0.19045 4.116,-0.18928 h 1.482 q 1.646,-0.38089 3.128,-0.76062 l 2.963,-1.1392 q 1.812,-0.95221 4.116,-2.46998 2.305,-1.52124 3.622,-3.04132 a 20,23.083988 0 0 1 2.14,-2.46999 q 1.153,-1.33079 2.47,-1.90096 1.81,-0.94991 4.28,-0.75947 h 6.75 q 1.153,-0.19044 1.976,0.19045 h 1.647 q 1.48,0.37857 2.14,0.9499 0.494,0.38089 0.33,1.70937 0,1.33079 -0.495,2.2807 -1.316,2.66043 -2.799,4.75069 a 43,49.630574 0 0 1 -2.963,4.18051 q -4.61,6.27076 -9.878,10.07154 -5.268,3.79962 -12.677,6.46005 -1.976,0.76178 -3.787,0.94991 a 30,34.625982 0 0 0 -3.951,0.76062 q -0.66,0.19044 -1.482,0 -0.659,0 -1.317,0.19044 h -1.81 a 4.05,4.6745076 0 0 1 -1.977,0.18929 9.3,10.734054 0 0 1 -1.81,-0.18929 q -1.318,-0.19044 -2.305,0 -0.987,0.19044 -2.14,-0.19044 a 4.8,5.5401571 0 0 0 -1.812,-0.38089 q -0.987,0 -1.646,-0.37973 a 43,49.630574 0 0 1 -3.622,-0.94991 8.8,10.156955 0 0 1 -2.964,-1.32963 57,65.789366 0 0 0 -3.128,-1.3308 15,17.312991 0 0 1 -2.634,-1.70937 q -4.61,-3.80077 -7.902,-8.7419 -3.128,-5.13042 -4.61,-11.78091 a 21,24.238187 0 0 1 -0.659,-4.18052 q 0,-2.27954 -0.494,-4.56024 v -1.33079 q 0.165,-0.760616 0.165,-1.520079 a 28,32.317583 0 0 1 0,-4.939974 l 0.659,-5.320859 a 9.3,10.734054 0 0 0 0.164,-2.090255 q 0.165,-1.140349 0.494,-2.090255 l 0.494,-2.280698 1.317,-4.560242 a 184,212.37269 0 0 0 2.14,-6.270765 26,30.009184 0 0 1 2.47,-5.701745 Q 347.574,46.17621 366.014,38.005632 a 20.6,23.776508 0 0 1 4.939,-1.521235 q 2.469,-0.570174 5.268,-1.329637 1.317,-0.190443 2.47,-0.190443 1.152,0 2.47,-0.190443 8.396,-0.189289 13.994,2.280698 M 54.193,1.5419943e-4 q 2.799,0 3.951,1.32963770057 0.988,0.9510603 1.153,2.8508725 0.165,1.7105235 0.493,3.4198928 0.33,3.0424698 0.659,6.2707658 0.495,3.041315 0.823,6.270765 a 325,375.1148 0 0 1 2.964,24.323598 450,519.38973 0 0 0 3.128,24.512887 q 0.658,3.799624 0.988,7.790846 0.328,3.991221 0.987,7.790846 l 0.33,1.900966 q 0.165,0.948752 0.823,1.520081 0.33,0.190443 0.494,0.379731 0.33,0.190443 0.823,-0.190442 1.317,-0.380886 2.14,-2.279544 a 36,41.551178 0 0 1 1.646,-3.421047 483,557.47831 0 0 0 3.787,-8.550309 125,144.27492 0 0 1 3.951,-8.741907 L 93.87,41.995699 q 5.434,-11.782067 10.701,-23.56298 a 218,251.61547 0 0 1 2.635,-5.891034 q 1.48,-3.0401613 2.798,-6.0803226 a 32,36.934381 0 0 1 1.482,-3.0413154 q 0.823,-1.5200806 2.305,-2.46998669 1.152,-0.94990611057 2.634,-0.94990611057 h 28.318 q 1.646,0 2.305,0.76061740057 1.645,1.1391948 0.987,4.3697989 a 518,597.87529 0 0 0 -0.987,6.2707655 l -4.94,28.504108 -12.347,70.687786 -2.799,16.53275 a 43,49.630574 0 0 1 -0.823,4.18051 q -0.494,1.89866 -1.647,2.85088 a 5.5,6.3480967 0 0 1 -2.634,1.13919 h -15.64 a 20,23.083988 0 0 0 -2.14,-0.57017 q -0.824,-0.19045 -1.318,-1.32964 -0.494,-0.95221 -0.329,-2.46999 0.33,-1.52123 0.659,-3.23176 l 1.646,-9.69065 8.561,-48.835334 q 0.33,-2.661584 0.659,-4.939974 0.493,-2.472295 0.823,-4.941127 l 0.658,-3.041316 q 0.33,-1.708215 0.33,-3.22945 a 9.3,10.734054 0 0 1 0,-2.850872 q 0.33,-1.520081 -0.494,-1.899812 -0.495,-0.190443 -0.823,0.189288 l -0.494,0.570175 a 7.2,8.3102357 0 0 0 -1.482,1.900966 l -0.988,1.899813 a 211,243.53607 0 0 0 -2.963,5.891033 64,73.868762 0 0 1 -2.964,6.080323 l -0.988,2.280698 a 8.3,9.579855 0 0 1 -0.987,2.279544 86,99.261148 0 0 0 -2.47,4.939973 41,47.322175 0 0 1 -2.305,4.941128 q -0.33,0.571328 -0.494,1.330792 -0.164,0.570174 -0.494,1.140349 a 29,33.471783 0 0 0 -1.81,3.610335 q -0.66,1.899812 -1.812,3.799625 a 29,33.471783 0 0 0 -1.81,3.61149 23,26.546586 0 0 1 -1.647,3.799624 121,139.65813 0 0 0 -5.433,11.211889 404,466.29656 0 0 1 -5.104,11.02145 q -0.493,0.57018 -0.658,1.1392 0,0.57133 -0.494,1.14035 a 42,48.476375 0 0 0 -2.14,4.37095 29.5,34.048882 0 0 1 -1.976,4.18051 37,42.705378 0 0 1 -1.317,2.46999 7.2,8.3102357 0 0 1 -1.482,1.90096 q -0.987,0.75947 -1.81,0.94991 -0.825,0 -2.141,0.37973 H 64.4 q -1.152,0 -2.799,0.19044 h -3.128 q -1.48,0 -2.798,-0.19044 -1.318,-0.19044 -1.811,-0.76062 -1.153,-0.9499 -1.482,-2.0891 -0.165,-1.33079 -0.659,-3.04131 a 49,56.555771 0 0 1 -0.494,-4.56024 25,28.854985 0 0 0 -0.658,-4.75069 l -0.165,-1.71052 a 25,28.854985 0 0 1 -0.658,-4.74953 25,28.854985 0 0 0 -0.659,-4.94113 v -0.94991 q 0,-0.57132 -0.165,-1.14035 -0.493,-1.70936 -0.658,-3.61033 a 34,39.24278 0 0 0 -0.494,-3.800779 v -0.949906 q 0,-0.571329 -0.165,-0.949907 a 34,39.24278 0 0 1 -0.494,-3.801932 q 0,-1.900967 -0.493,-3.800779 -0.66,-3.800779 -1.153,-7.980135 a 73,84.256556 0 0 0 -0.988,-8.171731 194,223.91468 0 0 1 -1.152,-9.690659 40.4,46.629656 0 0 0 -1.482,-9.501369 q -0.33,-2.66043 -0.988,-4.370953 a 2.6,3.0009184 0 0 0 -0.658,-0.570175 q -0.165,-0.380885 -0.659,0 -0.987,0.570175 -1.317,1.900967 a 9,10.387795 0 0 1 -0.658,2.660429 6.6,7.617716 0 0 0 -0.824,2.850873 q -0.165,1.328483 -0.329,2.849718 a 43,49.630574 0 0 1 -0.823,4.18051 43,49.630574 0 0 1 -0.823,4.180511 l -8.726,50.545857 -1.646,9.31092 -0.659,3.04016 q -0.165,1.52009 -0.988,2.46999 -0.823,1.33195 -2.799,1.71052 -1.152,0.38089 -2.47,0.38089 a 21,24.238187 0 0 0 -2.633,-0.19044 H 2.99 q -1.482,-0.19045 -2.305,-1.14035 -0.823,-0.94991 -0.659,-2.85087 l 0.659,-4.17936 2.799,-16.72204 12.348,-70.688943 4.61,-26.604296 q 0.165,-1.139195 0.329,-2.659275 0.33,-1.7093697 0.658,-3.2306046 0.33,-1.5200806 0.659,-2.8508725 0.493,-1.5189264 0.823,-2.2795438 0.987,-1.3296377 2.963,-1.8998122 0.495,-0.19044289997 0.659,0 0.33,0 0.823,-0.19044289997 z M 501.875,38.194921 q 6.091,3.609181 8.561,10.641718 0.823,2.089101 0.988,4.559088 0.33,2.281852 0.494,4.751839 0.165,1.518926 0,2.850872 a 8.1,9.3490151 0 0 0 0,2.659276 q -0.33,1.141503 -0.165,1.52008 a 38,43.859577 0 0 1 -0.659,5.511302 356,410.89499 0 0 1 -0.987,5.510148 l -2.8,16.912484 -5.432,30.782502 a 558,644.04327 0 0 1 -1.317,7.03138 q -0.66,3.23176 -3.128,4.18051 -0.988,0.38088 -2.305,0.38088 H 483.6 q -1.976,0 -3.457,-0.19044 -1.482,-0.38088 -2.14,-1.71052 -0.495,-1.1392 -0.33,-2.85087 0.33,-1.89982 0.659,-3.99007 l 2.305,-13.301 4.939,-28.312506 q 1.152,-7.032537 1.646,-12.922417 0.66,-6.080322 -1.152,-10.260833 -1.647,-3.801932 -5.762,-5.320859 a 4.8,5.5401571 0 0 0 -1.811,-0.380886 q -0.824,0 -1.647,-0.379731 -0.823,-0.190443 -2.14,0 -1.152,0 -1.811,0.190443 -0.824,0.189288 -1.317,0.189288 -0.495,0 -0.988,0.190443 -3.952,1.141503 -6.585,3.040161 -6.092,4.370954 -8.562,12.73082 -2.304,8.362175 -4.115,18.81345 l -4.116,23.753427 -1.976,11.59047 -0.659,3.42104 q -0.33,1.70822 -0.987,2.85088 -1.153,2.0891 -3.128,2.46998 -1.812,0.37973 -4.446,0.37973 h -8.231 q -1.812,0 -3.622,-0.19044 -1.812,-0.19044 -2.305,-1.32964 -0.989,-1.71052 -0.33,-4.94112 0.66,-3.23061 1.153,-6.08033 l 4.445,-25.84252 7.244,-41.805103 1.811,-9.691812 q 0.33,-2.091409 0.659,-3.800779 a 4.44,5.1246453 0 0 1 1.481,-2.850872 q 0.33,-0.56902 1.153,-0.759463 a 9.4,10.849474 0 0 1 1.646,-0.570175 h 0.823 a 8.4,9.695275 0 0 1 1.647,-0.190443 h 8.725 q 1.317,0 2.47,0.190443 1.317,0 2.305,0.380886 0.987,0.56902 1.152,1.709369 0.33,1.140349 0.33,2.66043 0,0.760617 -0.165,1.329638 -0.165,0.571328 0,1.140349 0.165,0.949906 0.33,1.140349 0.329,0.190443 0.822,0.570174 1.647,0.189289 3.128,-1.330792 1.482,-1.709369 2.964,-2.659275 a 49.7,57.36371 0 0 1 10.866,-6.081477 q 1.646,-0.571328 3.128,-0.759463 a 56,64.635166 0 0 0 3.622,-0.570174 q 0.494,-0.190443 1.482,0 0.987,0 1.317,-0.190443 9.878,-0.380886 15.805,3.230604 m -298.81,51.686203 q -0.659,0.190443 -1.152,0.380886 -0.495,0 -1.317,0.189289 -1.153,0.380885 -2.47,0.570174 a 30,34.625982 0 0 0 -2.799,0.570175 q -0.494,0.190442 -1.481,0.189288 -2.306,0.571329 -4.446,0.760618 -2.14,0.189288 -4.28,0.949906 l -2.634,0.760617 q -1.153,0.190443 -2.305,0.759463 -3.787,1.710524 -6.75,5.13042 -2.963,3.41989 -3.458,9.50137 -0.165,3.23175 0.988,5.32086 0.66,2.0891 2.799,3.41989 2.14,1.1415 4.774,1.71052 2.634,0.57133 5.598,0.38089 a 33.3,38.43484 0 0 0 5.927,-1.33079 q 4.61,-1.52008 7.573,-4.75069 3.129,-3.42105 5.269,-8.36102 0.493,-1.33079 0.823,-2.66043 0.329,-1.52008 0.988,-3.04016 l 0.329,-1.710524 q 0.33,-0.949906 0.494,-2.089101 0.165,-1.331946 0.164,-2.280698 0,-1.141503 0.165,-2.090255 0.165,-0.95106 -0.494,-1.520081 -0.658,-0.761771 -2.305,-0.760617 M 377.868,54.726519 q -0.495,0.380886 -1.153,0.190443 -0.658,-0.190443 -1.152,0 -0.988,0.380885 -1.976,0.570174 -0.988,0 -1.81,0.380886 -7.74,2.659275 -12.513,10.450121 -0.495,0.761772 -1.153,2.090255 a 7.6,8.7719154 0 0 0 -0.987,2.469987 6.2,7.1560363 0 0 0 -0.33,2.280698 q 0,1.140349 0.823,1.899812 1.153,0.952215 3.458,0.951061 h 27.494 q 2.635,-0.190443 3.622,-1.710524 1.482,-1.900966 0.988,-4.560242 -0.33,-2.850872 -0.494,-4.18051 -1.482,-5.13157 -4.774,-7.790846 -3.294,-2.850872 -10.043,-3.041315"
       id="path62"
       style="fill:#989c9f;fill-opacity:0.6;stroke-width:0.746157"
       inkscape:label="path62" />
    <path
       fill="url(#logosMaven7)"
       d="M 66.756,0.315 Q 66.404,0.46 65.992,0.678 l -0.427,0.236 q -0.442,0.254 -0.94,0.576 l -0.51,0.34 -0.535,0.372 -0.561,0.406 -0.585,0.438 -0.302,0.231 -0.62,0.485 -0.64,0.516 -0.663,0.546 -0.682,0.576 -0.702,0.604 -0.72,0.633 -0.737,0.66 -0.374,0.34 2.411,6.793 c 2.61,-2.784 5.23,-5.263 7.802,-7.375 l 0.905,-0.734 0.065,-0.05 -0.622,0.506 -0.61,0.528 -0.662,0.598 -0.627,0.588 -0.527,0.507 -0.379,0.371 -0.82,0.822 -0.67,0.689 -0.966,1.018 -0.514,0.553 -0.534,0.583 -0.84,0.93 -0.584,0.66 c 0.6,0.057 1.258,0.107 1.958,0.149 l 1.08,0.057 1.134,0.047 1.175,0.037 1.205,0.026 1.224,0.016 0.615,0.005 1.23,0.002 q 0.309,0 0.614,-0.003 l 1.212,-0.012 q 0.3,-0.003 0.597,-0.009 l 1.17,-0.024 c 0.959,-2.86 1.178,-5.16 1.104,-6.878 L 74.114,7.602 74.077,7.194 74.054,7 74.003,6.631 73.944,6.29 73.913,6.129 73.847,5.828 73.778,5.553 73.708,5.306 73.639,5.086 73.51,4.727 73.405,4.478 73.156,3.964 73.011,3.69 72.889,3.474 72.749,3.238 72.589,2.984 72.409,2.718 72.213,2.443 c -1.1,-1.482 -2.98,-3.15 -5.457,-2.128"
       transform="translate(260.14,28.697)"
       id="path63"
       style="fill:url(#logosMaven7);stroke-width:0.746157" />
    <path
       d="m 283.012,98.652 1.009,-1.836 1.369,-2.438 1.199,-2.127 0.595,-1.052 1.325,-2.296 1.309,-2.247 0.645,-1.103 a 453,453 0 0 1 2.015,-3.376 l 1.317,-2.172 a 328,328 0 0 1 3.356,-5.411 l 1.327,-2.078 q 0.327,-0.511 0.652,-1.015 l 0.936,-1.44 1.134,-1.705 1.096,-1.65 0.503,-0.745 0.98,-1.467 0.168,-0.241 0.314,-0.468 0.085,-0.12 -0.42,-0.018 -0.235,-0.68 -0.116,0.183 q -0.76,1.07 -1.515,2.169 l -1.61,2.386 q -0.22,0.323 -0.445,0.647 a 257,257 0 0 0 -2.66,4.039 l -0.874,1.368 a 353,353 0 0 0 -3.484,5.526 c -1.135,1.816 -2.227,3.639 -3.319,5.461 a 450,450 0 0 0 -2.15,3.627 l -1.053,1.807 a 306,306 0 0 0 -3.207,5.611 c -0.238,0.41 -0.48,0.843 -0.697,1.257 a 333,333 0 0 0 -2.454,4.43 l 0.373,1.101 0.464,0.024 c 0.028,-0.04 0.057,-0.081 0.063,-0.125 0.653,-1.315 1.33,-2.587 2.005,-3.826"
       id="path64"
       style="stroke-width:0.746157" />
    <path
       fill="url(#logosMaven8)"
       d="m 47.161,29.252 q 1.955,-2.62 3.89,-5.11 c 1.345,-1.718 2.7,-3.369 4.072,-4.972 0.082,-0.1 0.163,-0.199 0.241,-0.276 a 133,133 0 0 1 4.023,-4.49 L 56.972,7.634 56.68,7.904 56.07,8.46 a 146,146 0 0 0 -3.553,3.422 q -1.037,1.034 -2.103,2.13 l -1.44,1.49 -0.732,0.765 a 222,222 0 0 0 -4.113,4.498 299,299 0 0 0 -2.655,3.066 l -1.024,1.206 3.082,9.208 1.219,-1.67 z"
       transform="translate(260.14,28.697)"
       id="path65"
       style="fill:url(#logosMaven8);stroke-width:0.746157" />
    <path
       fill="url(#logosMaven9)"
       d="m 20.745,73.852 -0.458,0.847 -1.212,2.261 q -0.306,0.573 -0.612,1.155 l -0.64,1.234 c -0.123,0.228 -0.242,0.433 -0.343,0.663 l -0.674,1.301 -1.474,2.862 c 1.2,0.777 2.001,2.454 2.705,4.34 0.156,-1.826 -0.336,-3.636 -1.561,-5.153 6.26,1.209 11.947,0.417 15.416,-3.797 0.301,-0.38 0.605,-0.78 0.89,-1.206 -1.469,1.374 -3.077,1.858 -5.845,1.341 l -0.313,-0.062 c 4.671,-1.32 7.152,-2.893 9.551,-5.727 a 35,35 0 0 0 1.732,-2.24 c -4.417,3.383 -9.03,3.843 -13.593,2.304 z"
       transform="translate(260.14,28.697)"
       id="path66"
       style="fill:url(#logosMaven9);stroke-width:0.746157" />
    <path
       fill="url(#logosMavena)"
       d="m 22.837,67.492 1.3,-2.283 2.148,-3.754 a 408,408 0 0 1 3.203,-5.434 671,671 0 0 1 3.319,-5.461 289,289 0 0 1 3.484,-5.526 c 1.157,-1.813 2.358,-3.62 3.533,-5.408 0.43,-0.65 0.856,-1.278 1.307,-1.924 0.74,-1.095 1.502,-2.186 2.264,-3.277 l 0.116,-0.184 -3.042,-9.179 -0.172,0.214 q -0.045,0.055 -0.098,0.103 c -1.246,1.51 -2.517,3.04 -3.751,4.618 -1.26,1.598 -2.5,3.22 -3.725,4.89 a 307,307 0 0 0 -3.053,4.252 l -0.595,0.87 A 121,121 0 0 0 22.5,50.808 141,141 0 0 0 20.76,54.162 c -0.446,0.915 -0.873,1.855 -1.297,2.773 a 87,87 0 0 0 -2.656,6.56 l 3.098,9.255 0.602,-1.099 1.233,-2.21 q 0.31,-0.555 0.619,-1.12 z"
       transform="translate(260.14,28.697)"
       id="path67"
       style="fill:url(#logosMavena);stroke-width:0.746157" />
    <path
       fill="url(#logosMavenb)"
       d="m 16.697,63.79 a 69,69 0 0 0 -2.11,7.06 L 14.29,72.148 C 14.01,71.505 13.562,70.84 13.057,70.213 L 12.748,69.842 12.59,69.66 12.27,69.308 11.95,68.972 11.636,68.654 11.186,68.22 10.776,67.844 10.329,67.451 9.926,67.119 c 2.06,4.178 3.494,8.22 3.237,11.948 -1.437,0.079 -3.296,-0.617 -5.38,-1.747 0.897,1.1 1.721,1.876 2.416,2.42 l 0.311,0.235 q 0.075,0.055 0.149,0.106 l 0.281,0.19 0.26,0.161 0.238,0.136 0.214,0.111 0.189,0.09 0.162,0.07 0.072,0.029 c -1.747,-0.147 -3.682,0.588 -5.682,1.6 l -0.669,0.348 -0.672,0.363 c 3.445,-0.854 6.16,-0.99 7.972,-0.279 a 449,449 0 0 0 -2.686,5.17 l -1.356,2.668 a 667,667 0 0 0 -6.189,12.624 l -1.394,2.929 A 945,945 0 0 0 0,109.26 c 0.954,-0.127 1.592,-0.68 2.02,-1.464 l 1.577,-3.346 1.453,-3.008 1.855,-3.778 1.64,-3.284 1.624,-3.21 1.543,-3.01 2.14,-4.116 1.521,-2.88 0.523,-0.983 0.45,-0.832 0.41,-0.78 0.624,-1.153 1.281,-2.352 0.656,-1.198 0.606,-1.092 0.003,-0.022 -3.097,-9.254 a 1.4,1.4 0 0 0 -0.095,0.192 z"
       transform="translate(260.14,28.697)"
       id="path68"
       style="fill:url(#logosMavenb);stroke-width:0.746157" />
    <path
       fill="url(#logosMavenc)"
       d="m 44.121,35.088 -0.482,0.71 c -0.324,0.486 -0.658,0.972 -0.99,1.465 l -1.589,2.396 -1.134,1.704 -0.288,0.442 q -0.645,0.99 -1.3,2.014 l -1.327,2.078 a 304,304 0 0 0 -2.673,4.292 l -0.683,1.119 a 457,457 0 0 0 -3.332,5.548 l -1.296,2.214 c -0.654,1.12 -1.316,2.26 -1.983,3.432 q -0.592,1.035 -1.192,2.101 l -1.971,3.516 -0.604,1.096 -1.227,2.232 q -0.618,1.13 -1.242,2.281 a 0.3,0.3 0 0 0 -0.063,0.124 l 3.569,0.123 c -0.062,-0.031 -0.128,-0.04 -0.212,-0.075 4.286,0.094 10.33,-2.228 14.498,-5.581 1.92,-1.545 3.731,-3.418 5.489,-5.678 1.315,-1.678 2.572,-3.565 3.843,-5.696 a 87,87 0 0 0 3.274,-6.07 c -1.033,0.362 -2.2,0.57 -3.46,0.652 l -0.673,0.035 c -0.15,0.007 -0.298,0.005 -0.453,0.006 l -0.239,0.003 c 4.147,-0.928 7.036,-3.467 9.35,-6.781 -1.128,0.547 -2.942,1.217 -5.015,1.38 a 9,9 0 0 1 -0.851,0.031 c -0.044,-0.006 -0.089,-0.003 -0.14,-0.004 l -0.081,-0.006 c 1.435,-0.369 2.683,-0.831 3.799,-1.448 0.16,-0.08 0.312,-0.172 0.461,-0.267 l 0.223,-0.145 c 0.344,-0.216 0.669,-0.458 0.994,-0.7 l 0.606,-0.49 c 0.46,-0.4 0.904,-0.848 1.312,-1.345 l 0.26,-0.302 q 0.061,-0.075 0.118,-0.155 l 0.33,-0.463 q 0.077,-0.113 0.15,-0.224 a 40,40 0 0 0 1.579,-2.437 l 0.183,-0.312 c 0.239,-0.41 0.449,-0.78 0.634,-1.132 l 0.217,-0.414 0.329,-0.666 q 0.101,-0.207 0.183,-0.395 l 0.096,-0.224 0.163,-0.404 q 0.072,-0.187 0.125,-0.342 l 0.047,-0.147 q -0.147,0.092 -0.321,0.168 l -0.181,0.07 c -1.28,0.525 -3.405,0.881 -5.085,0.947 -0.022,-0.004 -0.044,-0.007 -0.069,0.012 l -0.335,0.002 a 3,3 0 0 0 -0.179,0.012 l 0.094,-0.031 -11.211,-0.42 c 0.009,0.09 -0.02,0.13 -0.045,0.15"
       transform="translate(260.14,28.697)"
       id="path69"
       style="fill:url(#logosMavenc);stroke-width:0.746157" />
    <path
       fill="url(#logosMavend)"
       d="m 59.822,14.624 q -0.6,0.68 -1.241,1.429 l -0.872,1.026 -0.907,1.083 -1.095,1.322 a 1,1 0 0 0 -0.065,0.096 q -0.937,1.15 -1.927,2.413 l -1.008,1.298 -0.515,0.674 -1.448,1.914 -0.946,1.268 q -0.719,0.967 -1.465,1.999 l -0.5,0.695 q -0.753,1.035 -1.522,2.13 l -1.039,1.484 -1.07,1.534 11.212,0.42 c 3.423,-1.013 5.058,-2.132 6.738,-3.868 q 0.504,-0.53 1.017,-1.12 l 0.342,-0.396 a 65,65 0 0 0 4.056,-5.175 c 1.235,-1.735 2.358,-3.463 3.233,-5.028 a 31,31 0 0 0 1.41,-2.778 c 0.309,-0.735 0.567,-1.432 0.8,-2.11 l -1.163,0.02 -1.196,0.012 -1.217,0.004 -1.228,-0.004 -0.614,-0.006 -1.222,-0.018 -1.203,-0.027 -0.591,-0.017 -1.155,-0.042 -0.56,-0.025 -1.08,-0.058 a 57,57 0 0 1 -1.959,-0.149"
       transform="translate(260.14,28.697)"
       id="path70"
       style="fill:url(#logosMavend);stroke-width:0.746157" />
  </g>
</svg>
