<?xml version="1.0" encoding="UTF-8" standalone="no"?>
<svg
   role="img"
   viewBox="0 0 24 24"
   version="1.1"
   id="svg1"
   sodipodi:docname="googlemaps.svg"
   inkscape:version="1.3.2 (091e20e, 2023-11-25, custom)"
   xmlns:inkscape="http://www.inkscape.org/namespaces/inkscape"
   xmlns:sodipodi="http://sodipodi.sourceforge.net/DTD/sodipodi-0.dtd"
   xmlns="http://www.w3.org/2000/svg"
   xmlns:svg="http://www.w3.org/2000/svg">
  <defs
     id="defs1" />
  <sodipodi:namedview
     id="namedview1"
     pagecolor="#505050"
     bordercolor="#eeeeee"
     borderopacity="1"
     inkscape:showpageshadow="0"
     inkscape:pageopacity="0"
     inkscape:pagecheckerboard="0"
     inkscape:deskcolor="#505050"
     inkscape:zoom="8.46875"
     inkscape:cx="15.645756"
     inkscape:cy="14.228782"
     inkscape:window-width="1920"
     inkscape:window-height="1009"
     inkscape:window-x="-8"
     inkscape:window-y="-8"
     inkscape:window-maximized="1"
     inkscape:current-layer="svg1" />
  <title
     id="title1">Google Maps</title>
  <path
     d="M19.527 4.799c1.212 2.608.937 5.678-.405 8.173-1.101 2.047-2.744 3.74-4.098 5.614-.619.858-1.244 1.75-1.669 2.727-.141.325-.263.658-.383.992-.121.333-.224.673-.34 1.008-.109.314-.236.684-.627.687h-.007c-.466-.001-.579-.53-.695-.887-.284-.874-.581-1.713-1.019-2.525-.51-.944-1.145-1.817-1.79-2.671L19.527 4.799zM8.545 7.705l-3.959 4.707c.724 1.54 1.821 2.863 2.871 4.18.247.31.494.622.737.936l4.984-5.925-.029.01c-1.741.601-3.691-.291-4.392-1.987a3.377 3.377 0 0 1-.209-.716c-.063-.437-.077-.761-.004-1.198l.001-.007zM5.492 3.149l-.003.004c-1.947 2.466-2.281 5.88-1.117 8.77l4.785-5.689-.058-.05-3.607-3.035zM14.661.436l-3.838 4.563a.295.295 0 0 1 .027-.01c1.6-.551 3.403.15 4.22 1.626.176.319.323.683.377 1.045.068.446.085.773.012 1.22l-.003.016 3.836-4.561A8.382 8.382 0 0 0 14.67.439l-.009-.003zM9.466 5.868L14.162.285l-.047-.012A8.31 8.31 0 0 0 11.986 0a8.439 8.439 0 0 0-6.169 2.766l-.016.018 3.665 3.084z"
     id="path1"
     style="fill:#989c9f;fill-opacity:0.60000002" />
</svg>
