<?xml version="1.0" encoding="UTF-8" standalone="no"?>
<svg
   preserveAspectRatio="xMidYMid"
   viewBox="0 0 346 346"
   version="1.1"
   id="svg5"
   sodipodi:docname="java.svg"
   width="346"
   height="346"
   inkscape:version="1.3.2 (091e20e, 2023-11-25, custom)"
   xmlns:inkscape="http://www.inkscape.org/namespaces/inkscape"
   xmlns:sodipodi="http://sodipodi.sourceforge.net/DTD/sodipodi-0.dtd"
   xmlns="http://www.w3.org/2000/svg"
   xmlns:svg="http://www.w3.org/2000/svg">
  <defs
     id="defs5" />
  <sodipodi:namedview
     id="namedview5"
     pagecolor="#505050"
     bordercolor="#eeeeee"
     borderopacity="1"
     inkscape:showpageshadow="0"
     inkscape:pageopacity="0"
     inkscape:pagecheckerboard="0"
     inkscape:deskcolor="#505050"
     inkscape:zoom="0.83074829"
     inkscape:cx="-148.66115"
     inkscape:cy="184.77318"
     inkscape:window-width="1920"
     inkscape:window-height="1009"
     inkscape:window-x="-8"
     inkscape:window-y="-8"
     inkscape:window-maximized="1"
     inkscape:current-layer="svg5" />
  <path
     d="m 128.1578,267 c 0,0 -14,8 9,11 27,3 41,2 71,-3 0,0 8,5 19,9 -67,29 -153.000002,-2 -99,-17 m -9,-37 c 0,0 -15,11 8,13 29,3 52,3 92,-4 0,0 6,5 15,8 -82,24 -173.000002,2 -115,-17"
     fill="#5382A1"
     id="path1"
     style="fill:#989c9f;fill-opacity:0.60000002" />
  <path
     d="m 189.1578,166 c 17,19 -4,36 -4,36 0,0 42,-22 22,-49 -18,-26 -32,-38 44,-82 0,0 -119,29 -62,95"
     fill="#E76F00"
     id="path2"
     style="fill:#989c9f;fill-opacity:0.60000002" />
  <path
     d="m 278.1578,295 c 0,0 10,8 -10,15 -39,12 -163,15 -197.000002,0 -12,-5 11,-13 18,-14 L 101.1578,294 C 87.157798,285 12.157798,313 63.157798,322 201.1578,344 314.1578,312 278.1578,295 m -144,-105 c 0,0 -63.000002,15 -22,21 17,2 51,2 83,-1 26,-2 52,-7 52,-7 l -16,9 c -64,16 -187.000002,8 -151.000002,-9 C 110.1578,189 134.1578,190 134.1578,190 m 113,63 c 64,-33 34,-66 13,-61 l -7,2 c 0,0 2,-3 6,-5 41,-14 73,43 -14,66 l 2,-2"
     fill="#5382A1"
     id="path3"
     style="fill:#989c9f;fill-opacity:0.60000002" />
  <path
     d="m 207.1578,0 c 0,0 36,36 -34,91 -56,45 -12,70 0,99 -32,-30 -56,-56 -40,-80 23,-35 89,-53 74,-110"
     fill="#E76F00"
     id="path4"
     style="fill:#989c9f;fill-opacity:0.60000002" />
  <path
     d="m 140.1578,345 c 62,4 158,-3 160,-32 0,0 -4,11 -51,20 -53,10 -119,9 -158.000002,2 0,0 8,7 49.000002,10"
     fill="#5382A1"
     id="path5"
     style="fill:#989c9f;fill-opacity:0.60000002" />
</svg>
