<?xml version="1.0" encoding="UTF-8" standalone="no"?>
<svg
   preserveAspectRatio="xMidYMid"
   viewBox="0 0 346 346"
   version="1.1"
   id="svg5"
   sodipodi:docname="javafx.svg"
   width="346"
   height="346"
   inkscape:version="1.3.2 (091e20e, 2023-11-25, custom)"
   xmlns:inkscape="http://www.inkscape.org/namespaces/inkscape"
   xmlns:sodipodi="http://sodipodi.sourceforge.net/DTD/sodipodi-0.dtd"
   xmlns="http://www.w3.org/2000/svg"
   xmlns:svg="http://www.w3.org/2000/svg">
  <defs
     id="defs5" />
  <sodipodi:namedview
     id="namedview5"
     pagecolor="#505050"
     bordercolor="#eeeeee"
     borderopacity="1"
     inkscape:showpageshadow="0"
     inkscape:pageopacity="0"
     inkscape:pagecheckerboard="0"
     inkscape:deskcolor="#505050"
     inkscape:zoom="0.83074829"
     inkscape:cx="95.696857"
     inkscape:cy="99.308059"
     inkscape:window-width="1920"
     inkscape:window-height="1009"
     inkscape:window-x="-8"
     inkscape:window-y="-8"
     inkscape:window-maximized="1"
     inkscape:current-layer="svg5" />
  <path
     d="m 83,267 c 0,0 -14,8 9,11 27,3 41,2 71,-3 0,0 8,5 19,9 -67,29 -153,-2 -99,-17 m -9,-37 c 0,0 -15,11 8,13 29,3 52,3 92,-4 0,0 6,5 15,8 -82,24 -173,2 -115,-17"
     fill="#5382a1"
     id="path1"
     style="fill:#989c9f;fill-opacity:0.60000002" />
  <path
     d="m 144,166 c 17,19 -4,36 -4,36 0,0 42,-22 22,-49 -18,-26 -32,-38 44,-82 0,0 -119,29 -62,95"
     fill="#e76f00"
     id="path2"
     style="fill:#989c9f;fill-opacity:0.60000002" />
  <path
     d="m 233,295 c 0,0 10,8 -10,15 -39,12 -163,15 -197,0 -12,-5 11,-13 18,-14 l 12,-2 c -14,-9 -89,19 -38,28 138,22 251,-10 215,-27 M 89,190 c 0,0 -63,15 -22,21 17,2 51,2 83,-1 26,-2 52,-7 52,-7 l -16,9 c -64,16 -187,8 -151,-9 30,-14 54,-13 54,-13 m 113,63 c 64,-33 34,-66 13,-61 l -7,2 c 0,0 2,-3 6,-5 41,-14 73,43 -14,66 l 2,-2"
     fill="#5382a1"
     id="path3"
     style="fill:#989c9f;fill-opacity:0.60000002" />
  <path
     d="m 162,0 c 0,0 36,36 -34,91 -56,45 -12,70 0,99 C 96,160 72,134 88,110 111,75 177,57 162,0"
     fill="#e76f00"
     id="path4"
     style="fill:#989c9f;fill-opacity:0.60000002" />
  <path
     d="m 95,345 c 62,4 158,-3 160,-32 0,0 -4,11 -51,20 -53,10 -119,9 -158,2 0,0 8,7 49,10"
     fill="#5382a1"
     id="path5"
     style="fill:#989c9f;fill-opacity:0.60000002" />
  <text
     xml:space="preserve"
     style="font-style:italic;font-variant:normal;font-weight:300;font-stretch:normal;font-size:123.475px;font-family:'Segoe UI';-inkscape-font-specification:'Segoe UI, Light Italic';font-variant-ligatures:normal;font-variant-caps:normal;font-variant-numeric:normal;font-variant-east-asian:normal;fill:#989c9f;fill-opacity:0.60000002;stroke-width:166.329;stroke-linecap:round;stroke-linejoin:round;paint-order:fill markers stroke"
     x="177.7549"
     y="176.47908"
     id="text5"
     transform="scale(1.0780124,0.92763309)"><tspan
       sodipodi:role="line"
       id="tspan5"
       x="177.7549"
       y="176.47908"
       style="font-style:italic;font-variant:normal;font-weight:300;font-stretch:normal;font-size:123.475px;font-family:'Segoe UI';-inkscape-font-specification:'Segoe UI, Light Italic';font-variant-ligatures:normal;font-variant-caps:normal;font-variant-numeric:normal;font-variant-east-asian:normal;fill:#989c9f;fill-opacity:0.60000002;stroke-width:166.329">FX</tspan></text>
</svg>
