<?xml version="1.0" encoding="UTF-8" standalone="no"?>
<!-- icon666.com - MILLIONS vector ICONS FREE -->

<svg
   id="_x31_px"
   enable-background="new 0 0 24 24"
   viewBox="0 0 24 24"
   version="1.1"
   sodipodi:docname="sql.svg"
   inkscape:version="1.3.2 (091e20e, 2023-11-25, custom)"
   xmlns:inkscape="http://www.inkscape.org/namespaces/inkscape"
   xmlns:sodipodi="http://sodipodi.sourceforge.net/DTD/sodipodi-0.dtd"
   xmlns="http://www.w3.org/2000/svg"
   xmlns:svg="http://www.w3.org/2000/svg">
  <defs
     id="defs5" />
  <sodipodi:namedview
     id="namedview5"
     pagecolor="#505050"
     bordercolor="#eeeeee"
     borderopacity="1"
     inkscape:showpageshadow="0"
     inkscape:pageopacity="0"
     inkscape:pagecheckerboard="0"
     inkscape:deskcolor="#505050"
     inkscape:zoom="11.976621"
     inkscape:cx="13.067125"
     inkscape:cy="8.1408604"
     inkscape:window-width="1920"
     inkscape:window-height="1009"
     inkscape:window-x="-8"
     inkscape:window-y="-8"
     inkscape:window-maximized="1"
     inkscape:current-layer="_x31_px" />
  <path
     d="m19.5 24h-15c-1.379 0-2.5-1.122-2.5-2.5v-19c0-1.378 1.121-2.5 2.5-2.5h15c1.379 0 2.5 1.122 2.5 2.5v19c0 1.378-1.121 2.5-2.5 2.5zm-15-23c-.827 0-1.5.673-1.5 1.5v19c0 .827.673 1.5 1.5 1.5h15c.827 0 1.5-.673 1.5-1.5v-19c0-.827-.673-1.5-1.5-1.5z"
     id="path1"
     style="fill:#989c9f;fill-opacity:0.60000002" />
  <path
     d="m7.25 21h-1.75c-.276 0-.5-.224-.5-.5s.224-.5.5-.5h1.75c.413 0 .75-.336.75-.75s-.337-.75-.75-.75h-.5c-.965 0-1.75-.785-1.75-1.75s.785-1.75 1.75-1.75h1.75c.276 0 .5.224.5.5s-.224.5-.5.5h-1.75c-.413 0-.75.336-.75.75s.337.75.75.75h.5c.965 0 1.75.785 1.75 1.75s-.785 1.75-1.75 1.75z"
     id="path2"
     style="fill:#989c9f;fill-opacity:0.60000002" />
  <path
     d="m12.5 21h-1c-.827 0-1.5-.673-1.5-1.5v-3c0-.827.673-1.5 1.5-1.5h1c.827 0 1.5.673 1.5 1.5v3c0 .827-.673 1.5-1.5 1.5zm-1-5c-.275 0-.5.224-.5.5v3c0 .276.225.5.5.5h1c.275 0 .5-.224.5-.5v-3c0-.276-.225-.5-.5-.5z"
     id="path3"
     style="fill:#989c9f;fill-opacity:0.60000002" />
  <path
     d="m13.5 21c-.128 0-.256-.049-.354-.146l-1-1c-.195-.195-.195-.512 0-.707s.512-.195.707 0l1 1c.195.195.195.512 0 .707-.097.097-.225.146-.353.146z"
     id="path4"
     style="fill:#989c9f;fill-opacity:0.60000002" />
  <path
     d="m18.5 21h-3c-.276 0-.5-.224-.5-.5v-5c0-.276.224-.5.5-.5s.5.224.5.5v4.5h2.5c.276 0 .5.224.5.5s-.224.5-.5.5z"
     id="path5"
     style="fill:#989c9f;fill-opacity:0.60000002" />
  <path
     d="m19.5 24h-15c-1.379 0-2.5-1.122-2.5-2.5v-19c0-1.378 1.121-2.5 2.5-2.5h15c1.379 0 2.5 1.122 2.5 2.5v19c0 1.378-1.121 2.5-2.5 2.5zm-15-23c-.827 0-1.5.673-1.5 1.5v19c0 .827.673 1.5 1.5 1.5h15c.827 0 1.5-.673 1.5-1.5v-19c0-.827-.673-1.5-1.5-1.5z"
     id="path6"
     style="fill:#989c9f;fill-opacity:0.60000002" />
  <path
     d="m7.25 21h-1.75c-.276 0-.5-.224-.5-.5s.224-.5.5-.5h1.75c.413 0 .75-.336.75-.75s-.337-.75-.75-.75h-.5c-.965 0-1.75-.785-1.75-1.75s.785-1.75 1.75-1.75h1.75c.276 0 .5.224.5.5s-.224.5-.5.5h-1.75c-.413 0-.75.336-.75.75s.337.75.75.75h.5c.965 0 1.75.785 1.75 1.75s-.785 1.75-1.75 1.75z"
     id="path7"
     style="fill:#989c9f;fill-opacity:0.60000002" />
  <path
     d="m12.5 21h-1c-.827 0-1.5-.673-1.5-1.5v-3c0-.827.673-1.5 1.5-1.5h1c.827 0 1.5.673 1.5 1.5v3c0 .827-.673 1.5-1.5 1.5zm-1-5c-.275 0-.5.224-.5.5v3c0 .276.225.5.5.5h1c.275 0 .5-.224.5-.5v-3c0-.276-.225-.5-.5-.5z"
     id="path8"
     style="fill:#989c9f;fill-opacity:0.60000002" />
  <path
     d="m13.5 21c-.128 0-.256-.049-.354-.146l-1-1c-.195-.195-.195-.512 0-.707s.512-.195.707 0l1 1c.195.195.195.512 0 .707-.097.097-.225.146-.353.146z"
     id="path9"
     style="fill:#989c9f;fill-opacity:0.60000002" />
  <path
     d="m18.5 21h-3c-.276 0-.5-.224-.5-.5v-5c0-.276.224-.5.5-.5s.5.224.5.5v4.5h2.5c.276 0 .5.224.5.5s-.224.5-.5.5z"
     id="path10"
     style="fill:#989c9f;fill-opacity:0.60000002" />
</svg>
